/* XPM */
static char *_18544e8ae694774d92da10e45a9da9b8lOYQJcc9IKKdm6g[] = {
/* columns rows colors chars-per-pixel */
"64 64 202 2 ",
"   c #0D1011",
".  c #0C151D",
"X  c #1F221E",
"o  c #24241D",
"O  c #29271D",
"+  c #2D2B1E",
"@  c #0B1721",
"#  c #0D1924",
"$  c #0E1E2C",
"%  c #111C24",
"&  c #111E29",
"*  c #0F202F",
"=  c #1C2223",
"-  c #15222C",
";  c #1B252D",
":  c #0F2131",
">  c #112333",
",  c #182733",
"<  c #1C2A34",
"1  c #122639",
"2  c #142A3D",
"3  c #1C2D3B",
"4  c #1E303F",
"5  c #222624",
"6  c #252927",
"7  c #2D2C23",
"8  c #242A2A",
"9  c #2A2E2D",
"0  c #312F22",
"q  c #2D312D",
"w  c #353224",
"e  c #383526",
"r  c #33342B",
"t  c #3A3629",
"y  c #3D3A2A",
"u  c #242D32",
"i  c #23323C",
"p  c #2D3639",
"a  c #3A3B34",
"s  c #343C3B",
"d  c #3C3F3A",
"f  c #433E2D",
"g  c #403E30",
"h  c #3C413D",
"j  c #46412F",
"k  c #464232",
"l  c #4A4532",
"z  c #4E4834",
"x  c #43443D",
"c  c #4D493A",
"v  c #514B36",
"b  c #534E39",
"n  c #56503B",
"m  c #59533C",
"M  c #162D43",
"N  c #182F43",
"B  c #1D3243",
"V  c #173148",
"C  c #1A344B",
"Z  c #1B3650",
"A  c #1C3954",
"S  c #1E3D59",
"D  c #243541",
"F  c #2D3B43",
"G  c #283944",
"H  c #253B4B",
"J  c #2A3D4B",
"K  c #333E42",
"L  c #243F55",
"P  c #2C414E",
"I  c #394447",
"U  c #33434C",
"Y  c #2D4454",
"T  c #2B455B",
"R  c #28455D",
"E  c #324552",
"W  c #344956",
"Q  c #3C4C55",
"!  c #334B5A",
"~  c #384F5D",
"^  c #3A505D",
"/  c #234564",
"(  c #274969",
")  c #354F61",
"_  c #375163",
"`  c #3B5464",
"'  c #3A5669",
"]  c #3D5969",
"[  c #285077",
"{  c #464A45",
"}  c #504B41",
"|  c #4C5147",
" . c #565447",
".. c #5C5642",
"X. c #5E5942",
"o. c #424D53",
"O. c #42535C",
"+. c #4D595D",
"@. c #575B56",
"#. c #645D45",
"$. c #625D48",
"%. c #5C605E",
"&. c #676047",
"*. c #676249",
"=. c #6A6349",
"-. c #6F684D",
";. c #716A4E",
":. c #64645A",
">. c #756E51",
",. c #7A7254",
"<. c #74705B",
"1. c #7E7758",
"2. c #7F7858",
"3. c #485A64",
"4. c #435C6C",
"5. c #525E64",
"6. c #415F71",
"7. c #4A626D",
"8. c #536164",
"9. c #5E6466",
"0. c #54666C",
"q. c #456273",
"w. c #4B6675",
"e. c #4A697A",
"r. c #546B76",
"t. c #536D7C",
"y. c #5A6F79",
"u. c #59747D",
"i. c #666B68",
"p. c #696E6C",
"a. c #79766A",
"s. c #677477",
"d. c #7D7C76",
"f. c #857D5C",
"g. c #887F5E",
"h. c #847E74",
"j. c #88805F",
"k. c #8C8461",
"l. c #908764",
"z. c #928965",
"x. c #968D69",
"c. c #988F69",
"v. c #9D936C",
"b. c #A1976F",
"n. c #A39970",
"m. c #ABA174",
"M. c #B2A777",
"N. c #B5A979",
"B. c #BAAE7D",
"V. c #BCB07E",
"C. c #506F81",
"Z. c #577586",
"A. c #5A7584",
"S. c #5D7B8B",
"D. c #627A85",
"F. c #627E8C",
"G. c #5A818C",
"H. c #698189",
"J. c #798A8F",
"K. c #648393",
"L. c #678796",
"P. c #6B8B9A",
"I. c #758D98",
"U. c #74919D",
"Y. c #559BA4",
"T. c #6F96A3",
"R. c #7595A4",
"E. c #7A96A3",
"W. c #779AA6",
"Q. c #7C9BAA",
"!. c #7EA5B2",
"~. c #8F938E",
"^. c #839398",
"/. c #A49C8E",
"(. c #BFB380",
"). c #829DA8",
"_. c #85A3AE",
"`. c #8BA3AB",
"'. c #91A7AE",
"]. c #83A4B3",
"[. c #88A9B6",
"{. c #8CACBA",
"}. c #91AEBA",
"|. c #94B2BE",
" X c #A9B7B9",
".X c #C1B481",
"XX c #C6B985",
"oX c #C8BB86",
"OX c #CEC089",
"+X c #94B5C2",
"@X c #9BBBC7",
"#X c #A8BDC3",
"$X c #9DC2CD",
"%X c #A2C3CC",
"&X c #A3C6D3",
"*X c #AED2DF",
"=X c #AED2E0",
"-X c #B7DCEA",
";X c #BCE2ED",
":X c #BFE6F4",
">X c #C2CDD0",
",X c #C0E7F5",
/* pixels */
"=.=.#.l f e 7 e g.l.-.=.#.l w e z.XXx.-.*.=.*.=.&.z j j w e j.x.-.&.#.l j w e j.c.c.z.;.#.l f f w e j.z.;.#.l j j w e j.z.;.&.=.",
"=.=.#.l f e 0 e k.l.-.=.#.k w e z.(.x.-.=.=.=.=.&.#.l f w w j.B.>.=.&.l j w e j.v.V.z.;.#.l l f w e j.z.;.#.l j j w e j.z.;.=.=.",
"=.=.#.l f e w j k.l.;.=.#.l w e k.c.z.-.=.=.=.=.=.#.l j f 0 l N.>.=.&.l j w e j.v.c.>.=.#.l j f w e j.z.=.#.l j f w f M.z.;.=.=.",
"=.#.z j f 0 e f.(.l.-.&.z f w e j.x.z.-.*.=.=.=.&.#.l j j w f m.>.=.#.l j w e l..Xz.=.=.#.l j f w e j.l.;.#.l f w 0 y M.,.=.&.=.",
"=.#.l f e 0 e l..X,.&.#.k f w e j.x.l.-.=.=.=.=.=.&.l j j w y j.>.=.#.l j w w l..Xf.#.=.#.z f f w e j.l.;.#.l f w 0 l N.>.=.=.=.",
"#.#.z f e 0 t k..X>.&.#.l f w e j.x.x.k.=.=.=.=.=.#.l j j w e j.z.=.#.l f 0 e z.V.>.#.#.z j j f w e j.k.=.#.l j w e j.V.>.=.=.=.",
"#.z j f e 0 e k.B.>.#.z f f w e j.x.c.z.-.=.=.&.=.#.l j j w w j.B.;.z j f w l N.v.;.=.#.l f f e 0 e f.>.&.z j f w e l..X>.=.=.&.",
"#.z j f e 0 f k.z.;.#.z f e 0 e j.v.c.l.-.=.=.=.=.#.l j f w e z.B.-.l j w w j.XXc.;.=.#.z f f w 0 j f.=.#.l j w w e l.V.>.=.=.=.",
"#.l f f 0 e f.x.;.&.z f f e 0 e j.XXv.l.-.=.=.=.=.#.l j f w w f.l.b j j w e z..Xz.;.&.#.l f f e w f.l.=.z j j e 0 f k.c.;.=.=.=.",
"l f f e 0 e k.B.>.#.z f f e 0 e j.XXv.l.-.=.=.=.=.&.l j f w + y ,.z f f w y M.b.>.=.&.#.z f f e w j.l.=.l j f 0 w f.z.k.=.=.=.=.",
"f f f 0 0 f z..X,.#.l l f w + 0 l V.v.l.-.=.=.&.#.m l j j w + + l j f w 0 l B.c.;.=.#.z j l f w e j.k.#.l f e 0 w j.l.;.=.=.=.=.",
"l f e 0 e f.b.B.;.v f f f 0 + 0 y M.n.z.-.=.=.&.c h k f f w O + f j f e e j..Xz.;.=.#.l f f f w w f.=.z j f 0 + w j.c.>.=.=.=.#.",
"f f w 0 e f.B.c.#.l f f e 0 0 0 e x..Xc.-.=.=.&. .0.@.y f e O + + f f w e z.V.,.&.&.#.j f f e + e >.v j j f 0 + w z.(.l.=.=.#.z ",
"f t 0 + 0 f l.f.n f f e 0 + f 0 e l.XXc.-.=.=.=...+.0.h y w O w + y e 0 l N.v.;.=.&.z l j f w + 0 e j j j w + 0 e k..Xb.;.=.#.l ",
"f w + w 0 e >.m l f f e 0 e f 0 e l.XXc.-.&...&.#.I h y w 0 7 y w + 0 e j.XXc.-.=.#.l f j f e + 0 + f j f 0 + 0 w f.b.V.>.#.z j ",
"w 0 + f e w e f f f e 0 e ;.z f e f.XXv.;.m r b m h s t o + e f e + 0 f l.XXc.-.=.#.l f j f e + 0 + f f w 0 y w 0 f l.V.,.#.l j ",
"0 t f f t 0 0 f f f e 0 f 1.v f e l N.v.;. .I r k { 5.r = 7 >.b f w w 1.v.XXc.;.&.l j j j e 0 + y 0 0 f w + f f w w f.z.k.=.j e ",
"f >.v f f 0 + f f e 0 f f.k.b f 0 e x..Xj.@.I.F u Q U.s F I ;.f.z w e 2.v.XXc.;.#.l j j j w 0 e f w + 0 w + l j w w f f.l.&.j w ",
"g.l.n f f w 7 f e 0 f f.B.l.v f e e k.oXx.@.E.r.4.4.|.0.E E $.j.z f w f z.XXc.=.z j j j f 0 w >.z f 0 + + f ,.z f w e f.j.v e + ",
"b..Xg.z f w 0 O 0 e 1.v.c.k.b f f e f..Xz.| H.L.P.Z.{._.q.F X.-.z f w e f.V.c.&.l j j j e 0 j f.z j j 0 w f.j.m j f w f f.z w + ",
"n.V.>.l f f e + 0 f l..Xc.;.#.l j w l N.l.a 0.Q.[.W.].$XP.5.} #.#.l f w j j.g.v j j j f w e 2.j.z j j 0 e j.z.f.z f w e ;.f 0 X.",
".Xc.=.z f f w + y f.v..Xx.=.#.l j 0 0 f.j.m d 3.G.!.]._.R.s.@.:...f f w w m v j j j j e 0 e j.l.m l j 0 e j.c.z.b j f w w w f f.",
"c.>.=.#.l f w w 1.x.n.B.,.=.#.k t h 8.s.:.i.+.w.q.Y.u.O.e.S.).#X Xa.c a O + f j j j f w 0 l M.v.f.z j e e j.b.B.-.l j f 0 e f.l.",
"g.-.=.#.l f w e g.v..Xc.-.=.#.d 7.S.{.}.U.D.I r.U.u.<   E w.o.J.>X#Xi.{ + + f j j f f w e j.V.b.f.z j 0 e j.n.B.;.l j f w e j.z.",
";.=.=.#.z f e e f.c.V.f.=.&.b O.U.[.+X%X@X+XA.A.U.s.%   K K u 3.~.F.5.{ g r 7 f j j w 0 j l.v.j.=.l j w e j..Xv.=.l j f w e j.x.",
"=.=.=.#.z f f w f l.V.;.&.#.h A.L.L.Q.+X=X&X).^ r.F.p   +.& @ O.).^.^.~.~.@.o f j f 0 j j.N.c.>.&.l f w e l.XXx.=.v j f w e g.b.",
"=.=.=.#.l f f w e l..X,.=.#.I K.P.S.L.].+XQ.P.t.D.D.p & D & u Q ).@X#X5.s.g o f j w e j..Xb.l.=.#.l j w e l.B.,.=.#.j e + f l.XX",
"=.=.=.#.z f f w e l.B.>.=.#.x w.P.S.K.R.Q.P.K.+X*X*X[.0.J D.].D.L.).'.p g w 0 O 0 0 j c..Xx.;.=.&.l j e e j.c.;.=.#.j w w f.b.OX",
"=.#.=.#.l f f w e g.x.;.=.#.p ) 6.4.A.C.F.P.L.@X:X,X,X^.3.@X;XR.S.F.D.9 g w w 7 0 e f.V.b.;.=.=.#.l j w e j.l.=.=.#.j w e g.b.oX",
"=.=.=.#.l l f w e g.l.-.=.m p L Z N B D E Z.R.+X*X-X-XF.~ +X-X{.4.) ) 8 t r 0 O 0 j x.V.z.-.=.=.#.l j w e j.z.;.=.#.l w e g.b.OX",
"=.=.=.#.l f f e e g.z.-.#.s / [ ( L 1 , _ Z.L.R.).{.Q.4.J A.].P.J i H , 0 f w 0 e j.V.b.;.=.=.=.#.l j w e j.x.;.=.#.j e w f.b.oX",
"=.=.=.#.l f f e e g.l.-.c H / / L D @ & L _ ] q.q.w.q.D & ! q.L & i C C 6 f t 0 e l.V.c.-.=.&.=.#.l j 0 e l.B.>.=.#.l f e f.v.oX",
"&.=.=.#.l j w w r f.z.*.q D 4.Z.) 5 @ . . J T ` ' ` H 3 3 , L u % D H R < w 0 w w j.n.z.;.=.&.=.&.l y 0 j l.V.>.&.&.l f 0 j j.v.",
"-.=.=.#.l j w 7 e k.z.=.t Q W.{.].O.; .   % ; B D , J F.P.3.& . . x 3.C.) 6 w w w j.V.c.-.=.=.=.&.j w w f.v.XX>.=.#.l j w e ,.x.",
"j.;.&.&.l j w w j k.z.-.b 8.Q.Q.@XF.; @ . . ; J ! ` R.].P.A.W G @ ; J t.D.p 7 O 0 l N.v.;.=.=.=.&.j w e j.v.XX>.=.#.l j e 0 j j.",
"l.;.&.#.l f w w f.(.x.X.m { R.+X&X0.& @ & T Z.Q.].P.F.S.F.q.L.r.% @ % ! C.G o O w w x.V.,.=.=.=.&.l w e j.b.V.>.=.#.l l j w w 2.",
"c.>.&.z j j w e z.XXk.I { q K.].@XQ & # # J w.F.K.C.t.K.P.q.6.E @ # . D ) L ; 7 y e j.XXl.-.=.*.X.l w w ,.v.B.>.=.#.l j j y w w ",
"XXl.=.l j y w e l.(.l.h p u Q G.A.p @ # @ , ) J D Y T 4.4.J , & * . % 3 3.' B F r w j M.v.>.=.#.l j w + j j.c.;.=.#.l j j j w O ",
"OXc.=.l j e w e k.n.V.=.c p y.Q.4.9 % & , ) 4.I & @ H C H 2 & Y J @ @ @ i D & N B < 6 ,.m.z.;.#.l f w O w j.z.>.=.#.l j j j w + ",
"oXv.-.z j w 0 e j.v..X,.=.l p W G Y E D u D.@X'.5., L / ( T B ) ! & : # . @ # : 1 M 1 < o.<.1.b l j w O w j.v.j.-.#.j j j j w + ",
"c.N.j.z j w 0 w 1.v.XXl.-.#.k q 8 J ] e.] t.G.).^.J ( ( ( ! p J J < M M $ $ $ $ $ $ : 1 C Y I g j j 0 + w f.B.v.;.#.l j j w w X.",
"j j.n j f 0 + w f l.XXv.-.#.k q = i 4.' Y P ^ |. XW ( L Z , & J ; # M M M 2 1 : $ $ $ $ : 2 A i w j w + 0 j z.V.,.&.l j j 0 w f.",
"w ;.v j e 0 + y e f.(.v.>.#.r ; 8 p._.H.u.t.A.L.U.E.Q.Z.A.I K A.A.y.B M V M 2 2 : $ $ $ $ $ M S 3 5 + + 0 e l.XXx.=.l j j w e j.",
"w w j f w w + j e f c..Xl.-...c X.~.J.H.|.&X].W.L.K.F.R.|.`.).R.P.).G : V C V 2 1 * 1 : $ : $ N S 3 o e w e x.V.x.#.l j f w j j.",
"w + e e w w f ;.y e k.XXc.>.#.=.=.=.x o.H.Q.L.u.0.[.R.C.q.F.+X@X+X).i $ : N Z Z V M N 2 1 : $ : A S > 0 w e 2.c.l.v j j w w f.z.",
"y w + 0 w w 2.j.y e f..Xn.k.-.=.=.m } @.! ' y.*.= y.'.W.P.K.S.F.}.#XP._ 1 : 1 V Z C C V M 2 : $ M / S 3 7 w h j.j.l j f 0 e j.x.",
"1.y + w w e j.l.z e f x.(.v.-.=.#.e @.5.] ' p.a.l 9 D H T F.P.R.W.].{.{.E.4.3 > V Z C Z M M 1 $ 1 S / S ; + e j.k.v j w 0 w j.x.",
"k.j + + w e z.N.m w e g.b.(.,.=.#.w u ` C.e.3. .>.a & # q h.h.0.L.R.T.Q.{.%X`.7.B V Z Z V M : : : A / / 4 O e j.j.z j e 0 j l.c.",
"k.#.r + 7 f l..X;.j e 2.v.V.x.&.z t { 3.e.] p.h.c n X @ a /.~.o.] W P q.Y.!.$X$XU.` Z Z Z N * * : S ( / S = e >.n j j w w j.V.c.",
"=.#.e + e 1.v..Xx.z w f j.v.k.v j a <.W _ Q a.<.$.#.7 @ = :.h.@.W Q p : A ' q.G._.Q.` Z Z V > * V / / / A = e e j j w w w z.XXb.",
"=.#.l w e j.v.n.N.m e e 2.z.f.v e } h.o.Y p.h. .$.#.f o t h./.~.p.d.i.% 1 C V V i E P M 2 2 * 2 Z S / A 2 X w + h f w 0 e z..Xb.",
"=.&.#.e e 1.l.v..X=.j w f ,.b l y k %.i 3 3.%.c ..v f 0 0 p 5.i.9.0.U 3 - p h 2 * * - X q X - ; = | U > - O w + y j w 0 l N.b.c.",
"=.=.#.j w f j.v..X;.l w + l j f j X U ~ ^ ^ p l #.f f e 7 o K Q F Q O.O.{ k.j.l 6 5 7 e y 0 + o w j.m.&.j y w + y j w w j.XXv.c.",
"=.=.#.l e e j.v.V.,.l e 0 f j j j w 7 s @.2.#.&.#.l f e 0 O f y w h y y 2.v.V.,.#.&.X.l j w 0 + h z.XXc.=.l j 0 + f w e l.XXc.c.",
"=.=.#.z y e 1.x.b.M.m f 0 0 f j j w e 2.v.V.>.=.#.z f w 0 + f 0 e j y w j z.XXz.-.=.=.&.l j w w ,.c.V.z.=.l j w + w 0 e c..Xb.l.",
"=.&.=.#.j e f j.b..X=.l w + f j j w j j.v.N.>.&.z f f e + f 0 f >.z j w e z.V.v.>.&.&.&.l j w w f.x.c.>.&.z j w + 0 0 y N.b.z.;.",
"=.=.=.#.l w e f.v..X;.l f 0 0 f w f f.c.x.>.=.#.l j j w + 0 w 2.j.z j y e 2.v.V.z.;.&.#.z j w w j j.l.;.&.#.j f w + 0 l B.v.l.;.",
"=.=.=.#.j w w f.v.B.,.z j w O f w f.c.(.z.;.=.#.l j j w + 0 h j.j.n j j w j l.XXb.>.=.=.#.j e 0 w j.c.>.=.#.l j w 0 w j.XXv.k.=.",
"&.=.=.#.l w 0 f j.b.M.n f w + 0 f j.b.XXz.;.=.#.l j j 0 + f 2.x.z.&.l j w e j.n.(.z.=.=.#.l j 0 e l.(.z.;.#.l j e 0 e l.XXc.>.=.",
"=.=.&.#.l e 0 e j.b.V.m j w 0 e f.z.b.V.,.=.=.&.l j j w w ,.z.x.z.=.z j w w 2.v.(.c.;.=.#.l f w w j..Xc.;.#.l j j 0 e l.XXc.;.=.",
"=.=.=.#.l w w e f.b..X;.l f w e j.b.V.b.;.=.=.&.#.l j w e j.c.x.z.-.&.j j w j j.v.c.>.=.&.l f f w l B.c.;.#.j j j w w l.XXc.;.=.",
"=.=.=.#.j e w e g.b..X;.l f w e j.c.XXz.;.=.=.=.#.l j w w j.x.x.j.=.&.l j 0 e j.v.(.z.-.&.l j j w y M.c.;.#.l j j w e l.XXz.;.=.",
"=.=.=.#.l w 0 e g.b.V.;.z f w e j.b..X,.&.=.=.=.&.l j 0 w 2.x.l.>.=.&.j j w e j.v.(.c.-.#.l j f w e l.l.;.#.l j j 0 w z.B.,.&.=.",
"=.=.=.#.j e 0 e j.z.z.-.#.j w e j.b..X>.&.=.=.=.#.j j f w j j.z.-.=.&.j j w e j.c.v.l.;.#.l j f w e j.l.;.#.l j j w w j.c.;.=.=."
};
