/* XPM */
static char *b5ef238235a84883d52492bca2d3cfdesFr95jFxp3k6uqUl[] = {
/* columns rows colors chars-per-pixel */
"64 64 190 2 ",
"   c #2D2B1E",
".  c #3E341E",
"X  c #312F22",
"o  c #353224",
"O  c #383526",
"+  c #3B3728",
"@  c #3E3A29",
"#  c #4C3A1D",
"$  c #513D1E",
"%  c #463A25",
"&  c #4E3E24",
"*  c #433E2D",
"=  c #513F25",
"-  c #6C4E1C",
";  c #74531C",
":  c #4F4127",
">  c #46412F",
",  c #4B422C",
"<  c #554223",
"1  c #594524",
"2  c #52452B",
"3  c #5B4729",
"4  c #474230",
"5  c #4A4532",
"6  c #4E4834",
"7  c #514B36",
"8  c #534D38",
"9  c #56503A",
"0  c #59533C",
"q  c #725524",
"w  c #7D5C25",
"e  c #6B5734",
"r  c #745F39",
"t  c #776437",
"y  c #5F5942",
"u  c #645E45",
"i  c #685E43",
"p  c #676046",
"a  c #686147",
"s  c #6A6349",
"d  c #6F684D",
"f  c #746141",
"g  c #716A4D",
"h  c #756E51",
"j  c #7A7254",
"k  c #7E7758",
"l  c #7F7858",
"z  c #965914",
"x  c #9A5D14",
"c  c #8B631F",
"v  c #9C6116",
"b  c #9B651C",
"n  c #B76812",
"m  c #BB6C12",
"M  c #A4711C",
"N  c #AF791C",
"B  c #B47117",
"V  c #BC7416",
"C  c #B37A1B",
"Z  c #BB7D19",
"A  c #906E30",
"S  c #947030",
"D  c #AC7922",
"F  c #AA7C2B",
"G  c #A27931",
"H  c #CC710F",
"J  c #CE7311",
"K  c #C67816",
"L  c #D37811",
"P  c #D57C14",
"I  c #826C45",
"U  c #877249",
"Y  c #827856",
"T  c #8B7C54",
"R  c #847D5C",
"E  c #897E5B",
"W  c #BC841D",
"Q  c #AA832E",
"!  c #BE952F",
"~  c #A78738",
"^  c #B68E34",
"/  c #C2861D",
"(  c #C9881B",
")  c #CC8D1D",
"_  c #D58517",
"`  c #DB8615",
"'  c #DC8817",
"]  c #D4821B",
"[  c #D18A1A",
"{  c #CF931E",
"}  c #DB9B1E",
"|  c #E28D17",
" . c #E39219",
".. c #E19F1E",
"X. c #EA9D1C",
"o. c #EEA21C",
"O. c #E9A51F",
"+. c #F0A21C",
"@. c #F4AB1E",
"#. c #F8AF1F",
"$. c #C18D25",
"%. c #CA8A24",
"&. c #D39B25",
"*. c #D99229",
"=. c #E09C2C",
"-. c #C7A43C",
";. c #D6A637",
":. c #DEA539",
">. c #F0B225",
",. c #FEB520",
"<. c #E2AA3C",
"1. c #EEBC3D",
"2. c #F3C53B",
"3. c #88805F",
"4. c #998458",
"5. c #AB9546",
"6. c #B49E49",
"7. c #A38656",
"8. c #BB9E59",
"9. c #8C8461",
"0. c #908764",
"q. c #928965",
"w. c #968D69",
"e. c #988F69",
"r. c #9D936C",
"t. c #AB9767",
"y. c #A2966E",
"u. c #B39E6E",
"i. c #A39970",
"p. c #AF9B78",
"a. c #B39E7A",
"s. c #ADA273",
"d. c #B2A677",
"f. c #B4A679",
"g. c #B5A979",
"h. c #BAAE7D",
"j. c #BCB07E",
"k. c #BDB17E",
"l. c #CDB54B",
"z. c #CFAB53",
"x. c #CAB954",
"c. c #E5B545",
"v. c #C0A677",
"b. c #C6B67B",
"n. c #D4C75E",
"m. c #F1CA4E",
"M. c #EED05B",
"N. c #F4D75A",
"B. c #D2C567",
"V. c #E3DB66",
"C. c #F5D970",
"Z. c #F5E461",
"A. c #F4E56B",
"S. c #F8EA6D",
"D. c #EEEA73",
"F. c #F6E678",
"G. c #FAF375",
"H. c #FEFE7D",
"J. c #BCAC8C",
"K. c #BEB280",
"L. c #C0B481",
"P. c #C1B481",
"I. c #C4B783",
"U. c #C6B985",
"Y. c #CABD8B",
"T. c #C6B897",
"R. c #CEC08A",
"E. c #D0C39C",
"W. c #F4DA87",
"Q. c #FFFF82",
"!. c #FEFE8C",
"~. c #E8E29B",
"^. c #F5E692",
"/. c #FAF898",
"(. c #CFC3AB",
"). c #D9CFBD",
"_. c #EDE6A4",
"`. c #F8F6A3",
"'. c #FFFFAB",
"]. c #FFFFB4",
"[. c #F8F5B9",
"{. c #FEFEC4",
"}. c #FAF9CA",
"|. c #EBE7D0",
" X c #FFFFDE",
".X c #F1EEE5",
"XX c #FEFEE5",
"oX c #FFFFEB",
"OX c #FEFEF4",
"+X c #FEFEFC",
/* pixels */
"s s u 5 * O X O R q.d s u 4 o O 0.U.e.d s s s a p 6 4 > o O 3.e.d s p > > O O 3.w.r.q.d u 5 4 * o O 9.9.d u 5 > > o O 9.9.d s s ",
"s s u 5 * o X O 9.q.d s u 4 o O 0.J.e.d s s s s a y 5 * o O 3.g.h s p 5 >   O 3.r.h.q.d u 5 4 * o O 9.q.d u 5 4 * o + 9.q.d s s ",
"s s u 5 * O o > 9.q.d s u 4 o O R r.q.d s s s s s p 5 4 @ O 5 g.h s p 5 > o O 3.r.w.h s u 5 4 * o o R q.d u 5 > * o + d.q.d s s ",
"s u 6 > * X O R K.q.d u 6 * o O 9.w.0.d s s s s s y 5 4 > o @ s.h s p 5 > o O 0.K.q.d s u 5 4 * o o 9.9.d u 5 > o o * d.j s s s ",
"s u 5 * O o O 0.P.j s u 5 4 o O R w.q.h s s s s s p 5 4 * o O 3.h s p 5 > o O 0.K.j s a e > > > o o 3.0.d u 5 * o o 5 g.h s s s ",
"u u 5 * O X + 9.K.h s u 4 * o O 9.w.q.9.s s s s s u 5 > > o O 3.0.d y 5 @ o O w.K.h s a 6 > > > o + 3.9.d y 5 > o o 3.h.h s s s ",
"u 6 4 > O X O 9.K.h u 6 4 @ o O R w.w.q.s s s s s u 5 > * o o 0.k.g 6 > @ o 5 g.r.d s u 5 4 > o o o R h p 6 4 * o O q.K.h a s s ",
"u 5 > * O X * 9.0.d y 6 * O X O 9.r.w.q.d s s s s u 5 4 > o O 9.g.d 5 > O o 3.b.e.d s u 5 > > o o * R d y 5 > o o O q.h.h s s s ",
"y 5 4 @ o O l w.h u 6 4 * O X O 0.b.r.q.d s s s s u 5 4 * o o k 0.9 > > o O w.k.w.d s u 5 > > o O k q.s 6 4 * o X * 9.w.d s s s ",
"5 4 * O X O 0.h.h u 5 4 * O X O R I.r.0.d s s s s u 5 * * X   + j 7 > @ o @ d.r.h s u u 5 > > o O 3.q.s 4 * * o o k q.9.d s s s ",
"4 * @ O o @ q.P.h u 5 4 * o   X 5 h.r.q.d s s s s u 5 4 * O     5 > > o o 5 g.e.d s p 6 > > > o O 3.9.p 5 * o X O 3.q.h s s s a ",
"4 * O o O l r.J.h 6 * * * X   X @ g.i.q.d s s s s u 5 4 * o     @ > > o o 3.U.w.d a p 5 > > @ O O k s 6 4 * X   o 9.w.g s s a p ",
"> * O X O R K.r.u 5 * * O X   X + w.P.w.d s s s s u 5 4 * o   X X @ @ o O w.k.j s a 0 6 5 > O   O h 7 4 * * o   o 0.K.w.d s p 6 ",
"* O X   X * E R 8 * * O X X @ X O 9.U.w.d s s s s u 5 4 * o   X X @ O o 5 g.r.d s p 6 > > > o   X O * 4 * o   X O q.K.r.d a y 4 ",
"* X   X o o g y 5 * * o X O * O O q.U.e.d s s s u u 5 * O X X @     X O 3.b.e.d s p 5 > > >     o   * * * o   X O k r.h.h p 6 4 ",
"O X X @ o X O * 5 * O X O h 6 @ + R I.w.d s s s u 6 4 * o X O * O X   > 0.U.e.d a y 5 > > @ O   X X @ * O X + o o * q.h.j p 6 * ",
"X O * * O o   * 4 * o o @ l 6 4 o 5 g.r.g a s s u 5 * O X O h 9 * X O k r.I.e.g u 6 5 * * O X   + o   @ X X @ * X o k e.9.s 5 O ",
"* h 7 * * o X @ @ o o @ 3.9.6 * o O w.K.w.d s a u 5 * O X O R R 5 O O Y r.I.e.g u 6 * 4 * o o O * O   o X X 5 4 O o * 9.0.a 4 X ",
"9.0.y * * X   @ O o * R h.9.6 > O O 0.U.e.d s p 6 > * o o * 9.E 6 * X * q.U.e.s 6 * * > * o O h 6 * o   o * h 6 * O o k 9.8 O   ",
"r.K.R 5 * o X X X O l r.r.9.8 4 @ O 3.I.e.d s u 5 > @ . O r f r = & . O R P.e.i 6 * * * O X * k 6 > * X o k 9.9 4 @ o * k 5 X X ",
"i.K.h 5 * * o   o @ q.K.e.d u 5 > o > g.w.d s u 6 , & # t 5.5.y.y.t.U = 1 T R 7 * * * * X O Y 9.6 4 > o o 9.q.3.6 * o O g @ o y ",
"P.e.s 6 5 * X   @ l r.U.q.d u 5 > o + 9.q.h s y , e 5.6.n.Z.N.C.W.^.E.J.p.h 8 5 * 5 * @ X + 9.q.9 4 * o o 3.w.q.9 4 @ O O X @ 9.",
"e.h s u 5 * o O l w.i.J.j s u 5 * o O 3.w.9.s 7 - $.1.<.-.Q D D D F z.W.`.Y.f * * * * O X 5 g.w.3.6 * o O 3.r.h.d 5 * * X o k q.",
"9.d s u 5 * X O 3.r.k.r.d s u 6 > @ O k w.9.i q / X.K b ^ n.B.E.(.(.v.~ c.W.Y.f 5 * * o O R P.r.3.6 * o O 9.i.h.d 5 4 * o O 9.w.",
"s s s u 5 * O O k r.P.j s s u u 5 > o @ 9.Y q Z ` m F B.D.!.{.oXOX+X.X).u.;.F.Y.f * O X * q.w.q.d 5 * o O 9.K.r.s 5 4 4 X O 9.q.",
"s s s u 6 * * o * 0.P.h s s s u 5 > o o g w $._ n v ;.H.Q.].XXoX+X+X+XOX|.8.;.^.T.r O % 9.h.w.h p 5 > o O 0.U.q.s 6 4 @ o O 9.r.",
"s s s u 5 * * O + 0.P.h s s d u 5 > > X < N o.V x %.G.H.H.'. XoXoX+X+XOXoX_.^ b.}.J.< T P.i.9.g p 5 * o O q.K.j s y 5 O o * 9.U.",
"s s s u 6 * * X O 9.K.h s s s u 6 > >   # C ' z n *.G.H.H.!.{.oXoXoXOXOXoX].z.Q ~.T.3 w.P.q.h u p 5 * o O 9.w.d s p 5 o O l r.R.",
"s s s u 6 * * O O E w.d s s s u u , 4 O ; ( V B H *.G.H.H.H.'. XoXoXoXoX{.!.A.! b.).4.t.r.h s s y 5 > o O 9.9.d s u 4 o O R r.R.",
"s s s u 5 5 * o O 9.q.d s s s s p 6 @ # M  .x ) P *.S.H.H.H.H.'. XXXoX{.!.H.A.%.4..Xf.7.w.s s s p 5 * o o 9.0.d s u 5 o O 9.r.R.",
"s s s u 5 5 * O O R q.d s s s s s y 5 & M  .x [ P ` m.H.H.H.H.Q./.].{.!.H.G.<.n ~ [.f.U d s s s p 5 > o O 9.q.d s u 5 o o 9.r.R.",
"s u s u 5 * * X O R q.d s s s s s p 6 : M  .x ) | J =.S.H.H.H.H.H.H.!.H.H.Z.*.m ~ `.a.U d s a s u 5 > X O 9.K.h s u 6 @ O k r.U.",
"s s a u 5 > o o o 3.0.d s s s s s p i 2 M  .x { +.L J <.N.G.H.Q.H.H.H.Q.A.=.P [ ~ `.u.I g s s s y 5 @ X 5 q.K.j s u 5 @ O @ 9.r.",
"s s s p 5 > o X o 9.0.d s s s s s s i 2 M X.v { #.' J J P c.M.N.G.H.S.M.:.H P [ ~ D.6.I d s s s p 5 O O l e.K.j s u 5 4 o O k w.",
"9.d s p 5 > o o > 0.w.d p s s s s s u , c } Z Z @.@.` J K J L ] c.m.:.K J H _ $.l.V.5.4.g s s s p 4 X O 9.e.K.h s u 5 @ O X * 9.",
"0.d s y 5 * o o R K.q.d s s s s s s u 5 1 Z _ v &.,.@._ J J H H L J J J J | ..Q V.-.U g.j s s s y 4 O O 9.y.K.h s u 5 4 @ o O k ",
"e.d a 6 > > o O 0.U.r.d s s s s s s u 5 < N o.V Z O.,.@.' H J H J J J ' X.O.$.l.2./ A K.q.s s s y 5 o o k e.K.h s u 5 4 4 4 o o ",
"U.w.s 5 > * X O 9.K.r.d s s p s s s u 5 , ; ) o.V B @.,.#.o.+.+.+.o.o.@.@.W x.Z.&.; 5 g.y.h s u 6 4 X   @ 9.w.d s u 5 4 4 @ o   ",
"R.e.s 5 > o o o 9.i.k.h s s s s s s u 5 > , ; %.X.V C ..@.,.,.,.,.,.#.O.$.l.A.;.w O O 9.K.q.h u 5 @ o   O R q.g s u 5 4 4 4 o   ",
"R.r.d 5 > o X O 9.r.K.j s s s s s s u 5 > > O - ) X.V x C } } } } } / M ;.m.&.S , O o 5 g.r.R 8 4 4 o   O 9.r.9.s u 4 4 4 @ X   ",
"w.g.3.6 > o X O k r.I.w.s s s s s s u 5 > * O o - ) o._ B x v x v x Z O.>.{ A Y 8 * o O R q.R 6 4 4 X   o R K.e.d p 5 4 * o o y ",
"> 3.9 > @ o   o > q.U.e.d s s s s s u 5 > > o   @ ; W W [ ' ` ` ' ' [ W W c T 9.p , o o * l 9 4 * @ o   X * q.K.j s 5 > * O O l ",
"o h 6 > O X   + O R K.r.g s s s s a u 5 > * o   5 > $ 1 G C C N C C c 1 < Y k.j u 5 O X O h 6 > * O X   X O q.U.0.s 5 > * o O 9.",
"X O > @ o o X > O > e.K.w.s s s s u 6 > * * o O h 6 . O T 7.t e 3 < < O @ 9.K.h u 5 @ o X 5 4 4 * o X + o O 9.K.w.s 4 > @ O @ 3.",
"X   @ o o X * h @ O 0.U.r.h s s s u 5 > * O X * l 6 O O q.k.j u 5 > @ O * 0.P.h u 5 * O   @ * > @ o   @ O O k r.9.8 4 4 O O k q.",
"@ X X X X O k 3.@ O R K.r.9.s s p u 5 > > o O Y w.a > O 3.k.q.8 > > O o k r.K.h s 6 * O X X * * O o X * @ o * 9.9.6 * @ o O 9.w.",
"l @   X o O 9.0.5 O * w.K.r.d s u 6 > > * o * q.k.g 5 O > w.g.9 > > o O 3.r.I.h s y 4 O X   * * o X   5 * o O R 9.6 * O X O R w.",
"9.4 X   X O 9.g.9 O O 9.i.h.j s u 5 > * O O l r.g.d 5   O 3.3.6 > @ o * 3.r.k.h s u 5 * o   * * o o @ j 6 O O 9.R 6 4 o X 4 0.w.",
"9.y +   X @ q.K.h 4 O k r.K.q.s 5 > > * o * q.k.k p > o o h 9 > > o O j q.w.w.d s u 5 * o   + O o o k 9.6 O O h 9 4 @ o + R K.r.",
"d y O   o j r.K.q.6 O @ 9.e.9.8 > > > * o k i.g.h u , o o O > > * o O 9.e.r.q.d s u 6 * O X X X X + R 9.6 @ o O * * O X O 0.U.r.",
"s p 5 o O 9.w.i.K.9 O O k q.R 6 > > > o + 0.k.Y s u 5 O o   @ > @ o O k r.K.w.d s s u 4 @ o   X o * q.9.6 4 o   @ * o o O q.K.r.",
"s s y + O k q.r.K.s 4 o @ j 9 4 > > * o > 0.k.h p 5 > o     > > o   X > q.U.w.d s s u 5 * O     O R K.w.s 4 o   * 4 O X 4 K.i.e.",
"s s u 4 o @ 9.r.K.g 4 o X 5 5 4 > > o o k r.g.h p 5 > o o   > @ o   X O 9.I.r.d s s u 5 * O X   o q.U.r.s 4 O X @ * o O R I.r.w.",
"s s p 5 O O 9.r.k.j 5 O   @ 4 4 > * o * 0.k.R s p 5 > o X   @ o X + O O l y.K.j s s u 6 > O X   @ q.U.w.s 5 @ o X + o O q.U.r.w.",
"s s y 6 @ O k w.i.g.9 * X X @ 4 > o o R r.P.h s y 5 > o   X @ o O > @ o * q.U.q.s s s u 5 @ o o k r.K.q.s 5 @ o   o X O q.K.r.q.",
"s s s y 5 O @ 9.r.K.d 5 o X @ 4 @ o > 3.r.g.h p 5 > > o X + o > h 6 * O + 9.I.r.h s s u 5 * o O k w.w.h p 6 4 O   X o @ g.i.q.h ",
"s s s u 4 o + 9.r.P.g 5 * o   * O @ R r.0.h s u 5 4 4 o X X o k 9.6 4 @ O l y.K.w.d s p 6 > o o @ 9.0.d p u 5 @ X X X 5 K.y.0.d ",
"s s s u 5 o o l r.k.j 6 > o   @ O l r.K.w.d s u 5 4 @ o   X @ 9.9.8 4 * o * q.K.r.g s p y > O X O 9.w.h s p 5 > o X O R K.r.9.d ",
"s s s u 4 o X @ 9.i.d.9 > O   o * 9.r.U.w.d s u 5 4 4 o   + k w.9.s 5 * o O 9.i.I.w.d s p 5 * o O 0.K.q.s p 5 * O X O 0.Y.e.d s ",
"s s s u 5 o X O 3.r.k.0 * O   o l w.i.k.j s s u 6 4 @ o O k q.w.q.s 6 * o O k r.K.q.d s u 5 > o O R U.e.d u 5 > * o O 0.U.e.d s ",
"s s s u 4 O X O 9.r.b.g 5 * o O 3.r.K.r.d s s s y 5 4 o O R w.w.0.d y 5 @ o @ 9.r.e.h s p 5 > @ o 5 k.w.d u 5 4 4 o O 0.U.w.d s ",
"s s s u 4 o o O R r.K.g 5 * o O 3.r.U.q.s s s s p 5 * o O 9.w.w.9.d p 5 4 o O 9.r.K.w.s p 5 > > o @ d.w.d u 5 4 @ o O q.I.q.d s ",
"s s s u 4 O o O 9.r.h.g 6 * o O 9.r.P.j s s s s u 5 * o O k q.q.g s u 5 * o O 9.r.K.e.d p > > > o O 9.q.d u 5 4 4 o O 9.K.j s s ",
"s s s u 4 O X O R w.w.d u > o O 9.r.K.h s s s s p 5 4 @ O @ 9.q.d s u 5 > o O R e.r.0.d p 5 > > o o 9.0.d u 5 4 * o O 9.q.d s s "
};
