/* XPM */
static char *_005d080106f46c5ad687dcd1736ad4dStarS7jbAeaOOhMD[] = {
/* columns rows colors chars-per-pixel */
"64 64 191 2 ",
"   c #26251C",
".  c #2D2B1E",
"X  c #2C2C23",
"o  c #312F22",
"O  c #353224",
"+  c #383526",
"@  c #35342A",
"#  c #3A3728",
"$  c #32382F",
"%  c #3E3A2A",
"&  c #343733",
"*  c #433E2D",
"=  c #46412F",
"-  c #464231",
";  c #4A4432",
":  c #4E4834",
">  c #43463B",
",  c #4C4D3E",
"<  c #514B36",
"1  c #534E39",
"2  c #56503A",
"3  c #59533C",
"4  c #2F3840",
"5  c #353F48",
"6  c #3C4C46",
"7  c #3C464D",
"8  c #394753",
"9  c #3E5553",
"0  c #474B49",
"q  c #514F40",
"w  c #49554B",
"e  c #5A5542",
"r  c #5F5942",
"t  c #575948",
"y  c #444D52",
"u  c #455352",
"i  c #475957",
"p  c #45515D",
"a  c #505655",
"s  c #645E45",
"d  c #635F49",
"f  c #4E645F",
"g  c #5B6558",
"h  c #676047",
"j  c #686147",
"k  c #6A6349",
"l  c #6F684D",
"z  c #716A4D",
"x  c #636957",
"c  c #756E51",
"v  c #7A7254",
"b  c #7E7758",
"n  c #7F7858",
"m  c #4A5664",
"M  c #4D5A65",
"N  c #4E5F71",
"B  c #476261",
"V  c #556663",
"C  c #5F7064",
"Z  c #5C6B7B",
"A  c #567678",
"S  c #646F60",
"D  c #6B7867",
"F  c #807857",
"G  c #847D5C",
"H  c #887F5E",
"J  c #79826C",
"K  c #88805F",
"L  c #8C8461",
"P  c #89886A",
"I  c #908764",
"U  c #928965",
"Y  c #968D69",
"T  c #988F69",
"R  c #9D936C",
"E  c #848D74",
"W  c #87927A",
"Q  c #A1976F",
"!  c #A39970",
"~  c #ADA273",
"^  c #B2A677",
"/  c #B3A878",
"(  c #B5A979",
")  c #BAAE7D",
"_  c #BCB07E",
"`  c #677888",
"'  c #707F97",
"]  c #568188",
"[  c #6B8595",
"{  c #718F93",
"}  c #6D909E",
"|  c #5D98A8",
" . c #6D8FA1",
".. c #7C8CA3",
"X. c #639AA6",
"o. c #6E9CA5",
"O. c #7694A4",
"+. c #749DB2",
"@. c #7BA2AA",
"#. c #66A7B9",
"$. c #77A8B4",
"%. c #73B0C5",
"&. c #79C7D9",
"*. c #7CD1E0",
"=. c #979F82",
"-. c #BFB280",
";. c #ABB390",
":. c #8296AF",
">. c #879AB4",
",. c #8A9EB9",
"<. c #80ACA8",
"1. c #8CA1BB",
"2. c #8FACBF",
"3. c #91A4BB",
"4. c #8DB6BB",
"5. c #90B8BD",
"6. c #C1B481",
"7. c #C6B985",
"8. c #C8BB86",
"9. c #CEC089",
"0. c #91A6C2",
"q. c #94AAC4",
"w. c #9BAFC7",
"e. c #98AFCA",
"r. c #82B6C3",
"t. c #88BDC7",
"y. c #98B2C7",
"u. c #9AB2CB",
"i. c #A6BCCA",
"p. c #A0B7D2",
"a. c #A2BBD2",
"s. c #8FC1D3",
"d. c #85CCDE",
"f. c #ACC1CF",
"g. c #A4C7D6",
"h. c #A5C4DB",
"j. c #ABC5DB",
"k. c #B4CEDE",
"l. c #AFD6DC",
"z. c #8BD8E5",
"x. c #8EDBE6",
"c. c #98D8E5",
"v. c #AFCEE3",
"b. c #AAC9E4",
"n. c #A3DFE9",
"m. c #A8DAE9",
"M. c #B5D4E4",
"N. c #BBD6E4",
"B. c #BBD9EC",
"V. c #8DE3EC",
"C. c #96E3ED",
"Z. c #9CE2ED",
"A. c #8FEBF1",
"S. c #9DE7F3",
"D. c #95EBF3",
"F. c #94F2F6",
"G. c #9AF1F8",
"H. c #96FCFD",
"J. c #99FDFD",
"K. c #AFE3ED",
"L. c #B1E1EB",
"P. c #BEE5EE",
"I. c #A8E6F2",
"U. c #B7E7F3",
"Y. c #BBEBF4",
"T. c #A4FEFE",
"R. c #ABFDFE",
"E. c #B8F2F6",
"W. c #B4FBFC",
"Q. c #BBFDFE",
"!. c #C4D7DD",
"~. c #C3DCE7",
"^. c #C4DEEA",
"/. c #C0DFF0",
"(. c #C9E3ED",
"). c #CBE9ED",
"_. c #D2E3EB",
"`. c #C6E9F3",
"'. c #C4EBF3",
"]. c #CDEAF2",
"[. c #D2EEF6",
"{. c #C9F5F9",
"}. c #CEFEFE",
"|. c #D5F2F6",
" X c #D9F4F6",
".X c #D4F4F9",
"XX c #DBF6F9",
"oX c #D5FEFE",
"OX c #DEFAFC",
"+X c #E3FEFE",
"@X c #E9FFFF",
/* pixels */
"k k s ; * + O + H I l k d ; O + U 7.Y l k k k k h : = = o # K U l k h - = O O K U R U z h ; = = o O K U k j ; = = O + K T z j k ",
"k k s ; * O o + L I l k s ; O + U -.Y l k k k k h r = = O + K _ c k j = = O O K R _ U k h ; = * O + K U z s ; = = O + K U k k k ",
"k k s ; * O O = L I l h s - O + K R U l k k k k j h = = = o : / c k h : = O # K R T c k h ; = = O O K U k j = = = O % ^ Y z k j ",
"k s : = * O O G -.U l h : * O + K Y U l k k k k k h : = = o % ~ c k h = = O % K 6.U z j s ; = = O o K U z s ; = O o % / v k k k ",
"k s ; * + O + I 6.v k s ; * O + K Y U c k j k k k h : = = O + K c h h ; = O O U 6.v j j 3 ; = * O + K U z h ; = O O ; / c k k k ",
"h s ; = O o + I 6.c k s ; * O + K T Y K l k k k k h - = = O + K U l s ; = o + Y _ c j j < ; * = O + K K k s = = O O K _ c j j k ",
"s : = * O O + L ) c s : * * O + K T T U l j k k h h = = = O + U _ l : = % O ; / Q z h h ; = * O o O K z j : = = O + U _ c k k k ",
"s ; = * + o * L I l s ; * + o + K R T K l k k k k h - = = o + K _ l ; = O O K 7.T z h k ; = = O O = K k s ; = O o + U _ c k k k ",
"s ; * * o O F Y z j : * * + o + K -.R U l k k k k h ; = = + o n U 2 = = O + T 6.U z j h ; ; * O O F U k ; = = O O = K T z k k k ",
"; * * # o + I ) c s : = * + o + K 7.R U z k k k k h ; = = o . * z : = = O % / R c j h s ; * * o + K U k ; = = O O v Y K k k k k ",
"* * * o O * U 6.v s = = * O . o ; _ R K z k k k k h ; = = o . . ; = % O o ; _ Y l k h : = ; = O + K K j ; = O o + K T z k k k k ",
"; * # o # F Q ) z < = * * o . o % / ~ U k k k k k s ; = = o   . % = = O O K 6.U k k s ; = * = O + F k ; = = O . O K Y c k k j h ",
"* * o o + G ) R s : * * + o . o # Y -.T l k k j k s - = = o . o o = = O O Y _ v k k 3 : ; = + o + c < = = = . . + K _ U k k h : ",
"* # o o o * I G 1 * * # o o % O # U 8.Y l k k k k s ; = * O . o . % O o : / R z k h : = = * o . o + = = = O . . + U 6.R z k s ; ",
"* o X o o + c 1 ; * * o o O * O + K 8.T l j k k j r ; = + o . + O . o O K 7.Y z j s ; = = * o . o . = = = o . o + F Q ) c h : = ",
"O o . * + o + * ; * + o + c : * O K 7.T l k k k h ; = = + o + = O . o = U 7.Y k j h ; ; * * O . o . % = O . = o o = U _ v h ; = ",
"o # * * # o o * * * o O * F < * # ; / R c k k k h ; * O O O l 2 = O O n R 7.T l s : = = * + O . % o o % O . * * O O n Y K k ; O ",
"* c < * * o X * * O o * H L < * o # Y 6.Y k k k r ; = O O + K K ; O + n R 7.T l s ; = = * O O + = O . o o . ; = + o * K U k = O ",
"H I 3 * * o . * # o * H -.U < * O O I 7.T l k s : - * O o * K K : > 6 w J ;.W S , - = = * O + z : = O . o * v < * O + n K < O . ",
"Q 6.H : * O o . o + F T T H < * * # G 7.T l k s ; = * O + n P D f ] #.#.&.s.4.$.] w > * O O * G : = = o + n K 2 = * O * F : O o ",
"! _ c ; * * + . X * I 6.Y c s ; * O ; / T l k s ; * + o % P { X.%.*.A.Z.{. X X Xl.$.V - O O n K : ; = o + K U G : * O + z % O r ",
"6.T k : * * O . * F T 7.U l s ; * O + L I c k s ; * O O , @.&.&.z.V.F.H.T.oX+X+X+X X4.u O + L L 2 = = O + K T U 1 = = o + O = G ",
"T c k s ; * O O F Y ! ) v k s ; = O + H Y L k : * + O f o.d.x.K.L.L.E.Q.J.W.oX+X+X+X|.@.6 = ( R G : = O + K R ) k ; = = O + b K ",
"H l k s ; * O + H Q 6.T l k s : = * # b U I s ; * O 9 #.*.Z.E.|.@X+X+X.XC.J.}.+X+X+X+Xg.B G _ R K : = o + K ! _ z : = = O + K T ",
"z k k s : * O + F T 6.F k k k s ; * O * L G < = % 6 X.x.A.m.Y.E.OX+X+X[.z.J.}.+X+X+X+X).{ E R L l ; = O + I 6.R k ; = * O + K Y ",
"s l k s : * * O * U 6.c k k k s ; * O + c 2 - > 6 | d.F.C.`.'.Z.W.+X+X).x.J.}.+X+X+XOXXX5.=.T z h = = O + I 7.U k : = * O + K R ",
"k k k s ; * * O + I 6.c k s k s ; = * o - - > A #.m.U.G.D.c.c.D.W.+X+XK.F.H.}.+X+X+XOX|.5.E K l h = = O + I _ v k s = + O * U 7.",
"k k k s : * * O + I ) c k k k d : * * O X * A p.`.OXOXK.I.D.G.R.oXXX[.G.J.T.oX+X+X+X|.M.@.J z z h ; = O + K Y l k s ; O O n R 9.",
"k s k s : * * + + H Y l k k k k s ; * O X B t.XX+X+X+X+X[.U.{.{..XU.Z.J.J.}.oX+X+X+X].h.o.g k k h ; = O + K U l k s = O + K R 9.",
"k l k s : * * O # H I z k s k k s : * O $ X.P.+X+X@X+X@XOXU.P.n.S.G.H.J.{.OX+X+X+X|.k.g.} g k k s = = O + K I l k s ; O + K R 9.",
"k k s s : ; * O + H I z k k k k k s ; * i r..X+X+X{.`.`.m.z.x.F.H.H.R.Q.OX+X+X+X.XM.g.2.A k k k h ; = O + K T z k s = + + K R 9.",
"s l l s * * * O + H I z k k k k k s : w +.P.+X+XXX`.Y.L.L.Q.Q.Q.Q.Q.oX+X+X+X+XXXB.h.i.O.i k k j h = = o O U _ z k s ; * + b R 8.",
"k k k s - * + o + K I l k k k k k s s A g.OX+X+X+X+X+X@X+X+X+X+X+X+X+X+X+X+X+X].h.a.a.} w k k k s ; * . ; I 6.v k s ; * O * L R ",
"l k k s ; = O O + L I l k k k j k k x o.P.+X+X+X+X+X+X+X+X+X+X+X+X+X+X+X+X+X+X].a.p.y.` w k k k s ; O O b R 6.c k s ; * O + b Y ",
"K l k h ; = O O % I I l k k k k k k C %.].+X+X+X+X@X+X+X+X+X+X+X+XOXOX+X+X+X Xv.u.q.:.V s k k k s ; O + H R 6.c k s ; * O O * K ",
"I l h s = = O O K -.Y l k k k k k k g +.].+X+X+X+X+X+X+X+X@X+X+X[.B.B..X+XXXk.e.0.,.' x v k j k s ; O + L R 6.c k s ; = * + + v ",
"T z k : = = O + I 7.Y l k j k k k k g  .].+X+X+X+X+X+X+X+X+XOX/.b.b.v.[.|.N.q.0.>.[ a ! U z k s s = O O F R ) c j s : = * * O O ",
"7.U k ; = % O + I -.R l k k k k k k a ` ^.+X+X+X+X+X+X+X+X+XOXB.b.b.].(.a.q.1.,...0 * ^ Q c k s : * O . * L Y l k s ; = - * O . ",
"9.R k ; = O O + K Q _ c k k k k k k e ` h.(.+X+X+X+X+X+X+X+X+X.Xj.^.).a.0.,.,...p X + L -.U z s ; * +   O H I c k s ; = = * O   ",
"7.R z ; = O O + K R 7.v k k j k h h q Z j.j.^.(.]..X|.OX[.(.^.^.^.].a.,.,.:.` m & # o ; ( T H 1 * * O . O H R L z s ; = * * O o ",
"T ( K ; = O o O n R 7.U l k k k k k , Z ~.N.a.p.a.B.]. Xj.u.u.y.k.a.,.>.' m 0 t : * O # G Y G < = * O   O G ) R z s : = * O O 3 ",
"= K 2 = * O . O = I 7.Y l k k k k k e y i._.p.u.w.j.+X~.u.0.3.,.>.:.Z p 5 X b H d * O o * F 3 * = * O . o * Y _ v s ; = * O + G ",
"O z : = O O . + + G 6.R z k k k k h s % a ` 3.3.w.^.(.y.1.,.:.N 8 5 & X X G -.v d * # o + c < ; * + O . o + I 7.Y k ; = = O + K ",
"O O = = O O . ; O = Y 6.Y l k j k h : - # & 7 y ..!.f...M y 7 > @ @ # o # L -.c s ; * O o : * * * O X # O + L -.Y s ; = * O * L ",
"O . + O O O % c % O I 7.T c k k k s ; = * O   o 0 u 7 4 h K 3 3 ; * * O * U 6.c s : * + o * * * * O . * O + F R L 1 = * O O b Y ",
"% O . O O O n K * O G -.Q L l k k s ; = * O + b n 2 + X G 6.U 1 * * O O b R 6.c s : * o o X * * + o . * * O * L L < = * O + G Y ",
"n % . o O + K I : O * Y -.R z k s : = = * O * I _ z = O = U ^ 2 - * O # H R 6.c k s * # o . * * O o . ; * O O L L < * + O + K Y ",
"L - o . o + U ( 3 + O L Q ) c k s ; = * O + b Q ( z ; O + K K < * * O * L R -.c k s : * o . * * O o * v : O + G G : * O o = I Y ",
"L s @ . O % I 6.z - + n R _ Y h : = = * O * U _ F h ; o + v 2 = * + O b I Y Y z k s ; * O . % + O + b K : + O z 3 = * O O G _ R ",
"k s + . O b R -.Y : O = K R L < = = = * O b Q ( c h ; O o + * = = O + K T R U l k s < * + o . o o + K L : * O + = = O O + U 7.R ",
"k s - O + K Y ! ( 3 O O n I G : = = = O + L _ F k r ; O o . * * * o + b R -.Y z k j s = * O . o O * I L 1 = O . * * O o + Y 6.R ",
"k h s + + n U R 6.l = O * v 2 ; = = * O = U 6.c h : = O o . * * O . o = I 7.Y z k k s ; * O . . O G -.T j = O . * * O O ; ( ! T ",
"k k s = O * L R 6.z ; O . = = = = * O O n Q ) c s ; * O o . * * O . o + L 6.R z k k s ; * O o . O I 7.Y k - O . % * O O G 7.R Y ",
"k k s - + + K R _ v ; O o * = = = * O * U _ F k h ; = O O . * + . % O + b Q _ v k k s : = O O . * I 7.R k ; * O o * O + U 7.R Y ",
"k k s ; * + b Y ! ( 2 * O . = = * O + F R _ v j r ; = + o o * o + * * O * Y 7.Y k k j s ; * O O b R -.I k ; = O . o o + Y 6.R U ",
"k k k s - O * K Q -.l ; O o % = * O = K R ( z j < = * o . % o * z < * O + L -.Q c k k s ; = O O n Y Y c h : = O . o o * ^ Q Y z ",
"k k k s = O + K R -.z ; * o o * + * F R U v k s ; = = O . O + b L < = * + b Q 6.Y l k h : = O O * K U z j s = * o . o ; ) R U l ",
"k k k s ; O + F R _ v : = O . * + b R -.T k k s ; = * O . X * L L 1 = * O * U 6.R z k j s = O O + K Y z k s ; = O o + G 7.R L k ",
"k k k s = + o * K Q ^ 2 * O . o * K R 7.Y l j s ; = * O . % n U U j ; * O + K ! _ Y k k s ; * O + I _ Y k h ; = + O + I 7.T z k ",
"k k k s = + O + K Q _ 3 = O o O b Y ! _ v j k h : = * O O b Y Y U k : * O O b R 6.T l k s ; * O + G 7.T z s ; = * o + I 7.R z k ",
"k k k s ; O o + G Q -.l ; * O + K R 6.R z k k j s ; = O + K Y Y U z s ; * O * L R R z k h ; = * O ; _ T l s ; = = O + L 7.Y l j ",
"k k k s ; O o + H Q -.z ; * O + K R 7.Y k k k k s ; * O + K Y I K k s ; * O + K R _ Y l r ; = = O % ^ Y l s ; = * O + U 7.Y k k ",
"k k k s ; O o + H Q ) z : * O + K R 6.v k k k k s ; * O + b Y I z k s : * O + K R 6.T l h ; = = O + K U z s ; = = O + U _ v k k ",
"j k k s ; O o + G T T l s = O + K R 6.v k k k k s ; = * O * L I z k s ; * O + K T T U l h ; = = O + K U z s ; = * O + K Y z k k "
};
