/* XPM */
static char *_ee1f1db5fe145588e70a869a664bcb8eukRYOYrCbjKqSFU[] = {
/* columns rows colors chars-per-pixel */
"57 64 246 2 ",
"   c None",
".  c #73B778",
"X  c #1DD47C",
"o  c #1FD176",
"O  c #1CCD6E",
"+  c #23CD6F",
"@  c #22CF73",
"#  c #27CF77",
"$  c #21D076",
"%  c #28D17A",
"&  c #36D27F",
"*  c #75CF6E",
"=  c #BCA23E",
"-  c #C3A53B",
";  c #C5AA3C",
":  c #C9AE3A",
">  c #CCB33B",
",  c #CEB73B",
"<  c #D4BB39",
"1  c #DBC734",
"2  c #D8DA39",
"3  c #DCC62F",
"4  c #E9D92C",
"5  c #E7D937",
"6  c #E0CB2F",
"7  c #BCA843",
"8  c #A4AD57",
"9  c #AEB451",
"0  c #9AB464",
"q  c #C3AA47",
"w  c #C9B746",
"e  c #CFB952",
"r  c #CDB962",
"t  c #B3C256",
"y  c #91C670",
"u  c #ACDA6E",
"i  c #D2C94C",
"p  c #E8DA47",
"a  c #E9DE56",
"s  c #D8CB6D",
"d  c #E4D874",
"f  c #EDE573",
"g  c #DCE55B",
"h  c #77BD84",
"j  c #1BD683",
"k  c #1AD985",
"l  c #16DE8D",
"z  c #19DB8B",
"x  c #1BD789",
"c  c #15DF93",
"v  c #18DC98",
"b  c #23CE89",
"n  c #24D785",
"m  c #38D687",
"M  c #22CE9B",
"N  c #22CE93",
"B  c #24D697",
"V  c #39DA98",
"C  c #39C799",
"Z  c #0EE399",
"A  c #14E194",
"S  c #12E39B",
"D  c #18E69D",
"F  c #2AE39E",
"G  c #16DEAD",
"H  c #1ADAAD",
"J  c #1CD7A6",
"K  c #1ECDB3",
"L  c #1ED3B2",
"P  c #1ADBB3",
"I  c #1DD5BA",
"U  c #1BDABC",
"Y  c #14DEB8",
"T  c #22CEAD",
"R  c #22CEA3",
"E  c #22D3A9",
"W  c #33D5A3",
"Q  c #22CEB4",
"!  c #23CEBB",
"~  c #28CFB6",
"^  c #21D1B5",
"/  c #27D4BC",
"(  c #37CEB4",
")  c #0CEBA6",
"_  c #0DECAB",
"`  c #0CE8A9",
"'  c #13E3A2",
"]  c #12E4AB",
"[  c #12EAAB",
"{  c #1DE5AB",
"}  c #0DECB4",
"|  c #0CECBA",
" . c #0AE9B9",
".. c #12E4B2",
"X. c #14E8B7",
"o. c #0AF0B6",
"O. c #09F1BB",
"+. c #05F3BE",
"@. c #2AEDB3",
"#. c #36ECB8",
"$. c #2DEFB6",
"%. c #48D589",
"&. c #56C79B",
"*. c #56D995",
"=. c #4ED292",
"-. c #65DC9C",
";. c #74C688",
":. c #45D6BF",
">. c #4CC7AB",
",. c #78DBAA",
"<. c #66DAB4",
"1. c #48E6B9",
"2. c #52E2AD",
"3. c #7BE0AC",
"4. c #6AE4AF",
"5. c #1AD8C6",
"6. c #19D9D6",
"7. c #17D3D3",
"8. c #22CEC3",
"9. c #25CECA",
"0. c #29DACC",
"q. c #35DDDC",
"w. c #2AD2CA",
"e. c #0CEDC8",
"r. c #12E6CC",
"t. c #18E9C7",
"y. c #06F4C4",
"u. c #09F2C4",
"i. c #06F6CB",
"p. c #0DF4CB",
"a. c #0DE9D9",
"s. c #14E5D7",
"d. c #06F6D3",
"f. c #03F9D5",
"g. c #09F3DC",
"h. c #03FADC",
"j. c #09F5D9",
"k. c #16F6D2",
"l. c #28E9D7",
"z. c #2EF0D0",
"x. c #0DEAE6",
"c. c #15E8E6",
"v. c #03FBE3",
"b. c #02FDEB",
"n. c #07F7E6",
"m. c #17F8EB",
"M. c #2AEEE8",
"N. c #32EAE6",
"B. c #24F6EA",
"V. c #37FAEC",
"C. c #38F9F2",
"Z. c #4BD7C3",
"A. c #48D8D7",
"S. c #59D9D8",
"D. c #55D8C4",
"F. c #65DCDB",
"G. c #6BDDCB",
"H. c #51EAD0",
"J. c #68EAC8",
"K. c #68F1C9",
"L. c #75F2CD",
"P. c #7BE5D8",
"I. c #78F2CF",
"U. c #5DFAEB",
"Y. c #4DEDEB",
"T. c #65E8E7",
"R. c #67F8EC",
"E. c #75F9EC",
"W. c #78F5F0",
"Q. c #76EEEA",
"!. c #44DFE0",
"~. c #8BE4B5",
"^. c #83E6B9",
"/. c #95E6BD",
"(. c #BFD789",
"). c #D7CE97",
"_. c #E2DC98",
"`. c #DDE890",
"'. c #EBE684",
"]. c #E0EA9E",
"[. c #DAD6AD",
"{. c #CEECAF",
"}. c #ECEEAD",
"|. c #E7E7AA",
" X c #E8E8B7",
".X c #EDF2B9",
"XX c #F0EEAB",
"oX c #9BE7C2",
"OX c #80F2CF",
"+X c #86E4D4",
"@X c #89F2D5",
"#X c #99F2D6",
"$X c #91E6D0",
"%X c #A9E8CA",
"&X c #BBFEC6",
"*X c #A6E9DC",
"=X c #BCEDD5",
"-X c #B7EDD4",
";X c #BAF2DC",
":X c #A2F2D8",
">X c #87E4E3",
",X c #84F8EA",
"<X c #9AF4F7",
"1X c #90EFE9",
"2X c #ABEAE6",
"3X c #B8EDE8",
"4X c #A8F8EB",
"5X c #BAF5E5",
"6X c #A7F8F2",
"7X c #B9F6F2",
"8X c #88DDC0",
"9X c #C2FDCD",
"0X c #C3EFDA",
"qX c #CBFCD5",
"wX c #CAF0DE",
"eX c #C8F7D8",
"rX c #D2FBDC",
"tX c #D8FADF",
"yX c #E5E9CB",
"uX c #ECF2CA",
"iX c #EDF4D8",
"pX c #EAF0DA",
"aX c #C3EFE8",
"sX c #CCF3EC",
"dX c #C7F3E7",
"fX c #D5F2E5",
"gX c #DDF9E6",
"hX c #DCF5EC",
"jX c #D8F5EB",
"kX c #C8F7F4",
"lX c #DDF5F2",
"zX c #D6F6F4",
"xX c #E3F5EE",
"cX c #EAF5EC",
"vX c #E3F8EC",
"bX c #E9F3E8",
"nX c #E4F6F2",
"mX c #EBF7F4",
"MX c #EBF7F4",
"NX c #EEF8F6",
"BX c #ECF8F9",
"VX c #E8F7F6",
"CX c #F1F7F5",
"ZX c #F1F8F6",
"AX c #F2F8F8",
"SX c #ECF3E4",
/* pixels */
"                                                                                                                  ",
"                                                                                                                  ",
"                                                                                                                  ",
"                                              ZX    NX                                                            ",
"                                              MXZXNXNXmX                                                          ",
"                                        7X6X  -X=XwXmXNXmX  mX                                                    ",
"                                        n.h._ n % *.gXnXnXNXxX*.~.CX                                              ",
"                                    cX%.A y.h.d.S % %.%.oXAXNXwXfXwX% =X                                          ",
"                                  kXE.F z A [ u._ k + O *.^.OXjXAXjX~.jX%X                                        ",
"                                :X1Xh.O.A + $ [ _ A @ @ O o S #X5XkXMXZXoX-.nX                                    ",
"                              @ z [ _ h.[ + $ i._ @ $ $ $ $ $ D p.V.nXMXvXxXmX    MX                              ",
"                            ) o $ X X _ [ l $ _ u.d.d.i.} l $ S ) z.nXZXgX9XmXNXMXMX                              ",
"                          v.y.A l c ] u.o.S $ k ' ..} p.i.O.l O.y.k.I.E.4XqXrXvXMXMX                              ",
"                        h.h.d._ S _ d.h.i.) X $ @ + + c y.f.O.i.d.p.) f.E.vX9XtXvXNXvX                            ",
"                        _ S % o o $ X ' y.h.) X @ @ @ @ l o.v.l $ % ) ) L.vXvX9XrXvX&XgXMX                        ",
"                      M J L Q M b M Q n k l _ u.} l o l l x o.X + + X ) @.K.NXvXrX9XgXqXrXMX                      ",
"                      R T ^ Y T J J Q b j l l y.O._ ] y.S @ l z v D + k ) k.@XsXgXqXrX&X9XrX                      ",
"            MX        ! Q I } L G ' R R J S b ' _ O.h.v.] @ + A u.i.x j [ i._ 5XCXvX&X&X&X9XvX                    ",
"            MX      9.K Q U v.H M R 9.K R J 8.Q r.f._ _ l @ @ $ l o.h.v.[ j [ 3XNXmXvX&XqXgX&XvXmX                ",
"            MX      c.8.7.s.5.r.5.8.9.! T T R G ] G x p.| l + + o j v v c ' n.,XkXfX-.=XvXmXhXCXoXO               ",
"            MX    6.n.T.!.6.8.6.6.s.s.6.5.Q M v J R @ | d.O.' l X O @ X ) k.C.<XzXfX,.~.0XMXMX%X~.,.              ",
"            MX  S.q.m.7X>X7.9.! a.b.b.x.6.8.T M Q ! $ A O.h.v.O.A % @ ) k.C.6XzXnXnXmX-.~.MXnX-.~.MX              ",
"              MXnX2Xw.sXE.b.x.7.6.x.7.9.8.5.x.J Q Q @ $ $ k _ h.u.S $ i.R.lXnXMXrX9XmXhXcXMXmXxXxXMX              ",
"              MXCX3Xw.3XW.n.b.n.s.q.2XN.a.s.6.8.6.s.S $ @ @ j _ i.d.p.,X@XK.MXMXvXgXNXqX9XeXnXCXMX                ",
"              MXMXsXP.lX6XT.U.U.N.!.lXY.x.b.6.6.6.s.v z k l ' | i.i.e.+X2.F @X7XzXVXfXqXeXrXnX2X2X                ",
"              MXMXMXMXzXlXCXBXNXE.C.zXA.6.c.m.6.9.8.% S _ O.v.h.u.S @ M B j [ Q.kXxX&XsXlXcXsXF.>XMX              ",
"                MXBXnXS.1XCXMXMXQ.C.lXA.9.A.kXC.7.9.Q K r.h._ j M R @ @ l } n.7XBXmXnXS.>XsXA.2XMXMX              ",
"              4 |.BXBX2XsXZXMXMXkX7XvXN.Y.3XnXA.x.N.#X=.J Y k O z ] S | z.E.6XnX7XT.F.1X>XF.2XlXBXBX              ",
"              3 d }.}.cXaX2XMXMXmXzX<XR.6XNXnX>XS.W.nX1.v b + b x c G i.z.Q.#X4XT.q.F.1X>X>XNXuX}.}.              ",
"      MX      8 i 2 5 .X8X<.nXMXNX7Xc.kXNXmXmXmXBXBXsXV...$ n T M j L ..X.[ o.l.q.S.VXF.+XiXiXa 5 2               ",
"      MX      ( ~ &.w q i g NXBXNX3X/ aXNXMXMXmXMXaX( N.0./ N.N.t.' ` l.M.M.h.6.P.nXBXVX].p p 1 y (       MX      ",
"      MXMX    ] I >.= > : w d d f `.*XnXMXMXBXmXBX7Xc.n.c.l.m.m.e./ l.N.B.m.B.,XkXSXf d i 3 1 < ;.7.K     MX      ",
"      MXVXNX  ) W h = , : ; : 6 3 p XXXXXX XXXXX}.&XB.m.m.m.m.m.l.l.B.m.m.B.<.{. X].u y 9 < , , 0 &.G.2XMXMX      ",
"        NXNX  { * : - , , > - : = 9 p 4 4 4 5 4 4 s ,XY.m.m.M.M.M.M.n.v.m.D.t 6 1 9 9.9.;.w , ; q r bXnXMXMX      ",
"        NXNXnX0.. : , - - q w - . w.:.9 : ; < : : s sXU.M.B.b.b.m.N.! ] _ ..>.t : 8 w...P &.= > 1 a bXMXMX        ",
"      NX/.~.vXu ).).q : : : = . W P 9.8 : : ; > ; r nXY.c.w.v t.t.t.l./ ] } 9.0 : 9 ~ ] ..( 7 ).|. XmXMXMX        ",
"      NXoX^.bX'.}.yX> > : : 7 ,.#.` ! 8 e s - : e ).lXC.r.J B E / t.z.E J J &.8 ; 9 &.B #.,.1 yXBXBXMXMXMX        ",
"      MXmXmXcXmXnXuXp : 7 q i pXI.G W 9 [.yXw q ).BXnXT.t.X.N./ 0.l.[ n V &.= w e q < %.+XuXa uXBXMXMXMX          ",
"        mXmXmXmXBXcXuXp '.bXpXNXP.=.8 = ).yXq [.bXMXnXZ.K L .._ ..! ^ :X{.g w  XpX X4 2 _.NXiXbXMXMXMX            ",
"        mXNXNXmXmXMXnX.XuXBXMXMXaX%X[.w _.nX[.bXBXBXBX#.] G H c c { B ;XiX.X|.pXMXSX}.XXuXfX^.wX2XK.U.            ",
"          jX-XhXCXcXNXMXMXMXMXMXcXCXcX'.}.NXNXMXNXgX%X4.z.o.^ *.V S z 5XjX5XVXBXNXMXBXBXZX0X% @XH._ f.            ",
"            % -XvXCXNXmXMXMXMXMXMXnXlXcXMXMXMXMXZX;Xm 0XE.f.( dX~.x m.kXOX#.sXgXhXhXhXzXlX-X% p.i._ )             ",
"            + & oXZXmXmXMXBXBXMXCX0X%.fXAXCXMXMXNX;X{ dX^.V dXmXI.$.kXnXOXo.B.V %.m $.B.#.& $ ' i.i.X             ",
"            $ k #.R.3.3.K.,XVX~.-XhX/.,.-XfX3.fX-X-.z ;X0X%XmXCXeX#XvX/.V S v.' X k y.y.S o l k O.h.%             ",
"      mXAX  $ _ i.+.O + _ B.:Xm 4.5X6Xm 4.@Xn oX-.n -.wXNXBXVX7XkXZXnX%.& 2.d.y.A k v._ k X O.k D y.$   AXMX      ",
"      mXZX=Xm k.y.D % # } h.[ X k o.v.n ..h.} $ l #.gXBXVXBXlXY.E.CXxX*.~.;X[ h.[ k h.B % k v.B B S & =XMXMX      ",
"      mXmXxXwXkXH.#.0X& l +.h.k o k [ :XK.+.h.j ) V.nXNXVXNXMXkXzXmXmXrXhX0Xn i.} X } #X~.x v.:XK.@.eXnXMXMX      ",
"      mXNXNXmXNX;X:XxX%XOX@XE.oX1.$.@XlX^.Z p.4.@X<XVXvXNXVXMXMXCXNXmXNXNXfX/.,X@X/.@XjX~.W W.zXdXOXL.sXZXMX      ",
"      MXkXkXnXBXNXNXVXNXZXZXCXZXE.C.VXNXoX*.1.sXZXZXmXmXMXMXMX  mXmXmXdXsXNXCXNXCXCXCXCX+XZ.xXdX5X#XX.@XkXAX      ",
"        b.V.jXnXvXmXVXBXVXmXmXCXE.V.lXBXvXjXlXmXMXMXmXmXMXMX  MXmXmXhX#.L.nXxXmXnXlXnXMX+XZ.fXD.r.n./ n.b.        ",
"        b.n.#.( *XZXNXNXNXNXmXCXzXkXMXMX@X$.#.sXMXMXmXmXMXMXMXMXMX  Z.g.t.Z.:.sX*XZ.Z.sX$X! :.H u.n.^ g.b.        ",
"        b.h._ L Z.I.E.P.+X8XP.+X5XZXmX*X1._ { J.*X                  K e.X.Q L T.A.K Q G.D.K G y.i.u.^ e.y.        ",
"        h.d.] H ..y.b.Y L K K K G.aX3X( ..} Q K                     Q ] Y I ^ n.e.L Q K L P | f.u.] L ]           ",
"        _ ] Q ] i.v.v.} G K ^ K ~ ~ Q ] i.g.^ Q                       Q r.g.I g.i.` Q Q G | v.o.H L _             ",
"        L L ^ j.i. .U L r.j.] L Q Q K g.i...Q                           } } I ..i.j.Q G u.f.o.H K I h.            ",
"        Q Q ^ v.e.G G ^ 5.e.y.I Q I G v.e.H Q                             G Q H e.v.G ) | r.G ^ Q I n.            ",
"          Q ^ n.r.L o.L ^ Y b.U Q P o.f.r.T Q                               Q ^ e.f.o.o...L ^ L ^ ^               ",
"            ^ v.r.5.v.5.G o.v.5.G o.v.o.H Q                                   ) ) o.v.v.i.] ^ ] _                 ",
"              o._ | v.} u.f.O.j.h.f.| P L                                       _ _ o.o._ ) _                     ",
"                ) o.i._ O.y.) u.h.h.) L                                           ) ) ) ) _ )                     ",
"                    ) _ ) ) ) )                                                                                   ",
"                                                                                                                  ",
"                                                                                                                  ",
"                                                                                                                  "
};
