/* XPM */
static char *b77dcfb9d3af40e7b9ed9e4d98a9c915Tyo0XiYwdvNJyu3V[] = {
/* columns rows colors chars-per-pixel */
"64 64 200 2 ",
"   c None",
".  c #683E0A",
"X  c #693F12",
"o  c #6A410D",
"O  c #6C4415",
"+  c #824E14",
"@  c #845115",
"#  c #8E5513",
"$  c #8D5C16",
"%  c #8C5E19",
"&  c #925B13",
"*  c #995B14",
"=  c #935714",
"-  c #854F0F",
";  c #A85F11",
":  c #A65B0F",
">  c #8F6019",
",  c #8E6116",
"<  c #956017",
"1  c #986117",
"2  c #92621A",
"3  c #996218",
"4  c #B4610E",
"5  c #BD6B0F",
"6  c #AA6314",
"7  c #A26C1A",
"8  c #A66719",
"9  c #B46512",
"0  c #BD6A12",
"q  c #B76812",
"w  c #AB751A",
"e  c #AD791E",
"r  c #A97416",
"t  c #BE7215",
"y  c #8D6E2B",
"u  c #8B6723",
"i  c #986C25",
"p  c #946E29",
"a  c #956922",
"s  c #8E712F",
"d  c #91732E",
"f  c #9D7529",
"g  c #9F792A",
"h  c #9F7725",
"j  c #927533",
"k  c #9F763A",
"l  c #A27B2C",
"z  c #A27A27",
"x  c #BE7C20",
"c  c #A2793A",
"v  c #A07731",
"b  c #CD6E0E",
"n  c #CD700F",
"m  c #D1720F",
"M  c #CB6F10",
"N  c #C47414",
"B  c #CD7111",
"V  c #C97915",
"C  c #C77916",
"Z  c #D07512",
"A  c #D57C14",
"S  c #D97F14",
"D  c #8D6D42",
"F  c #8E6F48",
"G  c #8F7045",
"H  c #8F714A",
"J  c #917245",
"K  c #92744A",
"L  c #AC852D",
"P  c #AC8732",
"I  c #AB923F",
"U  c #C3871C",
"Y  c #C5891D",
"T  c #C98C1D",
"R  c #DC8315",
"E  c #DD8A17",
"W  c #D78A19",
"Q  c #DA9516",
"!  c #DC951B",
"~  c #DC9B1F",
"^  c #E38F18",
"/  c #E69319",
"(  c #E9971A",
")  c #E49F1D",
"_  c #EB991A",
"`  c #E89217",
"'  c #E5A11F",
"]  c #F5A61D",
"[  c #F6A91E",
"{  c #F9AB1E",
"}  c #F8A71D",
"|  c #C68C22",
" . c #C88927",
".. c #D68A23",
"X. c #D88B24",
"o. c #DA942B",
"O. c #DD9429",
"+. c #C98D30",
"@. c #DAA42A",
"#. c #E6A321",
"$. c #E5AD2C",
"%. c #E6A32A",
"&. c #F7AF21",
"*. c #F8AF20",
"=. c #FEB521",
"-. c #FFB922",
";. c #F3B22D",
":. c #E3AF3F",
">. c #E7A530",
",. c #E6B333",
"<. c #E6B03F",
"1. c #F9BE35",
"2. c #FEC432",
"3. c #FFCA37",
"4. c #FFCB38",
"5. c #AC9644",
"6. c #AD9846",
"7. c #AB965E",
"8. c #AD966D",
"9. c #AE986D",
"0. c #AC9673",
"q. c #C7B34D",
"w. c #C6B553",
"e. c #C8B753",
"r. c #CBB24D",
"t. c #E3AF40",
"y. c #E8B24F",
"u. c #DAC24C",
"i. c #DAC251",
"p. c #EAC24F",
"a. c #E6C14F",
"s. c #FBCC46",
"d. c #FDDA4D",
"f. c #FFD749",
"g. c #FFCB55",
"h. c #E6D25B",
"j. c #F7D754",
"k. c #E7CE55",
"l. c #FFE558",
"z. c #DCD364",
"x. c #DBD568",
"c. c #DBD278",
"v. c #E5D963",
"b. c #E5DF6C",
"n. c #E9D965",
"m. c #F3DE64",
"M. c #FFDB67",
"N. c #E4DA79",
"B. c #E6E16D",
"V. c #E8E36E",
"C. c #F5E165",
"Z. c #F8E365",
"A. c #FBEA65",
"S. c #F6E66A",
"D. c #F7E86C",
"F. c #F9E76B",
"G. c #FFF46B",
"H. c #FFF267",
"J. c #E6E270",
"K. c #FFF971",
"L. c #FFFF7D",
"P. c #FCF57B",
"I. c #FAE971",
"U. c #C7B38E",
"Y. c #C5B496",
"T. c #C6B698",
"R. c #E7E185",
"E. c #FFF782",
"W. c #FFFE81",
"Q. c #FFFE8E",
"!. c #FFFF93",
"~. c #FFFF9C",
"^. c #DBD2A4",
"/. c #DBD1B7",
"(. c #DBD2B9",
"). c #E6DFBA",
"_. c #EFDBA4",
"`. c #F9E9AA",
"'. c #F9FAA5",
"]. c #FEFEAD",
"[. c #FFF3AB",
"{. c #E6E0B5",
"}. c #E8E3B5",
"|. c #FFFFB2",
" X c #FFF2BF",
".X c #FFFFBD",
"XX c #F8F6B7",
"oX c #E5DEC9",
"OX c #E5DEC6",
"+X c #E6E0C9",
"@X c #E7E1C6",
"#X c #FFFCC4",
"$X c #FCF6C8",
"%X c #FFFFD4",
"&X c #FFFFDA",
"*X c #FEFEE6",
"=X c #FFFFEC",
"-X c #F9F7EA",
";X c #FFFFF3",
":X c #FFFFFD",
/* pixels */
"                                                                                                                                ",
"                                                                                                                                ",
"                                                                                                                                ",
"                                                                                                                                ",
"                                                O O O O O O O O O o O X O o                                                     ",
"                                                d d j j j j J K K K K K K J                                                     ",
"                                    O O O O O y e.z.z.z.z.c.^.(.).(./.(.).T.J . o o o O                                         ",
"                                    d d j d d 6.V.L.K.H.H.P.[.$X$X X$X$X%X}.9.J K K K G                                         ",
"                                O y w.x.x.x.x.V.L.K.f.3.4.4.s.g.g.g.g.M.Q.'.{.(.(.(.(.Y.D .                                     ",
"                                % L k.H.A.Z.Z.C.v.i.@.! ! ! ! Q E Q Q @.u.N.`.#X%X&X%X).8.D                                     ",
"                            O % U %.1.1.>.o.O.+.l y > % % & & $ $ < & $ u P y.M.Q.~.~.'.{.Y.D .                                 ",
"                            % w #.=.*./ M 4 4 6 i y s j s j J H G G G G G c T @.u.h.A.E.#X{.8.D                                 ",
"                        O % U #.=.*.^ N * - O i w.z.z.z.z.c.^.(././.(.(.(.U.c $ u L ,.d.E.'.{.Y.G .                             ",
"                        % w ! &.} / N 6 i d d 5.b.W.W.W.!.|.&X=X;X=X;X;X:X+X0.D D k | $.j.E.#X{.9.D                             ",
"                    O % | ! E R R N * p q.v.z.b.P.L.L.Q..X&X*X=X=X;X:X:X:X-XoX(.(.U.k r $.d.E.'.).Y.D .                         ",
"                    % w ! _ S M 0 ; # v v.W.W.L.L.W.Q.].&X=X=X=X=X;X:X:X:X:X:X;X;X+X0.k | $.d.E..X).0.j                         ",
"                O % U ! E R Z 0 = # :  .m.W.W.L.L.Q..X&X*X=X=X=X:X:X:X:X:X:X:X:X;X-XOXU.c r $.d.E.'.).Y.j .                     ",
"                , e #.{ R M 0 6 = *  .t.F.W.L.L.L.~.%X=X=X=X=X=X;X:X:X:X:X:X:X:X=X=X;XOX7.z T ,.Z.~.&XOX0.D                     ",
"            O 2 U ' =.[ R q = # ;  .y.F.K.L.L.L.L.!.%X;X=X=X=X=X=X;X:X:X:X:X:X:X=X=X;X$XR.q.f l n.'.%X-XoXY.J o                 ",
"            O 2 ~ -.{ / N 6 = = 0 o.S.W.W.L.L.L.L.Q..X%X=X=X=X=X=X=X;X:X:X:X:X:X;X=X=X&X|.c.c p q.J.XX&X=X).K o                 ",
"            O 2 ~ { ` N * # 6 5 b o.m.W.W.L.L.L.L.L.Q.].%X=X=X=X=X=X=X;X:X:X:X:X;X=X=X*X&X_.+.; i 6.N.|.&X(.K O                 ",
"            O 2 ~ } R q @ @ q Z n o.m.W.L.L.L.L.L.L.L.!.%X=X=X=X=X=X=X=X;X:X:X;X=X=X=X=X&X`.y.x @ y z.~.%X(.J o                 ",
"            O u O.} ^ q + @ q n n o.m.L.W.L.L.L.L.L.L.!.%X=X=X=X*X=X=X=X=X=X=X=X=X=X=X&X].Q.I.r.u y z.'.&X(.H o                 ",
"            % w ! ( N 6 3 3 0 n b o.m.W.L.L.W.L.L.L.L.!..X&X=X=X=X=X=X=X=X=X=X=X=X=X%X.X!.L.W.v.P z q.R.$X+X0.D                 ",
"        O 2 T ! E N * 3 Y ! A n b o.m.L.L.L.L.L.L.L.L.W.Q.].&X=X=X=X=X=X=X=X=X=X=X&X].Q.L.L.W.A.,.T z 7.).*X@XT.K O             ",
"        O 2 #.{ R 9 + 2 ~ [ R n b o.m.W.W.L.L.L.L.L.L.L.L.Q..X%X*X=X=X=X=X=X=X*X&X.XQ.L.L.W.W.H.2.W # D /.;X:X(.J O             ",
"        O 2 ~ } R 9 @ > ~ { R M M o.m.W.L.L.L.L.L.L.L.L.L.L.Q.].&X=X=X=X=X=X=X&X].Q.W.L.L.W.W.Z.>.0 - H /.:X;X(.K O             ",
"        O 2 ~ [ R 9 @ 2 ~ ] R n M X.j.G.L.L.L.L.L.L.L.L.L.L.L.Q..X%X%X%X*X*X&X.XQ.L.L.L.L.K.D.p.X.4 + G ^.&X=X/.K o             ",
"        O 2 ~ [ R q @ 2 O.{ R n M E ;.f.G.E.L.L.L.W.L.L.L.L.L.W.!.!.!.].&X&X].Q.W.L.L.L.L.Z.:...V 4 @ j c.|.*X/.K o             ",
"        O 2 ~ [ R q + 2 ~ ] R n M A ` 1.A.W.W.L.L.L.L.L.L.L.L.L.L.L.L.Q..X#XQ.L.L.L.L.L.W.m.O.b m q + d i.~.%X(.K O             ",
"        O 3 O.{ R 9 + 2 ~ [ R n M Z A %.Z.W.L.L.L.L.L.L.L.L.L.L.L.L.L.W.Q.!.W.L.L.L.L.L.W.C.o.b n 4 + d z.~.%X/.K O             ",
"        O a ~ { R q + 2 ~ { ^ A Z B b ..p.D.L.L.W.L.L.L.L.L.L.W.L.L.L.L.L.L.L.L.L.L.L.L.D.a.X.n R t # d z.~.&X).K o             ",
"        O 2 ~ } R 9 + > ~ =.{ ` A M B Z ..t.D.W.W.L.L.L.L.L.L.L.L.L.L.L.L.L.L.L.L.L.W.D.t...B R _ W $ s z.~.&X/.K o             ",
"        O 2 ~ { R q @ 2 ~ -.-.] R B B b b ..p.m.m.S.L.W.L.W.L.W.L.L.L.L.L.L.L.W.L.L.D.p...b b R &.~ , s z.~.#X^.J O             ",
"        O 2 ~ { R 9 @ 2 ~ -.-.] R M M Z b V X.o.o.:.S.W.W.W.L.L.L.L.L.L.L.L.W.W.W.D.:...B M M R } ~ 2 d z.W.!.c.j O             ",
"        O 2 ~ { ^ t @ , ~ =.-.[ ^ A Z B B Z n b b ..p.C.m.m.m.C.K.W.W.L.L.L.S.m.m.p...b M B B R } ~ % y z.W.W.z.d O             ",
"        O 2 O.-.*.T # % ~ -.-.*.{ / A M B B B B b Z X.o.o.o.o.:.D.W.L.W.W.S.t.o.o...Z B B B n R } ~ & s z.W.L.z.d O             ",
"        O 2 T #.=.) 8 3 T ' { -.=.&./ A B B B B b b B B b b b ..p.C.m.C.m.p...b b n B B B Z S E ! | z 5.B.P.B.w.d O             ",
"            & e #.#.V 6 8 w ' -.=.=.} / A B B B B B B b B M M V X.o.o.o.o.X.B B B B B B M A _ ! w l e.V.L.x.6.y                 ",
"            O 2 ! ] ^ q O , ~ -.=.=.=.{ ^ R Z B B B B B B Z B B b B n n n n B B B B B Z A ` { ~ $ y x.L.K.i.d O                 ",
"            O 2 ~ } R 9 O 3 O.-.=.=.=.*.{ / A B B B B B B B B B B n n B n B B B B M M A / *.=.~ $ s z.K.d.@.2 O                 ",
"            O 3 ! { ` N 1 3 Y #.&.=.=.=.=.} / A B B B B B B B B B B B B B B B B R W A ^ { &.' | g I h.l.3.! 2 O                 ",
"            O a O.=.*./ C 6 1 w #.-.=.=.=.=.{ / A B n M B B B B M M M B M M B A ( ] ] { =.#.r f w.h.s.2.-.~ 2 O                 ",
"            O > | ' *.*.` N * & U #.=.=.=.=.=.{ ^ A R R R R R R R R R R R R R E [ -.-.{ ) | g 5.J.G.4.{ ' Y 2 O                 ",
"                % w #.=.{ / N ; 3 w #.-.=.=.=.=.} ' } ] ' ] ] ] ' ] ] ] ] ' ] [ =.=.-.' r f w.B.L.G.4.' w %                     ",
"                O % | ' =.*./ N = 2 U #.&.=.=.=.=.=.=.=.=.=.=.=.=.=.=.-.=.=.=.=.=.&.) | f 5.J.L.K.j.$.U % O                     ",
"                    % w ' =.{ / N 6 & w ' -.=.=.=.=.=.=.=.=.=.=.=.=.=.=.=.=.=.-.-.' r f w.J.L.K.d.@.e %                         ",
"                    O % U #.=.{ ` N * < U ~ ~ #.=.=.=.-.=.=.-.=.=.=.=.=.=.=.) ~ ~ | g 5.h.G.G.j.$.U % O                         ",
"                        > z ' =.{ / N 6 2 , % w #.-.=.-.=.=.=.=.-.-.-.-.-.#.w $ > g e.h.s.4.4.$.e %                             ",
"                        O > Y #.=.{ / N * + + 3 Y ~ ~ ~ ~ ~ ~ ~ ~ ~ ~ ~ ~ T 7 % % L h.l.2.{ ) U > O                             ",
"                            % w #.-.{ / N 9 9 6 3 , 2 2 2 2 2 2 , 2 > > > 7 Y ~ ~ @.1.2.-.#.w %                                 ",
"                            O % U ' =.{ / R R C * + + + + + + + + + @ @ @ 3 ' -.-.-.=.&.#.U % O                                 ",
"                                % w #.-.{ { [ ( C 9 4 4 9 9 q q q q 9 9 4 V ] -.-.-.-.) w %                                     ",
"                                O u U O.~ ~ ~ ~ E R ^ R R R R R R R R R R E ! ~ ~ ~ ~ U % O                                     ",
"                                    > 2 , 2 2 e ! { } } { { ] [ } [ } } { ! w > 2 2 2 ,                                         ",
"                                    O O O O O 2 | O.~ ~ ~ ~ ~ ~ ~ ~ ~ O.O.| , O O O O O                                         ",
"                                                2 a 2 2 2 a 3 a 2 2 3 2 2 2                                                     ",
"                                                O O O O O O O O O O O O O O                                                     ",
"                                                                                                                                ",
"                                                                                                                                ",
"                                                                                                                                ",
"                                                                                                                                ",
"                                                                                                                                ",
"                                                                                                                                "
};
