/* XPM */
static char *_0673c0ab70b470f9771a2d68f62eadabYC4UwU7EXjjjCxf[] = {
/* columns rows colors chars-per-pixel */
"64 64 223 2 ",
"   c None",
".  c #00060C",
"X  c #00090E",
"o  c #000307",
"O  c #010B11",
"+  c #0C141A",
"@  c #0B161D",
"#  c #0E1A22",
"$  c #131D26",
"%  c #121F29",
"&  c #15232D",
"*  c #1B242D",
"=  c #1A2630",
"-  c #1D2933",
";  c #212B35",
":  c #232E39",
">  c #25313A",
",  c #2A343D",
"<  c #2D3843",
"1  c #273844",
"2  c #323D44",
"3  c #35414D",
"4  c #2D4A56",
"5  c #394654",
"6  c #2C4A57",
"7  c #2E5561",
"8  c #345867",
"9  c #37626E",
"0  c #396877",
"q  c #414C5C",
"w  c #455362",
"e  c #4D5C6E",
"r  c #495667",
"t  c #4A596B",
"y  c #546375",
"u  c #5A6B7D",
"i  c #556578",
"p  c #486D7B",
"a  c #64737A",
"s  c #3E7483",
"d  c #427989",
"f  c #5D7788",
"g  c #507789",
"h  c #697A8D",
"j  c #657589",
"k  c #6C7D92",
"l  c #637F91",
"z  c #616F84",
"x  c #468394",
"c  c #4D8D9F",
"v  c #69889A",
"b  c #738298",
"n  c #7F909D",
"m  c #4995AC",
"M  c #5798A9",
"N  c #4B9AB2",
"B  c #549CB1",
"V  c #7B8CA4",
"C  c #7F8EA8",
"Z  c #6B95A8",
"A  c #7C95A9",
"S  c #6C95AC",
"D  c #4EA2BB",
"F  c #57A3B8",
"G  c #69ABBD",
"H  c #76A9B9",
"J  c #54ABC4",
"K  c #5DACC4",
"L  c #56AEC9",
"P  c #55AAC5",
"I  c #57B1CC",
"U  c #5DB3CD",
"Y  c #5DB5D0",
"T  c #5EB9D2",
"R  c #68AFC2",
"E  c #78ACC6",
"W  c #64B4CD",
"Q  c #6BB4CB",
"!  c #6DB1C4",
"~  c #71B9CD",
"^  c #75B3CB",
"/  c #63BAD3",
"(  c #6CBAD3",
")  c #65B6D2",
"_  c #72BCD5",
"`  c #78BBD5",
"'  c #7DC4DB",
"]  c #7FCBDC",
"[  c #77C2D6",
"{  c #7CC8E2",
"}  c #7BD4E4",
"|  c #8293AC",
" . c #8598AF",
".. c #8699B4",
"X. c #899CB6",
"o. c #8B9EB9",
"O. c #8596B1",
"+. c #8EA1A8",
"@. c #8EA2BD",
"#. c #8BA1B7",
"$. c #90A5BE",
"%. c #94A8B6",
"&. c #92ADB5",
"*. c #8FA5C1",
"=. c #91A6C1",
"-. c #94ABC4",
";. c #96ADC9",
":. c #99AEC9",
">. c #98ACC6",
",. c #89BAC4",
"<. c #99B2C7",
"1. c #9BB3CC",
"2. c #9EB9CE",
"3. c #96B0C9",
"4. c #9DB5D0",
"5. c #9EBAD3",
"6. c #83BDD1",
"7. c #A3B9CF",
"8. c #A0B4CE",
"9. c #A2BCD4",
"0. c #A4BDD9",
"q. c #A9BFD5",
"w. c #8BC5DA",
"e. c #84CCDF",
"r. c #8CCBDC",
"t. c #87C6D7",
"y. c #92CBDC",
"u. c #95C7D9",
"i. c #9BC8CF",
"p. c #A3C1D6",
"a. c #AAC1D7",
"s. c #A5C3DB",
"d. c #AAC5DB",
"f. c #ABC9DD",
"g. c #A2CED6",
"h. c #B3CDDD",
"j. c #B2C8D2",
"k. c #A5D2DA",
"l. c #BAD0DF",
"z. c #86CBE2",
"x. c #8DCDE2",
"c. c #84C4E1",
"v. c #92CEE0",
"b. c #97CAE8",
"n. c #85D5E3",
"m. c #8AD3E4",
"M. c #84D9E6",
"N. c #89DBEA",
"B. c #9BD5E5",
"V. c #94DDEA",
"C. c #9DDCEB",
"Z. c #98D6E7",
"A. c #99DDF2",
"S. c #A6C4E2",
"D. c #ACCAE3",
"F. c #ABCBE8",
"G. c #A7C8E4",
"H. c #B3CDE0",
"J. c #ABDCE9",
"K. c #A6D8E6",
"L. c #B4D2E4",
"P. c #BBD4E4",
"I. c #B2DDE5",
"U. c #BFDAE7",
"Y. c #B3DDE9",
"T. c #BCDBEB",
"R. c #B5D3EA",
"E. c #BEDDF0",
"W. c #B1DAF1",
"Q. c #ACD8F4",
"!. c #8DE4ED",
"~. c #87E3EC",
"^. c #94E5ED",
"/. c #8EEDF3",
"(. c #9AE3F4",
"). c #93EBF3",
"_. c #9BEBF5",
"`. c #99E9F6",
"'. c #8FF1F5",
"]. c #8DF6F9",
"[. c #96F5F9",
"{. c #9AF4FB",
"}. c #95FEFE",
"|. c #9BFDFE",
" X c #92F2F6",
".X c #ACE1EC",
"XX c #B5E2EB",
"oX c #BBE4EC",
"OX c #B6E0E7",
"+X c #A5E2F3",
"@X c #ABE3F4",
"#X c #A6E9F7",
"$X c #B9E8F7",
"%X c #A4FEFF",
"&X c #ABFEFE",
"*X c #A0F5FC",
"=X c #B2FEFF",
"-X c #BCFFFF",
";X c #BCF3F8",
":X c #C1DAE6",
">X c #C2DCEA",
",X c #C1DFF2",
"<X c #C4E3ED",
"1X c #CAE4EE",
"2X c #C3E8ED",
"3X c #C5E4F3",
"4X c #CBE7F1",
"5X c #C6EBF2",
"6X c #CDEBF4",
"7X c #C7ECFA",
"8X c #D2EDF5",
"9X c #D2ECF8",
"0X c #CEF1F5",
"qX c #CEF3FA",
"wX c #CBFFFF",
"eX c #C4F7FB",
"rX c #D4F2F6",
"tX c #D5F4FA",
"yX c #DAF6FB",
"uX c #D4FEFF",
"iX c #DDFAFD",
"pX c #E4FFFF",
"aX c #E9FFFF",
/* pixels */
"                                                                                                                                ",
"                                                                                                                                ",
"                                                                        J J P P J J J D D D N N N m N                           ",
"                                                                      W W / W W W ~ ~ ~ Q ^ ! ! ! ! ! G                         ",
"                                                              L I L L [ z.z.z.z.Z.Y.oXXXXXXXOXOXOXOXOXt.m m m                   ",
"                                                            K U W / / { (.(.(.A.@XwXiXaXaXpXpXaXpXaXaXk.G G G                   ",
"                                                      I I L K R ' M.~./.[.{.{.{.*X=XwXaXaXaXaXaXaXaXaX5XI.I.g.G                 ",
"                                                      U / ) Q ` x.`.[.[.[.}.}.}.}.}.&XuXpXaXpXpXpXpXpXpXpXaX0X,.F               ",
"                                                  I W ( } N.n.c.z.z.n.n.n.'.}.}.}.}.|.=XuXaXaXpXpXpXpXpXaXaXiXOXi.B             ",
"                                                  / ( t.~.[.#XC.v.w.w.e.r._.%X%X|.}.}.|.-XiXpXaXpXpXpXpXpXpXaXpX2XH M           ",
"                                            I I ( { N.!.N.N.$XeX2XXXoXoXoXeXwXwX-X%X}.}.%X-XuXaXaXpXpXpXpXpXpXpXrXk.t.M         ",
"                                          U T T [ N._.|.!.v.5XaXaXpXpXaXpXiXpXpXwX%X}.|.}.|.wXaXaXpXpXpXpXpXpXpXaXiXg.M         ",
"                                        U / ( } } m.+X-X;X2XyXaXaXaXaXaXaXaXaXaXrXV.^.|.}.|.wXaXpXpXpXpXpXpXpXpXaXaXg.c         ",
"                                        / ( e./.'.z.K.iXiXiXiXpXpXaXaXpXpXpXaXaX5Xy.n.|.|.|.wXaXpXpXpXpXpXpXpXpXaXaXk.M x       ",
"                                      W ( e.^.|.'.] K.yX0XXX;XwXiXaXaXpXaXaXaXaX5Xw.n.[.}.%XwXpXaXpXpXpXpXiXpXpXpXpX2Xi.H       ",
"                                    U ( ] !.|.}./.e.J.yXXXr.).&XuXpXpXaXpXpXpXaX6Xr.n.|.}.|.wXpXpXpXpXpXpXpXpXpXpXpXaXrX,.x     ",
"                                  Y ) ' m._.|./.V..X6XpX6X.XV.^.=XuXpXaXpXpXaXaX6Xr.n.|.}.|.wXaXpXpXpXpXpXpXpXpXpXpXaXiX,.x     ",
"                                Y ( ` x.A.{.[.n.Z.0XpXiXiXrXB.e.'.=XiXaXaXaXaXaX5Xr.M.[.}.|.wXaXaXpXpXpXpXpXpXiXpXpXaXiX&.x     ",
"                              T ' b.J.+X(.{.|.^.V.XXoXXXoXXXV.~.].&XiXaXpXaXpX2Xk.V.).|.}.|.wXpXpXpXpXpXpXiXpXpXpXpXaXiX&.d     ",
"                        U U U [ b.$XtX7X+X{.|.|.).x.w.e.t.m.).}.|.=XuXaXpXaXrXu.r. X|.|.|.|.wXpXpXpXpXpXpXpXpXiXiXpXpXyX,.x     ",
"                        _ ' x.B.$XtXaXtX$X`.!._.`.N.N.M.} ~.].|.=XwXiXaXaXaXrXK.N.[.|.|.}.|.wXpXaXpXpXpXpXpXpXpXiX9X6X<XH d     ",
"                      W c.Q.7XyXpXpXpXpXyXK.z.A.`.{.}.[.[.[.}.%XwXpXpXaXpXaXuX=X}.|.|.|.}.%XwXaXpXpXpXpXpXpXpXpXtXR.H.f.S d     ",
"                    _ x.Q.7XiXaXaXpXpXaXaXoXK.$X#X*X{.{.%X=X=XwXiXaXaXrXoX7XeX&X|.|.|.|.%X-XuXpXpXpXpXpXpXpXpXpXrXL.d.i.Z s     ",
"                  K r.6XiXpXpXaXpXpXpXaXaXiXtXiXqX#X(.(.eXiXiXiXpXaXpXoXr.Z.+X|.|.}.}.}.-XuXpXpXpXpXpXiXiXpXpXpX9XL.k.p.Z s     ",
"                W ` K.iXaXaXaXpXaXaXpXpXaXaXaXaXiX;X$X$XtXaX0X2X0XqX7X.XN.V.`.|.}.}.|.=XuXaXpXpXpXpXpXpXpXpXpXtX<Xf.f.5.Z 0     ",
"              J ( b.E.pXaXpXaXpXpXpXaXaXpXaXpXaXpXiXtXiXaXiXJ.y.+X+X@X_.[.[.|.}.}.}.&XuXpXpXpXpXpXpXpXpXpXpXyXT.D.f.d.5.Z 0     ",
"              P _ J.9XpXaXpXpXaXaXaXaXaXaXaXaXaXpX2X3X5X5XoXB.M.^.`.`.{.|.}.}.}.|.&XwXpXaXpXpXpXpXpXpXpXpXtX4XL.s.s.a.9.v 0     ",
"              P ` 7XpXpXpXaXpXaXpXpXaXaXaXaXaXaX1Xw.6.r.y.y.^.[.{.[.[.}.}.}.}.}.&XwXuXpXpXpXpXpXpXpXpXaXiX5XJ.d.g.p.p.2.v 0     ",
"              Q y.tXaXaXpXpXaXiXtXqXtXqXqX6X5X5XOX[ [ ] n.n.'.|.}.}.}.}.}.%X&X&X-XpXaXpXpXpXpXpXiXpXpXiX6XY.d.s.s.p.3.A x 9     ",
"            W c.W.yXaXpXpXpXaXyX$X+X@X#X+XZ.y.y.m.^.'./.'.'.[.}.}.}.}.}.|.-XuXuXuXiXaXpXpXpXpXpXpXpXpX6XI.D.d.s.p.i.A p 9       ",
"          W ` K.7XiXpXpXpXpXaXyX$X+X@X@X@XB.y.y..X&X&X&X&X&X&X%X%X&X&X&X=XuXaXaXaXpXpXpXiXpXpXpXpXiXrXT.d.s.p.0.p.7.V 7         ",
"        K 6.F.7XpXpXpXpXaXpXpXpXtXtXtXtXtXqXrX0X0XuXuXuXuXuXuXuXuXuXuXuXuXiXaXaXaXpXpXpXpXpXpXpXpXrXT.D.f.s.p.i.p.2.v 7         ",
"        K u.3XyXaXpXpXpXpXpXpXpXpXaXpXaXaXaXpXaXaXaXpXaXaXaXaXaXaXpXaXpXaXaXpXpXpXpXpXpXpXpXpXpXpX6XD.s.s.p.i.5.2.2.v 6         ",
"        R B.yXpXpXpXaXpXpXaXpXpXpXaXaXaXpXaXaXaXaXpXaXaXpXaXpXaXpXaXaXpXpXpXpXpXpXpXpXpXpXiXpXpXpX5Xf.s.s.5.9.4.2.<.v 6         ",
"      K ( Y.pXpXpXpXpXpXpXpXpXpXpXpXpXpXpXpXpXaXpXpXaXpXpXaXpXpXpXpXpXpXpXpXpXpXpXpXpXpXpXpXiXpXaX6Xf.i.i.5.2.<.<.-.v 6         ",
"    F ^ u.3XpXaXpXpXpXaXpXpXaXpXpXpXpXpXaXpXpXpXpXpXpXpXpXaXpXpXpXpXaXpXpXpXpXpXpXpXpXpXpXpXpXpXaX6XS.5.2.2.<.<.<.>.j 3         ",
"    F ^ F.9XaXpXpXpXpXpXpXpXpXpXaXpXpXpXpXpXpXaXpXpXpXpXpXpXpXpXaXpXpXaXpXpXpXpXpXpXpXiXpXiXpXpXtX>Xs.1.1.1.<.<.%.A u 1         ",
"    B E F.9XaXpXpXpXpXpXpXpXpXpXpXpXaXpXpXaXpXpXaXpXpXpXpXpXpXaXpXpXpXaXpXaXpXpXpXiXpXpXpXpXaXiXT.f.5.1.3.3.<.-.V e 4           ",
"    M E F.7XpXaXpXpXpXpXpXpXpXpXpXpXpXpXpXpXpXaXpXpXaXpXpXpXpXpXpXiXyXyXyXyXiXiXpXpXpXiXpXpXiX4Xd.1.1.<.-.-.-.-.b , #           ",
"    c H G.6XpXpXpXpXpXiXpXpXpXpXpXpXpXpXpXpXpXpXpXpXpXpXpXpXaXaXaXyX3XE.E.T.3XyXpXpXpXpXaXiX>Xh.2.3.3.-.-.-.$.$.v > @           ",
"    d H G.9XpXpXpXpXpXpXpXpXpXpXpXpXpXpXpXpXpXpXaXpXpXpXpXpXpXiXiX6XW.F.F.S.R.9XaXpXpXpXiX9Xh.3.:.>.>.$.$.$.#.| u > +           ",
"    s S S.9XiXpXpXpXpXpXiXpXpXpXpXpXpXpXpXpXpXpXpXpXpXpXpXiX7XoXE.R.F.S.S.S.D.9XpXpXpXpX6Xh.1.-.;.=.=.$.#.%.| y 3               ",
"    0 v S.6XpXpXpXpXpXpXpXpXpXpXpXpXpXpXpXpXpXpXpXiXpXpXaXiXE.F.F.G.F.S.S.S.L.rXpXiXyXrXL.<.-.-.=.=.$.o.X. .h 2 +               ",
"    8 v 0.6XaXpXpXiXpXpXpXpXpXpXpXpXpXpXpXpXpXpXpXpXpXpXpXiXR.S.S.S.S.S.s.R.6XiXrXU.P.H.9.-.-.=.=.o.o.$.X.u 5 -                 ",
"    6 l s.4XpXpXpXpXpXpXpXpXpXaXpXpXpXpXpXpXpXpXpXpXpXpXaXiX>XG.S.S.S.S.S.4XiXpX1Xp.;.3.;.-.=.@.o.o.....b 5 +                   ",
"    1 f 9.R.,XyXpXpXiXpXpXiXpXiXiXpXpXpXiXpXpXpXiXpXpXpXpXiX9X>XS.5.0.H.>XiXpX<Xf.<.*.=.=.@.@.o.o.o.X.h q ;                     ",
"    1 z 9.0.D.8XpXpXpXpXpXiXpXpXpXpXpXiXiXpXiXpXpXpXpXpXpXpXaX9XF.0.0.>XiXpX8Xa.>.-.=.*.@.o.o...X.O.V r $                       ",
"    1 z 8.0.0.H.4XiXpXpXpXaXpXpXpXpXaXpXpXpXpXpXpXpXpXpXpXpXaXrXd.0.U.9XpX6Xh.<.=.*.@.@.o.o.o.o.o.k r <                         ",
"    1 z 4.0.0.0.P.9XpXpXiXpXyXpXpXiXpXpXpXpXpXpXyXiXpXiXiXiXpX6Xf.H.rXaXtXD.;.*.@.@.o.o...O.| | | u * +                         ",
"    - y 8.P.U.0.0.U.>X:X>X>X>X,XpXyX>X6XiXpXiX6X>X>X>X:X>XT.U.U.:X4XpXrXP.4.@.@.@.o.o.o.o.| u w q 2 +                           ",
"    = i 8.4X9XH.9.9.9.0.9.0.0.H.9X4XD.U.pXaXtXH.9.0.9.9.5.4.4.a.1XpXyXP.-.*.o.o.o.....| | b 3 # @ $                             ",
"    % y 7.8XpX>Xh.9.4.4.8.4.4.9.P.>XP.4XiXaXtXf.;.;.;.;.;.-.*.3.h.:XP.9.o.o.*.*.o.X.k e r w : o o                               ",
"    % y 8.>XpXpX4Xq.4.8.4.4.1.4.8.H.tXpXpXpXrXa.;.;.;.;.-.-.-.-.-.>.-.$.o...O.C O.| y * # $                                     ",
"    % q h j.aXaX9Xq.:.8.:.4.:.;.;.j.iXaXpX8X:X8.-.-.-.=.*.*.=.=.@.o.o.o...h e e e e 2 + o X                                     ",
"      $ 2 +.aXaX4Xq.:.:.:.:.:.>.>.h.yXaXrXl.8.>.=.=.=.*.*.*.o...X...O...V q % % % & %                                           ",
"        $ a +.+.%.8.8.:.8.8.>.:.a.>XyX8X:X7.=.=.=.=.=.*.*...h i i i y i e 1 X . O O                                             ",
"          > > > w  .:.>.>.>.$.7.1XpXpXl.8.%.@.o.@.X.#.X.@.V 5 & & & & & &                                                       ",
"            . o > u h j z h | q.rXaXaXl.$.@.O.h u u z u z y 1 X O O O O O                                                       ",
"                  ; ; ; * < h 7.8XaXpXl.$.o.| q & - - - & =                                                                     ",
"                  O O O o $ r b +.%.%.| z z y ; O O O O O O                                                                     ",
"                            ; : < 2 2 , ; ; -                                                                                   ",
"                              O X X X . O O O                                                                                   ",
"                                                                                                                                ",
"                                                                                                                                "
};
