/* XPM */
static char *b8874b81aa2f48fdc51a8bc0bd3c0f972pewaUzrS991D5EE[] = {
/* columns rows colors chars-per-pixel */
"64 64 214 2 ",
"   c #4C0800",
".  c #560700",
"X  c #5C0700",
"o  c #540800",
"O  c #5C0800",
"+  c #670700",
"@  c #6A0700",
"#  c #630800",
"$  c #6B0800",
"%  c #750700",
"&  c #7A0700",
"*  c #730800",
"=  c #7C0800",
"-  c #840700",
";  c #8B0700",
":  c #840800",
">  c #8B0800",
",  c #940700",
"<  c #9C0600",
"1  c #940800",
"2  c #9C0900",
"3  c #8D1000",
"4  c #941300",
"5  c #9D1300",
"6  c #9C1B00",
"7  c #A40600",
"8  c #AB0700",
"9  c #A40900",
"0  c #AC0900",
"q  c #B10700",
"w  c #B30B00",
"e  c #BB0D00",
"r  c #A31400",
"t  c #AB1400",
"y  c #A31C00",
"u  c #AB1D00",
"i  c #B51200",
"p  c #BC1200",
"a  c #B31C00",
"s  c #BD1900",
"d  c #A42100",
"f  c #AA2400",
"g  c #B62000",
"h  c #BB2300",
"j  c #C30E00",
"k  c #CB0E00",
"l  c #D30E00",
"z  c #DA0E00",
"x  c #C41200",
"c  c #CB1200",
"v  c #C41A00",
"b  c #CC1B00",
"n  c #C51C09",
"m  c #D41200",
"M  c #DB1300",
"N  c #D41B00",
"B  c #DC1B01",
"V  c #DE1608",
"C  c #D31A08",
"Z  c #E40F00",
"A  c #E41500",
"S  c #EA1600",
"D  c #E51B01",
"F  c #EB1A01",
"G  c #E21E0B",
"H  c #F21600",
"J  c #F31C00",
"K  c #FB1D00",
"L  c #FA1500",
"P  c #C52400",
"I  c #CD2100",
"U  c #C62108",
"Y  c #C9270B",
"T  c #D42301",
"R  c #DC2301",
"E  c #DC2A00",
"W  c #D12109",
"Q  c #C83900",
"!  c #D03700",
"~  c #DA3300",
"^  c #DC3C00",
"/  c #D73114",
"(  c #E32301",
")  c #EC2403",
"_  c #E32B01",
"`  c #EC2D02",
"'  c #EC240A",
"]  c #EC2B0B",
"[  c #E4260B",
"{  c #F42303",
"}  c #FE2301",
"|  c #F32B02",
" . c #FE2B05",
".. c #F1270A",
"X. c #F52B0A",
"o. c #FD2D0A",
"O. c #E33202",
"+. c #E93600",
"@. c #E53900",
"#. c #EC3A01",
"$. c #E93208",
"%. c #F43203",
"&. c #FA3401",
"*. c #FB3B02",
"=. c #F3330B",
"-. c #FE330C",
";. c #FF380F",
":. c #F13A0E",
">. c #EA2911",
",. c #FF2F10",
"<. c #F32D12",
"1. c #E03711",
"2. c #ED3112",
"3. c #E03915",
"4. c #F53213",
"5. c #FC3412",
"6. c #F43A13",
"7. c #FE3C12",
"8. c #F7311A",
"9. c #FB351C",
"0. c #FD3A19",
"q. c #D34201",
"w. c #EB4400",
"e. c #EE4B00",
"r. c #F74202",
"t. c #FB4301",
"y. c #F14D03",
"u. c #FC4A03",
"i. c #FD440C",
"p. c #F7490B",
"a. c #FC4C0B",
"s. c #EB5200",
"d. c #ED5D00",
"f. c #F35401",
"g. c #FD5403",
"h. c #F55B01",
"j. c #FD5B02",
"k. c #FB5309",
"l. c #FC5B0A",
"z. c #F15B08",
"x. c #E94D1D",
"c. c #F64115",
"v. c #FE4214",
"b. c #FD4A12",
"n. c #F3401D",
"m. c #FE451B",
"M. c #FE4B1D",
"N. c #FF5415",
"B. c #FF5B10",
"V. c #FF541D",
"C. c #FF5C1D",
"Z. c #F55819",
"A. c #EF6800",
"S. c #F56301",
"D. c #FA6403",
"F. c #F66B01",
"G. c #FB6B02",
"H. c #FC630B",
"J. c #FB6D0B",
"K. c #EE770C",
"L. c #FB7402",
"P. c #FD7C01",
"I. c #FC730D",
"U. c #FA780B",
"Y. c #FD6314",
"T. c #FC6A13",
"R. c #FF641A",
"E. c #FE6B1B",
"W. c #FD7414",
"Q. c #FF7A15",
"!. c #FE731C",
"~. c #FF7C1C",
"^. c #EC4A20",
"/. c #FF4C21",
"(. c #F44E24",
"). c #FE5324",
"_. c #FF5B24",
"`. c #FF542B",
"'. c #FF5C2A",
"]. c #F55223",
"[. c #FF5B30",
"{. c #FF6423",
"}. c #FF6C24",
"|. c #FF642A",
" X c #FF6A29",
".X c #FF7324",
"XX c #FF7B23",
"oX c #FF712A",
"OX c #FF6931",
"+X c #FC8501",
"@X c #FC8C00",
"#X c #FE840B",
"$X c #FE8B0B",
"%X c #FE9301",
"&X c #FE9B02",
"*X c #FF940B",
"=X c #FF9A0A",
"-X c #F39100",
";X c #FE8416",
":X c #FF8C13",
">X c #FF841C",
",X c #FF891E",
"<X c #FF9313",
"1X c #FF9817",
"2X c #FFA401",
"3X c #FFAB00",
"4X c #FFA50A",
"5X c #FFB200",
"6X c #FFBC00",
"7X c #FFA211",
"8X c #FF8122",
"9X c #FF8C2A",
"0X c #FF8329",
"qX c #FFC400",
/* pixels */
"A X.7.K J S m j A 5.;.o.A l m N M c N E N _ f.^ S j.3X3X%XH.S.*.} ( T B x p j w j M F F J K K F ;.o.A J S c j S ;.;. .A k M F M ",
"M D 7.-.K K ) A K  .5.X.M M l m c s s x M m R I Q G.+X4X!.E.F.g.}  .R p x c z [ M.J J } K } F M ' v.} K F M M K o.;.X.z l M M x ",
"x F o.-.K v.'.).7.} -.x e x M A 0 b x 9 m B b N ^ S.B.E.Z.K.l.%.F F S M M m k ' '.} J N j j c M { 5.o.K X.9.o.J } -.M c l M m 9 ",
"e e j A { m.:X;X`.).6.b w M A c r x p i m ( w.w.B s.F.*.J.qX+XH ( D { } M e k F ;.o.M e p w 0 e M F } o./.Q.{.M.5.=.p w b A m 5 ",
"j e e e m o.}.{.M.).m.D M A M j 9 W P e A B *.C.W.5X2X-.*.y.#.K F A J K m l x M A N w e x e m e w w j J M.<XXX`.'.c.b c S A e 9 ",
"e p k m c M G C q w ( -.} J M e e _ b w k c J 0.T.+XS.D ( D Z J } 5.o.A c m l m w 8 e e 0 w e e p x j M ..^.<.C [ o.X.J A m e i ",
"e p c x 9 9 2 < 7 , < m  .o.J j l b U '.^.k A F L K A D S.S.D } o.).m.J k M A j i e e w j x e p p m k 0 j e 8 , , x } } } M w m ",
"x 0 0 8 < : $ > w 2 < 7 v { K A b e s ]./ M c M D B N s s.O.m S A J } v.o.{ D p e e m j S A j e w e w , - % , 8 1 2 e X.o.K x m ",
"A w 2 : w 0 : = q 7 9 w 7 p A K v p p i b M l M x w N e l A m A z F /. XM.F S x 8 0 0 w m c M m 0 2 1 8 2 * , e 2 0 7 e F K D v ",
"D e = % < 2 9 = - = : 9 < 0 x m e w x s T N j k w e x c c j A Z { T. X.X|.=.S c w w w j p c o.B 0 * : 7 7 - & 2 , 9 w 9 i M S w ",
"D 0 > % % > 8 > +   # 1 w 8 w p c 2 9 i s 0 j c T _ b e w ) M.4.V.8X!.&X2X{.' w.S.s < j e c  .M 7 $ = - 1 9 : @ # % 2 8 9 x c w ",
"' 9 0 & o * % % = @ @ 0 v e 1 e m c 0 w 0 0 m c s p p 8 8 -.|.`.b.!.>X3X3XXX8.e.G.a 7 m x k } R 8 8 $ # = > = O o % w x w 0 p m ",
" .9 : % O % = 2 2 = # : < > % 2 w l j w e c A M e e x x A K [ F t.F.W.Q.W..XY.@.B m ..o.A J o.) , 1 + O * % > > + + 7 e 1 - 0 x ",
"v...> * $ * < e e , * # $ # + > < e V M e w 9 7 9 0 j K K w.f.M } t.t.B.{..X3X%Xz A ) { F S ;.5.p = $ + % 7 e 8 : $ * & @ * , 9 ",
"} { j > = * , w 8 : O O 1 - # > 9 m 7.{ 7 8 , , < < j A A g.F.m J K } Y.>X}.:XF.l M k z A A K ;. .w = = * 2 p 0 > + O = # @ 1 < ",
") e p w < : > = : #   + - & * * : e M m w 0 w w w e x m K } ( A D } }  .l._.2.z m S F S | h.*.M x p 0 > = , 9 , #   * w - $ : 9 ",
"&.x p e 8 = = $ $ * O . = 6 = # + 2 0 w 0 0 c e e m c e B K K K K S S o.o.m b @.D G.&X@XG.~.Q.) e p e 7 : : @ * $   O : : % $ = ",
"J e 9 8 , @ > 1 $ + * : t t %   $ 2 5 2 q 8 9 9 7 w k j b } B w x j v -.V P I.>Xg.3X3X5XL.H.l.F e 9 8 < % : : @ $ $ = 6 y @   * ",
"u.e ; : # # - : % . O ; 2 ; : - > 5 y 2 0 < > , 8 8 2 p k A 0 e w e m } x ^ J.!.S.+X3X#XL.&XL.) w , : O . > ; # + $ > 0 2 % O > ",
"g.e - , - - r y > - > = > 2 2 0 w 1 2 w 8 1 1 > 9 < , 0 j k k w 9 < c } m ' W.&X%X$X>X!.&X3X2Xu.0 : : @ : 2 5 : # * > , > ; 9 9 ",
"%.w = ; = = , = % w 0 - 7 w p 8 < 1 < 0 0 < , - % 1 9 e p x m 0 2 w e k l M.4X3X3X=XoX8X3X3X&X| < - 1 : > r 4 : 9 2 - 2 w 0 0 8 ",
"y.F m b 9 & : 2 1 , 8 w w p i 8 : 2 w 9 0 k < 2 2 1 w x w 8 0 s e } J 7 e 5.@X3X3XP.XXQ.S.@XL.` m p 9 = * - & : 0 7 9 0 e e 9 : ",
"U.*.K } } j x m m x e e e w w 0 8 w 0 p e w 9 1 9 9 w e 0 8 2 i x j e p j y.~.U.H.B.J.r.K k.W.S.} K } M 1 0 x w < 8 e e i w 0 , ",
"T. .K } D l M c D  .D M c 9 q q w r ; r p w t d 5 9 7 0 t i 6 y t 9 7 x S t.Q.W.p.X.m.o.} Q.0XJ. .} } F k m m D F j x p 0 w i w ",
"R.D S K o.) A p x K S J m 7 w 7 : % 5 d y q p s a 5 9 p e 0 i 8 1 < 8 B } S E H.` S ;.K L t.T.k.J } } ) M m x D  .S J k 7 w 8 t ",
".X6.X.o.;.;.} J A &.%. .j w e - % * : f s a a a t 9 8 e e 0 8 w w 0 e K F e 7 j A J a.%Xu.L i.{.M F } ;.o.J b l } F J e q w , % ",
"'.XXM.v.M.} K } B.L.F.j.M w w - $ @ : r f u d d i w w w 0 w w e e p w M k x =.p c D ) -Xh.5.).|.{.v.5.7. .K K t.h.h.*.j e 0 % * ",
"|.XX).M.).o.o.V.1X2X3XL.S j c 0 0 2 0 i p a d y 9 8 e i e m c e e e e e e n R e e 9 w c k D M. X XM.M.M.K K b.8X#X@Xg.M 0 0 , = ",
"-.i._.).M.v.M.M.:X2X:XI.=.D A m m p 2 u 9 r d f 5 2 9 9 p e x e 9 w j p w w 0 w 2 > > w j { -.C..X).).M.v.M.|.2X3X2XS.M m M j j ",
"} } m.'.M.} { K N.,XXXXX|.).;.S c e 2 9 2 , d d : : > 2 e p w 0 : : > 1 8 0 w e r 5 2 2 j } } K -.).'.m.o.5.-.Q.<X>XE.).6.{ M k ",
";.5.-.).m.B $._ M..X}.}.'.'.o.K F j 0 < : > 1 : = O O * , 0 0 e 2 > > d r r a a t g i 2 M K } o.-.7.'.7.D | L C.8XXX}.[.'.;.F l ",
"S.u.v. X0.=.-.T.~.}.}.>Xp...A M S m 0 p 9 : : : : : . O 1 e w 7 9 = 4 f d 5 s s s p 1 0 M ( S.a.-.5.|.X.) ` y.{.'.{.~.V.0.J J F ",
"I.5X$X}.|._..X>X5X&XW.H.} B _ B m k 0 i w 9 = + % @ O @ : r w j A 2 @ d 6 4 s i i 8 x m m b e.L.@XE. XM.v.Z.:X&X;XXXI.{ F D m A ",
"m.<X&XXX.X}.XXXX:X;XW.t.J T O.( e c w p p p t * O . $ * : 4 t c 2 = + % # 1 i 7 8 m S A m m M J.5X*X X|..XXX>X3X$XJ.&.F T @.R k ",
"9. XXXXX~.XX.X~.:X XXXXXf.m v j p l m ( E v p s > = : - v b 9 , : , 1 , > 8 8 8 e m A M F K ] 9.~.>XXX}.XX!.~.>X.X!.l._ c B c i ",
"*X&X&X;X'.|.}.&X5XV.#X4XC.A N e j k A D N M c v i 2 9 i m b 2 9 2 2 0 2 , < w j c M K } o.Y.<X*X*X&X~.'.|..X2X2X).=X7Xm.M b e x ",
"2X2X3X$X`.'.oX~.;X/.#X&XX.D E E ( A M c p x p v N 0 w e x x 2 8 9 , , : : 9 2 M k M S {  .H.2X2X2X5XQ.`.'..X>XQ./.&X+X..D E E B ",
"_..X<Xg.7./.;.} o.).5.F J D m m D { { ( E R s w w s s T m k 2 1 8 > : @ # > : 2 k F A D A F v.{.XX:Xu.m.M.-.K ,./.o.F F D m m F ",
"h.~.XX.Xv.} K } H X.R.N. .{ J m w x I T E _ ) v p v I v N m w 0 9 % = 9 O + 2 = 9 x b S K {  .S.~.XXE.5.K K } F 6.R.b.} J J c w ",
"t.F.E.V.5. .K J z 3.9X.X{ K } S x c p a P ;.v.=._ E P b N v e x 2 * ; q : # $ @ , 7 e A } 5.-.t.J.E.M.;.} K F M x.9X{.J } } D x ",
"K ) | o.o.J A } F B M.n.J A { } } B N x T $.i.i.7.m.k.h.$.) c p 9 ; 9 5 2 = % 2 0 0 w l z { -.K ` X.-.} F D } A ) /.6.F A K } } ",
"K J S A M k c S M A S l D K K A N N m B R O.O.%.V.`.k.h.-.-.{ c e e p t t 7 8 0 0 e A F M J } K H A A m j M S M F M M S K J M b ",
"F  .{ M M m x j k A { K S A m c x N R E v $.#.w.b.b.H.H.g.&.&.F M b N b v w 8 9 e c } J K } K J  .S M M m j e c D } } D D m M x ",
"A ] v.J K F M k F ;.5.-.A l b M M x N R R _ e.E S j.5X5X&XJ.F.u.} ` T m j p m e N A A F } } J M c.7.J } S l k J 5.5.o.M k M S m ",
"m F 5.;.K { 4.F F } ;.) l m m M p x s 0 m m N b q.G.I.:X X.XS.t.} o.B p c m l ] ).{ J K M S S M S 5.o.K F D F L } ;.) l M M m p ",
"e D { } } M.}._.-.o.=.x 0 j M A 0 b x 9 m B v b ~ z.!.T.N.Q.l.F D S F J M c k ' ).o.J x 0 e e c } ;.o.} m.'.).X.o.o.k j k M m 9 ",
"j w e c F 0.:X:X[.|.m.m j D A j r s s i m ( f.f.O.A.P.&.D.5XP.K ( S K } M j c A } o.k e x w e e p m F  ./.*X!.`.m.:.p e M S x 5 ",
"p e e p l ..).M.2.6.;.] S A M j 9 E b e z M o.'.;X6X2X-.{ F D K J A J F m m k m k p w e p e c e e w j A 7.~.{./._.c.B M D M e 0 ",
"e p c l j c l e < , c o.} K A e x _ v n W c J o.i.@Xe.M ( _ S J o.M.5.A j m M c 0 w p w 0 w e p e c c l D >.C e x X.o.K F m e p ",
"e e x e 2 > : , 8 < , e X. .K c c j Y OX].c A A H K A D G.S.B } { 7.;.} D A A p p e j e m m x p p c e 9 w 7 < , ; 0 J o.} D e z ",
"m q 7 2 9 , $ : w < 9 8 0 D J F b p i / W M m M N b T e ~ ( l D M F o.).;.{ D x w e k e A M c e 0 w 0 < : @ 1 w < 9 7 (  .} b c ",
"D w , = 8 w > = 8 < < w 9 e m J x x v i N B c M e w c x l M M M A X.'. X/.S F j 7 0 8 e c x F M q 1 ; 0 9 = ; w < 7 0 w M S F x ",
"A w % = > 2 8 : * O $ , 9 9 p x e 9 i i I v e c p v p v j x F S &.~. X>X!.m.S N P w 0 j e m o.B 8 + : 1 2 1 = > ; 1 0 < t b A 8 ",
") 8 2 * @ = 2 : @ O @ 9 p w w e m 8 < e e 9 k k T _ b e 0 o.)./.V.XX;X2X3X.X<.f.L.h < j e c } B 9 : % % > 8 : O . $ 9 w 7 e x j ",
"{ 2 8 = o * $ = : $ # 9 x 0 - w k M e w 8 e M c e w e 8 w o.).M.a.J.~.=X2X.X9.@.h.p e S x m } R 7 0 @ O % = = @ O % e x 0 7 e m ",
"-.i % * # % > 0 8 > @ = : % * > 9 j k e p j M c e e c M J { ( Z *.F.J.T.C..X:Xf.l z -.o.S K ;.X., - + O * : 2 2 * # , 9 > = 9 e ",
"5.o.9 % * % < p e 1 $ O % @ # > 2 j ] S e 9 2 , 2 9 e K H f.G.m J  . .T..X}.3X&XA M M A S A X.v.R - * $ % 9 e w > $ + $ # @ , 2 ",
"{ B j , : % > 9 2 * o # 2 > @ : 2 m 5.{ 8 8 < < 8 < j A F u.s.m J } } u.;X X!.w.k M z z A ) K  .{ e > - * 2 e 9 : O O 2 $ @ , 9 ",
"| e p e 9 : : $ = @   O % = % * & 8 j x w 0 e e e j j j K K S J F } } } i.c.V l m { r.&.t.J.l.M e e w , : > > > O   $ 9 : $ = 2 ",
" .c e w 8 = : = $ % # + 4 y * . + < 7 8 0 0 j e w c m p m K } D J M m ;.o.j ^ z.) @X5X3XL.!.Q.) e e w 9 = = + * * o O : 3 * # * ",
") e 1 2 = # : 1 $ O $ > t 9 % o % 5 6 < 0 9 , < 7 0 e j m K x 8 e e v } c Q U.XXD.2X2X2XG.F.g.D e < 0 ; $ > , @ $ $ > t t +   % ",
"g.j : : + * > > : O # > , ; > 2 < 5 y 7 0 2 > 1 0 0 , e c m 8 p 0 w m } c _ H.U.F.P.2XW.P.3X@X&.w ; : # # > > @ # + > < , = % > ",
"t.w : 2 : - r 6 : 2 2 * , 8 8 0 8 , < q 7 , , > ; 2 , 0 p k m 0 < < j K M 4.:X3X3X*XoX~.3X2X2Xt.7 : > % : 5 y > * : > , 1 2 0 8 ",
"%.e : - = % ; = = 0 8 , 0 e p 8 , 2 2 7 w 7 2 : = 1 8 p e j k t 8 m k w k V.4X2X2X*XXX>X&X3X%X) 7 : 2 : : 2 : : w 2 : 9 e e 9 2 "
};
