/* XPM */
static char *_9cfc5f9d4034998c50dcb77aef0c625DJ8dAvGcwjdKRu1C[] = {
/* columns rows colors chars-per-pixel */
"60 50 209 2 ",
"   c #4C0700",
".  c #4F0800",
"X  c #530700",
"o  c #530800",
"O  c #5C0800",
"+  c #620700",
"@  c #6C0700",
"#  c #630800",
"$  c #6C0800",
"%  c #730700",
"&  c #7C0700",
"*  c #740800",
"=  c #7C0800",
"-  c #830700",
";  c #8C0700",
":  c #840900",
">  c #8C0800",
",  c #930600",
"<  c #9C0600",
"1  c #930900",
"2  c #9C0900",
"3  c #871000",
"4  c #8B1000",
"5  c #951200",
"6  c #9C1300",
"7  c #9C1B00",
"8  c #A30600",
"9  c #AB0700",
"0  c #A40900",
"q  c #AC0A00",
"w  c #B00700",
"e  c #B30B00",
"r  c #BB0D00",
"t  c #A41300",
"y  c #AB1200",
"u  c #A41900",
"i  c #AA1B00",
"p  c #B31300",
"a  c #BC1200",
"s  c #B61C00",
"d  c #BC1A00",
"f  c #A32200",
"g  c #AA2300",
"h  c #AD2800",
"j  c #C40700",
"k  c #C30E00",
"l  c #CC0F00",
"z  c #D60600",
"x  c #DC0700",
"c  c #D30E00",
"v  c #DB0E00",
"b  c #C41200",
"n  c #CB1200",
"m  c #C41B02",
"M  c #CC1B01",
"N  c #CC1208",
"B  c #D31300",
"V  c #DB1400",
"C  c #D41B01",
"Z  c #DC1B01",
"A  c #D01B08",
"S  c #E90F00",
"D  c #E31500",
"F  c #EA1600",
"G  c #E51B01",
"H  c #EC1A00",
"J  c #E61B08",
"K  c #E81B08",
"L  c #F01500",
"P  c #FE1400",
"I  c #F31C00",
"U  c #FB1E00",
"Y  c #C52300",
"T  c #CC2200",
"R  c #CD220C",
"E  c #D52301",
"W  c #DB2401",
"Q  c #DD2A00",
"!  c #D22C07",
"~  c #CF3000",
"^  c #D63A00",
"/  c #DB3C00",
"(  c #CD2B10",
")  c #DB3413",
"_  c #E32302",
"`  c #EC2302",
"'  c #E42C01",
"]  c #EC2B02",
"[  c #ED240A",
"{  c #EE2A0A",
"}  c #E3270E",
"|  c #F32404",
" . c #FD2302",
".. c #F42A02",
"X. c #FE2A05",
"o. c #F42608",
"O. c #FA2308",
"+. c #F52D0A",
"@. c #FD2C0A",
"#. c #E53102",
"$. c #EB3301",
"%. c #E43C00",
"&. c #EB3A02",
"*. c #EE3309",
"=. c #EC3E08",
"-. c #F33301",
";. c #FB3400",
":. c #F43B01",
">. c #FA3E00",
",. c #F4340D",
"<. c #FE340C",
"1. c #F73A0A",
"2. c #FD390C",
"3. c #E62B14",
"4. c #E23412",
"5. c #ED3312",
"6. c #E93816",
"7. c #F63411",
"8. c #FB3511",
"9. c #F63915",
"0. c #FE3B12",
"q. c #F8351B",
"w. c #EB4200",
"e. c #E04A00",
"r. c #EB4D00",
"t. c #F24302",
"y. c #FA4501",
"u. c #F44E01",
"i. c #FA4D03",
"p. c #F4430C",
"a. c #FE460D",
"s. c #FC4C09",
"d. c #F24C0F",
"f. c #EB5401",
"g. c #F45403",
"h. c #FA5401",
"j. c #F45C01",
"k. c #F95C02",
"l. c #FC520B",
"z. c #F95B0C",
"x. c #FF4417",
"c. c #FA4D14",
"v. c #FE441A",
"b. c #F74C1A",
"n. c #FD491D",
"m. c #FE4A1D",
"M. c #F54919",
"N. c #F75411",
"B. c #FF5316",
"V. c #FD5F15",
"C. c #FF551C",
"Z. c #FE5D1D",
"A. c #EF6202",
"S. c #F46404",
"D. c #FA6605",
"F. c #FE6502",
"G. c #F76A03",
"H. c #FA6D02",
"J. c #FB630D",
"K. c #FC6B0D",
"L. c #FC7401",
"P. c #F67F00",
"I. c #FC7D01",
"U. c #F77109",
"Y. c #FB730C",
"T. c #FD6513",
"R. c #FD6B13",
"E. c #FE651A",
"W. c #F5681D",
"Q. c #FD6C1C",
"!. c #FD7514",
"~. c #FE7B14",
"^. c #FF731C",
"/. c #FF7C1C",
"(. c #FE4C21",
"). c #F65321",
"_. c #FF5323",
"`. c #FE5A24",
"'. c #FF522D",
"]. c #FF5C2A",
"[. c #FF6424",
"{. c #FF6C24",
"}. c #FF632B",
"|. c #FF6929",
" X c #FF7423",
".X c #FF7B23",
"XX c #FF732A",
"oX c #FD8203",
"OX c #F78902",
"+X c #FC8C02",
"@X c #FE8B0B",
"#X c #FD850D",
"$X c #FD9300",
"%X c #FF9A02",
"&X c #FE9C03",
"*X c #FF910C",
"=X c #FF9D0C",
"-X c #FE8514",
";X c #FF8B14",
":X c #FE811B",
">X c #FF8919",
",X c #FF9214",
"<X c #FFA302",
"1X c #FFAC00",
"2X c #FFA30A",
"3X c #FFB400",
"4X c #FFB800",
"5X c #FFA013",
"6X c #FF8425",
/* pixels */
"D +.0.I I D c v  .0.<.H c B C V b E W C &.w.E :.%X1X&XK.G.y. ._ E n a b k b V F I I  .U F 0.+.F I D l c X.0.@.H c B F B ",
"B I 0.@. .,.q.+.U <.{ l l B V a n p r V B C Y A.D.;XW.W.S.i.U ..Z k B B v m.0.L  .G H G V | 0.X.U H K H U <.+.V V B V r ",
"r n Z I @.`.>X}.m.x.C q n D B t n a e V Q %.W %.D.s.l.1XoXI G H I U B k c 9.0.I b e w w b F +. .@.C.E.n.<.<.B e n V B 2 ",
"r e r b H x.^.b.(.m.{ V F V k q E d j V _ l.`.+X3Xh.<.g.t.U H D U I B l n D G b r a r n r w r B o.[.;X}._._.W k G D k t ",
"r a B n k B N e 8 r o. .U G r b ' m R A B O.0.F.j.` _ &.D U @.v.+.v l B V r 9 r r q w a a b n k c [ 3.A a } @.U I V r r ",
"r r r w 1 : = 8 8 , 9 C X. .n B r ( |.4.c V F L G n f.j.Z I | 2.<.X.J H B p a k k B V k r r n e < , , < , 1 B  .<.I r c ",
"V w 1 1 w 1 % 2 e 8 w 8 b G I n a a m C V c B a M b n G z D v F m.}.<.D G 9 q e e B B B n w 8 2 0 : $ q q 2 8 e | I G n ",
"G q % - 2 9 1 = * * 1 0 0 a B r y a a E a n b a b n n k G D -.Q.[./.`.o.D m r 9 r k b X.G 8 $ > 0 8 = > 2 1 9 0 q n H p ",
"_ 9 2 % $ > 1 * + O > a r 0 r B q 8 a q q c m E M r 8 ` `.(.C..X>X1X2X_.] L.e., r b k  .Z 8 - * * , 2 % o + 1 r 0 r b r ",
"o.2 1 # O * * 1 : + : w 0 - 8 a B r q w B V n r r r k O.9.7.i.U.-X@X#X[.p.&.E b o.V V X._ 2 0 + + * = - $ O 2 k w 1 r n ",
"0.W : $ % = 0 a 0 = # % @ + > 2 b J B r w q 0 q r H U -.u.v  .y.a.T.[.:X3X%.x ` +.H H @.0.d & # $ = 0 w 2 % $ = $ $ , 0 ",
"| G r 1 = = 2 q 1 + o > ; # : 8 B 2.G 8 0 1 8 < q V F >.j.C F  .X.J.:X{.Y.Q v z z D H I +.o.w : * = w r 1 $ O - * + > 8 ",
"..r a e 2 - * * * O o * : * $ * q k r 9 e b r k c k D U I I I  . .X.a.} V V G h.h.y.K.R.G r a e 1 : : : * X O 1 1 % * 1 ",
"| r 9 q > % > = # $ @ 5 i :   $ 2 6 0 q q 9 0 e l b b  .H n B l B <.B ~ Y.N.L.4X3X+XJ.K.` r q q 2 * - @ $ @ # 4 u * o $ ",
"y.e ; - + % > 1 + O - 2 , : : , 6 u 8 q 1 ; 8 q 2 e b D e w q r V  .a g.~.!.L.<X@XH.$XP...e 1 - o $ 2 - O $ - 0 2 = + : ",
"y.9 & ; * 1 6 4 > 2 - > 0 q w 9 1 2 w 8 , 1 : 2 1 0 a n B q 2 2 n H V C.&X&X&X:X X=X3X1Xy.8 = : * 1 u 5 & * : ; 1 2 9 9 ",
":.l y y : * > = 1 9 2 q r a 9 > 2 q 0 w 9 1 > > 8 b a e r p e I B q V T.1X1X&X/..XoX&XOX] r 8 1 % : > * 2 w 1 8 r r 8 1 ",
"Y.;.U  .Z q k B b r r r y e 9 0 q q r r r 2 2 8 0 a q 9 2 p m B b e B T.-XL.J.R.z. .h.!.j. . .I p 1 q r 8 8 e e p p 9 > ",
"T.| U  .G V c n X.U V V 9 q q q 5 1 i p w i u t 8 q q p y u 0 2 8 B I s.!.J.{ 0.@.P z.6XJ.X.U  .D B B V | Z n n 9 q r r ",
"{.G H  .<.O.H k D  .I B 9 r 2 = * 5 g p p d d t 8 r a q e q 2 8 r  .I r Y #.D <.l.;. .l.V.S I O.+.H B r U U I B 9 w 2 1 ",
"[.Q.v.0.0. .U <.z.S.h.G e e : $ $ > i s g f i w q q e w q r r r k D k A A r G o.OXP.@.n.[.b.8.<.0. .U ` :.y.>.B e e & @ ",
"[.XX(._.m.@.8..X<X<X+X..j l e 0 2 q p p g f u q e r r l n r e a r a r E C r q q n n D v.|.XXv.(.0. .X.Q.@X$XL.H e r 1 - ",
"X.<.`.`.x.0.0.B.=X;X~.B.5.I D B r 2 i 2 6 g u > 2 8 r r r p 1 0 p 9 w q q w 1 : 8 w | @.c.Z.`.`.x.v.v.^.<X2X#X*.V D n n ",
"@.@.0.].,.H ` o. X X X}.}.0.I V r 2 < ; 2 7 3 $ $ = 8 e q r > - : 6 q y s p u p 2 k U U U X.m.].<.` U <.6X/. X}.].0.F c ",
"k.a.x.[.7.+.p.!.^.[..Xz.7.H D F n w y 1 = > = > O o > e q q 0 : 7 g u t d d d 0 2 B G g.a.<.0.].o.` $.c.|.[..X`.m.o.I H ",
"Y.1X;X{.[.[. X=X1X~.K. .G Q W n l q p w 2 % # $ + # * 2 p b B > $ 7 3 t a p w b Z B n w.P.+X^.[.m.c. X&X%X^.!.;.H _ Z V ",
"q./.;X.X X.X X:X/..XT.:.E E W r n k C m b y = O $ * 1 i t r > - & * * q 9 8 k D D V D x x.2X;X X|..X.X;X,X/.h.H C Q W k ",
"!.>X;X/.[.{..X1X~.[.=X!.G n r r c G Q Z B m d 2 1 0 n W 0 , 1 2 q 2 2 9 r b n F | O.a.!.K.>X;X.X[. X/.2X^.^.=XV.V B r r ",
"2X<X3XR.'.}.^.#XE.V.&Xp.H W E _ D D n b b a n a q a b n 8 0 0 2 1 & 1 2 e B B H I X.l.=X2X<X1XT.'.}.^.#XZ.E.&X1.H E W W ",
"V. X>Xl.x.8.X.U 9.x.+.| H V B V _ ` ' Q E a e a m M M B 0 < 0 - : $ # > > 8 V D D H D ;.E..X>Xa.x.8.X.U 0.0...| H V B V ",
"h.!. XZ.8.U U H G {..X<. . .G w a d m Q 2.{ E E M m n M r r 2 @ ; 9 O % * = 0 r V U @.@.h.~. XC.<.U U H Z  X X@. .U B w ",
" .$.1.<.X.I I U B b.).o.F I  .I B M a Q 2.a.1.9.p.f.#._ M a 8 ; 6 2 1 * * 0 q q c V o.<. .&.1.<.X.F I U A B.b.[ F  . .I ",
"I L D D c k V D V F V D I I D B Z Z E W #.$.a.].m.F.<.@.| c r r a p y 8 8 w q B I D H  .U L D D B k V V V F v F I H D C ",
"H <.+.D H B k k K +.X.I V B C n M Q Q M t.%.&.<.I.oXoXi.i...H Z E B a r q q n H I |  .U F <.o.D D B b k ` @.X.F V B V n ",
"v [ 0.X.U | K D  .<.1.V B B V b a a b Z C Q T u.oX2X;X^.G.h.X...C r n B v 6.+.F U H I I v +.0. .U H V F X.<.<.D B B D b ",
"k D | X.X._.Q.x.@.<.Z 9 b V V q n a 9 V C T T r.J.Q.B./.K.I H H H H B n v n.x.U V e r r n I <.X.O.n._.9.U <.G r n V V 0 ",
"r e r l I C.,X}.'.`.W k D D k 0 M d b D ' h.d.A.$Xh.2.+XH.U G D U  .n l n H o.C e b r r r r n D @.[.=X}._.m.C e V D l t ",
"r a n b c [ 3.A a W @. .I V r a ' m k n V 8.C.<X<X-.F D D H O.+.O.V c B c l w r r e q b a r r b D 0.b.5.4.8.+.F F V r y ",
"r r n r < 2 , < < , b | X. .b n b ( ].) c H I X.] v f.S._ U X.n.<.H B D B a r r r k n r a a B k e r 9 8 , 8 ` X.X.H e B ",
"B q 8 2 8 : $ 0 e 2 8 q Z I I n a m ) C V B V n C b ~ ] c D D F 0.C.<.F Z w e r r V D l b w q 8 1 = % 9 0 2 9 n X.U V n ",
"G w = - 9 8 > : 1 : 0 8 0 n G a a a a W n n k w a n l l v v H N.}.XXv.H D w 9 9 r k b  .Z 9 & , q 2 * 2 0 < w 8 k Z I p ",
"J q : * * 2 2 * O O : e q e a k 8 0 a d q l M W C a e Z v.9.B..X~.&X,Xn._ j.^ < e b k  .Z 8 $ = - 8 2 % # % 1 q 8 r l r ",
"` 2 0 $ O * * : * O 1 k e , w n n e w 9 n V n a b w 9 O.(.(.s.!.>X<X&X].,.g./ 9 Z B B  .W 8 0 # + = : * O O 2 b r 2 a B ",
"8.m & $ $ = 2 e 8 % $ = % @ > 0 l n k a k b r q a V I ..$.D ;.k.J.T.[./.$X#.z | <.H H <.8.2 - + $ * , 0 > $ = 2 : % 1 e ",
"@.o.q - * = 9 r 2 $ O - - O > 8 B 0.D 8 8 ; 2 2 w G F t.H.C I  .X.R..X.X<X%.c c v D D I 0.| 2 * * = r r 8 * O % $ + 1 2 ",
"` k a w 1 : - = *   o = - % * : r Z n 9 q r w r k n H  .` F H  . .;.V.M.K B V | ` ..g.s.D n r 0 : - 1 2 * o o 2 ; $ - 2 ",
"..k e r 2 * : % % $ + 3 u = o $ 2 8 q 9 w b w r B k n U U G H V Z <.K M f.=.j.<X1XoXR.!.` r r e 2 = = % * + o - 7 * + % ",
"-.e ; ; # $ > : O + = 0 2 - # - t 7 8 q 1 > 8 9 q r b I r q e p B  .r f./.R.L.1X<XL.P.D.` r < < % $ 1 * + $ & t q * o * ",
"i.e : > % > 6 5 - - = ; 2 2 q 9 1 0 w 8 1 1 1 0 , 0 b l k r 8 8 V  .n x.@X$X+X;X/.@X1X<Xy.9 : & @ - 2 5 $ @ - , 1 > 2 8 ",
"..e : > * : 1 * 1 r 1 2 e r 9 2 1 2 q 9 2 1 * ; 2 r a r B q 0 b k k G Q.3X<X<X/..X&X1X%X$.8 : 2 * 1 7 > 1 0 > 1 q e 9 8 "
};
