/* XPM */
static char *_b836d997ac54551b11aaeb4b4fdaeaeCJOMvoWHhtGQuYiK[] = {
/* columns rows colors chars-per-pixel */
"64 64 217 2 ",
"   c None",
".  c #010203",
"X  c #030609",
"o  c #050A0D",
"O  c #0B0C0C",
"+  c #090807",
"@  c #060D13",
"#  c #0A0F13",
"$  c #0B1114",
"%  c #07111A",
"&  c #0B141B",
"*  c #0B141A",
"=  c #121414",
"-  c #13191C",
";  c #17191A",
":  c #100F0E",
">  c #0A1621",
",  c #0D1A25",
"<  c #0F1E2C",
"1  c #131D24",
"2  c #121F2A",
"3  c #1B1F21",
"4  c #0F202E",
"5  c #12212D",
"6  c #1A252B",
"7  c #1C2428",
"8  c #0E2031",
"9  c #122433",
"0  c #1B2934",
"q  c #132638",
"w  c #14293C",
"e  c #1B2D3B",
"r  c #182833",
"t  c #1E323E",
"y  c #252829",
"u  c #242D34",
"i  c #202F39",
"p  c #2B3234",
"a  c #23313B",
"s  c #2B353B",
"d  c #2A353A",
"f  c #343738",
"g  c #34312B",
"h  c #44413E",
"j  c #162D42",
"k  c #1A2F40",
"l  c #1C3245",
"z  c #19344C",
"x  c #163048",
"c  c #1B3751",
"v  c #1C3953",
"b  c #1E3D5A",
"n  c #233644",
"m  c #263946",
"M  c #2C3B43",
"N  c #253B4C",
"B  c #2A3E4B",
"V  c #253745",
"C  c #323E45",
"Z  c #373F45",
"A  c #233D54",
"S  c #283F51",
"D  c #1F405E",
"F  c #2F414D",
"G  c #33434C",
"H  c #3B4549",
"J  c #2C4354",
"K  c #22405D",
"L  c #2C4759",
"P  c #2E485B",
"I  c #314655",
"U  c #324B5B",
"Y  c #3B4E5A",
"T  c #364954",
"R  c #3C515B",
"E  c #224464",
"W  c #234768",
"Q  c #24496B",
"!  c #2A4D6C",
"~  c #344F61",
"^  c #365264",
"/  c #3B5464",
"(  c #3C5768",
")  c #3E5A6C",
"_  c #365567",
"`  c #29537A",
"'  c #3A5B7A",
"]  c #274F73",
"[  c #474B4B",
"{  c #58544E",
"}  c #444E52",
"|  c #435156",
" . c #43535B",
".. c #4B5355",
"X. c #555857",
"o. c #665E51",
"O. c #64625C",
"+. c #71675E",
"@. c #4B5C63",
"#. c #435C6C",
"$. c #4C5E69",
"%. c #425865",
"&. c #425F71",
"*. c #4D616B",
"=. c #576569",
"-. c #456274",
";. c #4A6574",
":. c #496779",
">. c #4C6A7B",
",. c #476878",
"<. c #556A75",
"1. c #536D7C",
"2. c #5C6D73",
"3. c #59727D",
"4. c #4A717D",
"5. c #696A67",
"6. c #756E61",
"7. c #6A7476",
"8. c #797C7A",
"9. c #70716F",
"0. c #827A6B",
"q. c #7E807C",
"w. c #8B8477",
"e. c #908879",
"r. c #2B5881",
"t. c #4F6E81",
"y. c #506F81",
"u. c #557384",
"i. c #5A7685",
"p. c #5B7A8B",
"a. c #577789",
"s. c #5D7E90",
"d. c #647B85",
"f. c #627D8B",
"g. c #687C85",
"h. c #607F90",
"j. c #3F8890",
"k. c #5D8093",
"l. c #64828D",
"z. c #758488",
"x. c #638394",
"c. c #6A8795",
"v. c #6C8B9C",
"b. c #668998",
"n. c #728E9B",
"m. c #7A919A",
"M. c #76949B",
"N. c #6E8FA0",
"B. c #6E93A2",
"V. c #6690A1",
"C. c #7493A3",
"Z. c #7996A4",
"A. c #7999A6",
"S. c #7C9CAB",
"D. c #759BA8",
"F. c #4DAAB0",
"G. c #7CA7B3",
"H. c #78A2AD",
"J. c #6BB5C2",
"K. c #878887",
"L. c #928D85",
"P. c #9E998E",
"I. c #A69B89",
"U. c #ACA599",
"Y. c #B4AB9C",
"T. c #829BA4",
"R. c #829FAB",
"E. c #83A0AD",
"W. c #83A4B3",
"Q. c #89A7B3",
"!. c #89A9B7",
"~. c #8BACBA",
"^. c #84AAB9",
"/. c #95ADB5",
"(. c #89B3BE",
"). c #92B1BD",
"_. c #9AB2BA",
"`. c #A0A4A5",
"'. c #B9B1A2",
"]. c #ACB4B2",
"[. c #C3B9A8",
"{. c #D4CBBC",
"}. c #8CB9C3",
"|. c #8EB1C1",
" X c #93B5C3",
".X c #9DBBC5",
"XX c #9BBDCA",
"oX c #97BAC6",
"OX c #A4BDC6",
"+X c #9EC2D1",
"@X c #96C1CA",
"#X c #A1C2CE",
"$X c #ABC4CA",
"%X c #A2C5D3",
"&X c #ADCAD3",
"*X c #ABCEDC",
"=X c #A5CCD7",
"-X c #B7CED6",
";X c #AED1DE",
":X c #B5D2DB",
">X c #BAD5DC",
",X c #BBCBCC",
"<X c #AED3E1",
"1X c #B2D6E2",
"2X c #B4D9E4",
"3X c #B9DDE9",
"4X c #BCE0E8",
"5X c #BEE4F2",
"6X c #C7D6DA",
"7X c #CAD3D5",
"8X c #C4DDE5",
"9X c #C5E3EA",
"0X c #C4EBF9",
"qX c #C7EAF5",
"wX c #D1EFF6",
"eX c #D8F6FD",
"rX c #E9F1F3",
/* pixels */
"                                          .                                                                                     ",
"                                          u |                                                                                   ",
"                                          H ).p                                                                                 ",
"                                          C W.g.;                                                                               ",
"                                            $.m.;                                                                               ",
"                                            %.p                                                                                 ",
"                                            %.u                                                                                 ",
"                                  # @       $.p     .                                                                           ",
"                                o V 1       =.@.    # -                                                                         ",
"                                C W.u . * X <.*Xy   Z G                                                                         ",
"                                @.*X&.- T & y.*XH   a u.6                                                                       ",
"                                Z XXE.a f.N >.*X#X1 U :.3                                                                       ",
"                                  g.|./ R.( >.oX&XM ( L *                                                                       ",
"                                M S.N.a.|.i.u. X2XXX-.U 6                                                                       ",
"                                $ i. XoXS.W.N.S.XX%X-.p.s                                                                       ",
"                                . X  .W.%XXX^.N..XoXD.<XH                                                                       ",
"                                [ [ r M s k.=X(.W.v.!.l.p =.2.3 3                                                               ",
"                    C [ |  .    z.X.7.1.t F.F.R *.*.U j.M..X>X7X6X8.                                                            ",
"                T %.p.|.2X^.<.z.=.s ;.x.T.4.G.) . O ,.G.p m._.-XrXrX`.K.K.f .                                                   ",
"              C h.N.N.|.|.S.~.<X3.; Y -._.M.u . . . ; z.p 7 p q.7X9X_.p f                                                       ",
"            1 ;.E.|..XOX*X5XXXW.(.=.d.C.c.v.| . . . T [ 1 I / g.K.7.T...# #                                                     ",
"            G C.h.S.W.~.|.XX0X<X=X:XR *.Q.).Q.y . 3 m.H @ 1 k g.].f.| =.`.7X9.[ H                                               ",
"          $ -.C.h.&.&.h.W. X<X3XC.!.G - 0 R E.p . y @.o , & > g.OXS.&X$X7.].-XK.[ .                                             ",
"          7 v.C.C.Z.S.n.N.|.XXXXv.!.p.<.f.<...= o 0 C @ 0 - # $.&XW.8X,Xs 2.7.                                                  ",
"          = %.u.v.x.:.y.S.W.Z.p.p.B.b.~.%X*X*X1.U S e B $.n.&.h.R.c.6X&Xm d 2.                                                  ",
"            a C.b.A.y.v.S.h.Z.|.v.1.S.2X0X0X0X3X!. .B h.1X5XS.&.h.y..X/.=                                                       ",
"          * ~ ) / #.y.b.p.t.s.!.C.u. X5X0X5X0X0X8X+.h R.0X0XXX&.R.y.n.c.-                                                       ",
"            x b j q q V I / n &.p.C. X%X5X0X0X0X;X%.n Q.0X0X1Xc.( &.a.&.e                                                       ",
"          j W A Q D j j & $ S t.x.Z.!.|.XX2X1X1X!.~ N v.*X1XoXS.M r L v 2                                                       ",
"        % ] ` r.E z Q l > B / p.h.x.C.D.!.~..XR.>.I N #.v.W.S.h.a 2 l v z %                                                     ",
"      . K ] ` ` ! ! S & 1 S ^ #.y.y.y.u.y.i.i.^ ( k r ~ ~ u.>.I 3 s f v E >                                                     ",
"      j b E S A n f y X & $ l B S A U ^ P P #.:.I $ X a &.( I 2 ; V a l E z @                                                   ",
"    . q l R p.:.B e o < < X X l ~ ~ ^ &.;.&.:.V @ , < % 6 ( J 2 - e l n A ! 2                                                   ",
"      @ Y A.oX+X X%.f 1 < o . - N V B U J r 9 & n Z.A.#.> 2 * > @ u X./ y.-.A o                                                 ",
"      . d.~.v.~.*XC.*.g < o o . . . % 2 2 < q /  X~.N.W.U > X - @ h 5.( :.v.p.O                                                 ",
"      . d.).b. XoX%X;.@ 8 o r 1 1 2 a S L J ( %XXXA.s.C./ S / i % > & V ) u.Q.n                                                 ",
"      X *.S.!.XXXX;X6 < 4 @ r l L u.^.R.oXXXh.Z.1.:.b.a.I !.oXi % < # r J ) v.^ @                                               ",
"  o     $ A. X X3X<X$ < < @ r N &.N.v. X~.N.>.y.c.p.C.a.S Z.|.e @ < , # M %.:.^ q .                                             ",
"* ;.M   $ R.A.).2X~.$ 2 < @ 5 N U >.:.A.p.>./ i.C.N.b.x.U / y.0 & 8 , $ y V U N z 9                                             ",
"O M U F $ G :.p.c.u.o > < 2 X * 2 L ;.L U :.&.L #.c.a.1.N V 1 X , < % 2 e J -.:.P c &                                           ",
"    $ t a d f.b.:.6   o 4 , 1 5 V &.i @ # 1 n N l B n l & # 1 n i , o e 2 2 -.u.Y 9 b < #                                       ",
"        # Z.#X+Xu.1 . # 4 & s U ( J S M # . 2 A z z l A & 2 ^ / I 1 % 1 @ @ r e 1 > j v b q ,                                   ",
"        + B %.^ 5 m B B 2 < @ B c.$X&X.Xf.o < ! A W E ! e w S &.^ * < < , , # 2 @ < < 9 w b v z , @ @                           ",
"          X * 9 m -.( :.:.^ l %.wX&XoX5.[ g e ' ! W W ' n e / U / M , x q < % # < < < < < 4 8 w z b v j                         ",
"              @ $ - L ;.p.x.>.B y.%.%.OX,X7.w r.! W E ' G u e U U 0 q j z q 9 < < < 4 < 5 < < < < w v W v >                     ",
"                  * N N A ( &.J S N .XeX$X3 l &.W b A A y u u e * @ j z j j z j q < < 4 < < 4 < 4 < 5 q v E <                   ",
"          o 6 5 5 5 m D.l.Y e N V S i.>X>Xg.~ t.A x A 2 . % J *.5 - , z z j w w x j w 8 < < < < < < < < 9 b W q                 ",
"          o 2 2 $ O $X4Xl.T.2.y.u.i.y.&.i. XXX8Xv.p.x.2.; G C.M.x. X@.2 z c z w q q j j 9 < < < 4 4 < < < j D E q @             ",
"                    eX_.1.A.>X4X2XXX}.D.b._ 3.c.D.9X9XwX..c.Z.k.l.).).$ 9 x c c z x q 8 < 4 5 4 < < 4 < < < j W D w @           ",
"                      7.| >.c.3XOXu.b.(.C.oXb._ U -.-.A.>X9X#Xv.b. XZ.# < 5 j c v c z z w 9 q z w 4 8 2 < 5 < j W b j X         ",
"                        7 #.f.).R.n.M...0 E.4XG.b.) ^ U f.A.9X:X.X.XH , q < < w c c c c c z x w w j w < < < < w E E c <         ",
"                      ; +.f n I U 1.[ . X / 6X4X=X(.B.4.4.^ -.M.9XwX$X^ x q < < q x z c c c c c z j z j 8 < < < z W W c q @     ",
"                      { '.H ^ ,.J =.Y.{ X % R f.i.a.V.(.@XB.V.4.f.E.9X:XE.;.l < < 4 9 z c c c c c z 9 j z 8 5 < j W W b b 9     ",
"                    ; 6.X.I u.p.J 7.'.6.+   % , 4 8 5 X.M.D.G.}.G.G.b.C.&X:X:X>.F , < 9 x c c c c c j q z 9 < < < v W W b b %   ",
"                    O 7 N &.>.>.;.S f :     % 5 4 > * { w.O.T b.D.(.}.^.b.A.Q.9X:XM.Y , 8 z c c c c z q j q < < < v Q W W Q ,   ",
"                      = U >.p.a.:.I K.6.+   X * 4 % g Y.'.I.5.J >.k.;.B.H.G.G.@X=XqX>X;.F q z c c c c j j 9 < < < v Q W W Q b # ",
"                    = o.X.L :.:.S 8.I.0.+     . , , y e.{.L...N &._ o 4 w -.k.G.}.}.=X:X3X<.w c c c c c w < < < 9 b W W W E E @ ",
"                    g '.{ L :.U H P.Y.f       . > < # y O.X.{ C U ^ F @ 4 j v _ ! a.G.H.=X9XM.A c c c c w 4 < < z W W W W b E @ ",
"                    y 9.s B ^ J f [ ;           X o y 6.w.Y.Y.O.N F P.{ % q c c c v e q 4.l.m.( c c c c x 5 < w E Q Q W E z b @ ",
"                  : 6.U.w.C m 5.U.'.0.=             g w.U.I.[.e.8.w.U.e.o 4 q c v v z 9 , 4 , w x j j j q < w b v v W Q b w j @ ",
"                  O o.w.H 2 < M 5.8.O.=               + G 7.K.8.K.K.C V , * 4 x 9 < j q < < < 8 @ X X X # q v 9 X X q w w < < X ",
"                    : Y J l n / ^ e #                 . n J n n l L -.L ( ^ * @     @ , , , < & X         % %           o o @   ",
"                    o J u.&.u.:.m 0 *                   r ~ p.:.N :.x.a.p.k.7           X . . X                                 ",
"                      # 0 6 u 2                                                                                                 "
};
