/* XPM */
static char *_d94e84e5767447bcc5fac26a9e9ee52NnFdBRTA3XrghnDc[] = {
/* columns rows colors chars-per-pixel */
"64 64 225 2 ",
"   c #06080A",
".  c #070C11",
"X  c #0D1419",
"o  c #0C151D",
"O  c #13181A",
"+  c #1B1E1C",
"@  c #23231C",
"#  c #29271C",
"$  c #2C2A1E",
"%  c #0C1720",
"&  c #0D1924",
"*  c #0F1E2C",
"=  c #121C24",
"-  c #141F28",
";  c #0F202E",
":  c #1C2224",
">  c #14222C",
",  c #1B252C",
"<  c #1C272D",
"1  c #122433",
"2  c #192731",
"3  c #172837",
"4  c #1C2A34",
"5  c #132739",
"6  c #152A3D",
"7  c #1C2D3B",
"8  c #1D303E",
"9  c #272A26",
"0  c #2D2C21",
"q  c #232A2C",
"w  c #312E22",
"e  c #312F28",
"r  c #2E322D",
"t  c #343124",
"y  c #393527",
"u  c #34332A",
"i  c #3A3729",
"p  c #3D3A2A",
"a  c #232D34",
"s  c #202F39",
"d  c #2B3233",
"f  c #24323C",
"g  c #29353A",
"h  c #2B353A",
"j  c #3B3C33",
"k  c #373B38",
"l  c #343C3D",
"z  c #423D2D",
"x  c #423F39",
"c  c #3B403B",
"v  c #46412F",
"b  c #464231",
"n  c #4A4532",
"m  c #4E4935",
"M  c #43443C",
"N  c #4B4A3D",
"B  c #514B37",
"V  c #534E39",
"C  c #56513C",
"Z  c #5A543E",
"A  c #162D42",
"S  c #192E42",
"D  c #1A3145",
"F  c #193247",
"G  c #1A344B",
"H  c #1B3751",
"J  c #1D3A54",
"K  c #1E3E5B",
"L  c #223543",
"P  c #253946",
"I  c #2A3A44",
"U  c #253B4B",
"Y  c #2A3D4B",
"T  c #333E41",
"R  c #223C53",
"E  c #233F57",
"W  c #1F405E",
"Q  c #2D414E",
"!  c #34434B",
"~  c #3A4649",
"^  c #2D4453",
"/  c #23425C",
"(  c #2A445A",
")  c #324552",
"_  c #364A57",
"`  c #3C4C54",
"'  c #334B5B",
"]  c #3C505D",
"[  c #224565",
"{  c #264967",
"}  c #344F63",
"|  c #3B5363",
" . c #385466",
".. c #3E596A",
"X. c #2E5274",
"o. c #464B45",
"O. c #4D5148",
"+. c #5C5641",
"@. c #5E5942",
"#. c #575649",
"$. c #424D53",
"%. c #43545D",
"&. c #4A5558",
"*. c #555958",
"=. c #625C44",
"-. c #635F48",
";. c #625D53",
":. c #5C6059",
">. c #676047",
",. c #676249",
"<. c #6A6349",
"1. c #6F684D",
"2. c #716A4E",
"3. c #666355",
"4. c #756D51",
"5. c #706A5F",
"6. c #7A7254",
"7. c #797356",
"8. c #7D7658",
"9. c #475A64",
"0. c #435C6B",
"q. c #545F62",
"w. c #425E71",
"e. c #4C626C",
"r. c #566468",
"t. c #456273",
"y. c #4A6575",
"u. c #4C6877",
"i. c #4D6B7C",
"p. c #576B74",
"a. c #546D7B",
"s. c #4C7079",
"d. c #59717B",
"f. c #676A67",
"g. c #6E6E69",
"h. c #7B776D",
"j. c #677578",
"k. c #7A7B76",
"l. c #847C5C",
"z. c #887F5F",
"x. c #827E76",
"c. c #7E817C",
"v. c #89815F",
"b. c #8C8462",
"n. c #80826C",
"m. c #908764",
"M. c #938A66",
"N. c #978E69",
"B. c #988F69",
"V. c #9C936C",
"C. c #85827A",
"Z. c #938B7E",
"A. c #A0966E",
"S. c #A49A6F",
"D. c #A19770",
"F. c #A59B71",
"G. c #AA9F73",
"H. c #ADA275",
"J. c #B1A577",
"K. c #B2A678",
"L. c #B6AA7A",
"P. c #B9AD7D",
"I. c #4F6E80",
"U. c #526F81",
"Y. c #547283",
"T. c #5B7683",
"R. c #597788",
"E. c #5C7B8B",
"W. c #647B84",
"Q. c #697E86",
"!. c #627D8B",
"~. c #687E8A",
"^. c #598490",
"/. c #64828E",
"(. c #6A818B",
"). c #738489",
"_. c #648393",
"`. c #6A8694",
"'. c #698997",
"]. c #6C8C9C",
"[. c #798E95",
"{. c #718E9D",
"}. c #6C919E",
"|. c #74919E",
" X c #7A959C",
".X c #589BA3",
"XX c #6E92A1",
"oX c #7594A3",
"OX c #7699A6",
"+X c #7B99A6",
"@X c #7B9BAA",
"#X c #7CA1AF",
"$X c #7EA6B2",
"%X c #8E908C",
"&X c #A79E91",
"*X c #BEB280",
"=X c #ABA393",
"-X c #839DA8",
";X c #969FA2",
":X c #83A1AE",
">X c #8CA4AB",
",X c #84A4B3",
"<X c #87A9B6",
"1X c #8CA9B5",
"2X c #8BACBA",
"3X c #92ABB2",
"4X c #94B2BD",
"5X c #9BB2B9",
"6X c #A8AEAD",
"7X c #C5B884",
"8X c #8EB1C0",
"9X c #94B5C3",
"0X c #9ABAC6",
"qX c #99BBC8",
"wX c #A2BEC8",
"eX c #9EC3CE",
"rX c #A6C9D5",
"tX c #ADCDD7",
"yX c #B1CDD6",
"uX c #B4D9E7",
"iX c #BBE2EF",
"pX c #BDE4F1",
"aX c #C1CDCF",
"sX c #D8E2E4",
"dX c #C2E9F7",
/* pixels */
"<.<.@.b p t w n m.v.1.<.=.z w n A.7Xb.-.z w C -.=.m b z w v m.M.1.<.=.n z w z v.B.V.m.2.=.n v z t z v.b.2.=.n v z t p v.b.2.<.>.",
"<.<.Z n z t $ n b.v.<.<.@.z w n D.P.b.,.N k *.#.=.@.n z t z b.H.2.<.=.n z w v v.S.J.b.<.=.n v z t z v.b.2.=.n v z t z b.M.2.<.<.",
"<.>.Z n z t t C B.b.<.<.+.z w b M.V.b.-.N *.Q.O.@.@.n z z t =.H.4.<.=.n z w v v.S.B.6.<.=.n v z t p v.b.2.=.n v z t v S.M.2.<.<.",
"<.=.m v z w v m.L.v.<.=.m z w n b.N.b.-.m 9.'.r.N Z n n z w V S.4.<.=.n z w z B.L.m.<.<.=.n v z w z v.m.2.=.n v y w B G.l.>.<.<.",
"<.@.v z y $ n S.L.6.<.=.v z w n b.N.b.2.V o.p.p.N Z n z z t n v.2.<.=.n z w v B.P.l.<.>.=.n v z t z v.m.2.=.n z t w V H.6.>.<.>.",
"<.Z v z y w n S.J.2.>.Z n z w n b.b.M.l.=.o.$.o.C @.n z z t z z.b.2.Z n z w v V.J.2.<.=.B v v z w z v.v.1.@.n z t y v.P.6.>.<.<.",
"@.B v z t w n A.H.2.=.n v p w v 6.-.6.z.=.o.` l Z C z z z w z B.J.<.B v z w C J.V.2.<.=.v v z y w z l.2.=.B v z w z M.P.6.<.<.<.",
"@.v v z t w V M.m.<.Z n z y w v -.p O.6.=.N $.~ V x @ y z w z A.J.<.v v t z v.*XM.2.<.=.n v z y w n l.1.=.v v y w p M.J.6.>.<.<.",
"Z n v z w v l.m.2.=.B v z t w y o.T k -.C o.q.*.V p + w p w v v.b.V v z w v V.P.m.<.<.=.n v z t p 6.v.<.B v v t w v v.V.2.<.<.>.",
"n v z t w n A.G.2.@.n v z t w t *.T.T j 0 k W.[.M c h ~ t w $ B 2.B v z w B J.V.6.<.<.=.n v z t z v.M.>.v v z t p 6.M.v.2.<.<.<.",
"v v z t t V S.K.2.Z v v p t # u p.:X9.a L f ~.1X&.j ! ] r w # t B n z y t Z L.M.1.<.=.B v v z w z v.v.>.n v y w z v.M.6.<.<.<.<.",
"v z t w v l.H.H.<.B v v z w $ 0 q.1X!.} 0._ !.qX[.h ' ] q $ # $ p v z w p v.*Xb.<.<.=.v v v z t p l.<.B v v t $ y v.M.2.<.<.>.>.",
"z z w w v M.L.M.@.n v z t w $ $ o.|.{.U.!.w.!.qX<X%.| Q : $ $ w t v z w v V.J.l.<.<.=.v v v y t p 2.B v v z t $ y M.P.m.2.<.>.B ",
"z y w $ t =.B.8.B v z y t w t 0 T {.oX~.@XE.!.9XeXOXt.^ < @ $ w w y y w C J.V.2.<.=.B v v z t $ t z v v v t $ $ z M.*XV.2.>.=.n ",
"p w $ t w n 4.V v v p t t i p @ d ~.@X,X<X@XoX<XeX2XR.y.d @ $ p t w w z v.*XM.1.<.=.v v v z t $ w $ z v z t $ w y v.H.J.6.>.B v ",
"t w t p t t z v v z y $ v >.b $ @ ~ U.@X8X8X,X$X9X2X@X|.! 9 t p w $ w n V.7XM.1.<.=.n v v z t $ w w z v y t y t t n M.L.6.=.n v ",
"t y z z t $ w z z z e e x 2.z i k T T 9.e.XX8X$X:XOXOX/.` *.r.V j w i 4.V.L.b.1.=.B v n z y w $ y w t p t $ z z t p l.V.v.>.n y ",
"B >.n v z w w z e d T O.f.*.x o.f.q.e.9. ..X.Xs.e.e.i.^.(.>X6X6X;Xf.M ,.l.b.2.<.=.n z z z t t y z y $ t w w v v y w m v.b.>.v y ",
"v.l.B v z t w u ` 9.R.:X1X'.p.j.q.` y.!.^.^.^._ O < t.E.r.[.5XyXsXaX%Xg.f.#.#.=.B v z n z t y <.n p t w t v <.B z t y l.v.V y $ ",
"G.H.2.n z t 9 ` !.~.oX8X9X,X1X1Xr.I 9.!.:X(.! X   . ~ p.h ! r.;XaXaX;X*.#.6.6.-.n v n z y t n 4.B v z w y 6.v.C v p y B 6.m t w ",
"J.K.<.v z t h a.@X,X8XqXrXrXqX8X Xr.d.`. X(.~     X o.~ a P %.Q.%X%X`.` c <.4.B z v v v w z 6.v.B v z w z v.M.6.B z t p <.v t C ",
"L.M.=.n p e %._.].@X,X8XqXtXuXrXeX+Xr.a.|.+Xj.:   d q.h = 4 ) ~.;X~.d.f.%X%Xg.O.n p p y w z m.v.V v v t z v.V.v.V z z y z t z l.",
"M.4.>.Z t d u.].!.R.E.XX8XqXuXwX<XOX` Q 9.d.j.4 . h $.- o o s ~.4X>X3X>X%X3X;Xg.b # y y w V H.B.6.B z w p v.S.H.<.n v p w y 2.M.",
"l.<.<.+.u ! !.].XX].!.].@X8XqX8XOXoXa.e.a.p.q.< o a h - - - q W.4X5XyX3Xe.j.j.M p w y w y l.P.A.v.B z $ z v.S.J.2.n v z t p v.B.",
"2.<.<.=.p l y._.]._.R.!.@X,X@X].`.].XX,X9XqX-Xy.) P L Y w.a.0.!.@X-XyX3X~ T *.i z z y w n M.S.m.2.n z t z M.L.S.<.n v z t p v.B.",
"<.<.<.Z z 9 ] !.`._.R.].{.].+X+X_._.,XtXpXpXuXqX`.%.` `.qXqX{.T.!.`.5X[.a 9 e z z z w z v.J.M.4.=.n z t p M.*Xm.>.B v v t p v.V.",
"<.>.<.@.y q } ..w.y.I.E.R.R.`.@X].'.9XiXdXdXdXpX0X:.&.>XpXiX8XE._.E.{.T.9 @ 0 z z y y l.P.G.b.2.=.n z t z m.L.v.<.@.v y t v b.*X",
"<.<.<.@.i a J K H U Y } } | | U._.oXqXtXpXdXdXpX9X9.9.1XpXpXqX!.i.y.U.0.a @ w w w w n S.*XM.4.<.=.n z w z v.B.2.<.=.v t y 2.S.7X",
"<.<.<.V r L W W K H A A - s ' i._.OX2XqXrXuXuXtX-X} | oXtXtX9X!.Y U ( R 2 @ w 0 w y v.L.S.6.<.<.=.m z w z v.b.2.<.=.n t p v.S.7X",
"<.<.<.n 7 { X.X.W K R 5 - P 0.R.E.].OX@X<X9X9X@XY.Y E a.+X<X-XU.I 3 U U 6 = # $ $ n V.*Xb.2.<.<.=.n z t p v.b.2.<.=.n w z v.S.7X",
"<.<.Z d R { X.X.{ E L = > Y } y.I.Y.R.R.E.!.!.i.| L L } w.R.I.) a a L R R - # $ y v.L.S.6.>.<.<.=.n z t p v.M.2.<.=.n t y v.S.7X",
"-.=.x f E { { / Y I , X % 2 U E } } X... .0.w...Y = % I 0.w.( a : f L H R 7 : # v M.*XM.1.<.<.<.=.m z w z m.H.6.<.=.n y z v.S.7X",
"<.+.u 7 U 0.i...Q a O % o . & L ( ' } ..| 0.| Y - - & 2 U _ Y - - 7 L R / R > @ z v.G.m.2.>.<.<.=.n z w n B.P.6.>.=.n z y B m.S.",
"<.Z 0 < 0.{.,X,X`.] q = &   . , U U ^ ' ^ P S 5 ) T.U.) 2 2 - % o h $.%.w...L O z v.L.m.2.<.<.<.=.n t y 4.A.P.6.<.=.m z t p l.M.",
"8.<.b h W.@X$XqX9X!.` q & . . . o o > 4 2 1 L 0.oX:XoX!.Y = X o = T *.0.i.!.0.: w =.L.B.2.<.<.<.=.v t z v.S.L.6.<.=.n z y t B z.",
"l.1.V k (.,X@X8XqX:X] > & X & % o > L Y ) ( w.$X2X@X]._. .Y Y < O : a Y w.!.!.h @ z A.L.2.<.<.<.=.v w z v.S.L.6.<.=.B z z t y 8.",
"l.<.V k d.@X<XqXrX:XI & & o 1 7 ) y._.{.@XoX!.oX!.E._.Y.w.`.`.f % & o 7 ' U.E.Y : y m.P.b.<.<.<.=.v w p l.A.L.6.<.=.n v z z t z ",
"l.#.n y $.+X9XeXtX@X, * & o 6 ^ t.'.oX2X1XoXR.E.!.!.'.i.0.oX{.L % % % > Y 9.y.} 2 @ @.L.B.2.<.=.B v t w B m.V.2.<.=.n v v v t # ",
"O.$.c 9 l |.:X0XrX`.> * & % 1 U 0.Y.E.oX!.U.w.Y.].].'.U.| i.w.a % > % O a ! } / S > i M.L.b.<.=.n z t # p v.v.2.<.=.m v v z y # ",
"o.! Q a a 0.E.].|.r.= % - o o > L  .0. ...w.....I.!.R.w.Y Y a % & & % = 7 E ..9.( 6 9 Z H.B.l.C n z t # p v.V.v.2.>.n v v z t w ",
"8.#.d a a ] /.^.e.~ p o ; & : > U ' P > > f Y E Y } _ P - - = 7 3 % o 1 > L 0.w.( A 7 a #.6.4.m v v t # i b.K.B.2.=.B v z y y V ",
">.4.c : l /.>XoX..l j o & > s Q } | ) a O   5 U H F H L % 2 E ' P = o = % & L U 2 * F F L I d e i i t # t C D.H.6.=.n v z t y 6.",
"m 1.n w q 9.s.y.Q g Q 7 > ; 2 ] `.-X-X).` o 4 ( / E [ ( 3 S ' 0.Y - & * % % % = % & 1 S A G F 4 q : 9 # 0 p M.7Xm.>.n v z w z l.",
"i v v p @ = 4 s P _ ] 0.] Q F a.wXwX3X).*.a L X.{ { { { P L E %.' 7 ; 5 ; * o o & * * * 1 5 6 A 3 F 8 a 9 i M.P.B.-.n v z t v l.",
"w w z y # @ 9 9 , f } t.U.i.| 0.~.W.).;X%X&.R X.X.[ { } Y f U ^ ^ s 3 A A 1 * * * ; ; * ; * ; 1 1 A H J F 9 4.A.v.C v z y y 1.M.",
"y w $ y w w n p O > Y ] 0.w...' } 0.1XuX>X~ Y X.{ E E R a a a L > = 3 F A A A 1 1 ; ; ; * ; * * > 1 6 F H G l 1.l.B v z w z l.B.",
"=.w $ w @ 9 d a : , ] R.u.} Y Y R  .+XyX5Xe...w.{ E E 2 X , ! _ 2 - 1 F F A A A A 6 1 ; ; * * ; ; * ; 1 A J G ~ @.n z p w z l.B.",
"4.p $ $ @ + , , : l ).3X`.W.y.u.u.a.E.`.oX-X,X,XR.U.a.$.: ! E.E.Y.W.` 6 F G F A A 6 A 1 ; ; ; * * ; * ; 1 G / R h u y y w v z.B.",
"l.B w $ $ y +.-.m :.5X>X/.+X5XeX9X$XoX`.^.!.|.@X@X0XwX>Xr.W.}.'.|.1XW., 5 F G G F A 6 1 ; ; ; 1 ; ; ; * ; 1 G W H 3 9 0 i 6.J.V.",
"2.Z y # x 4.B.F.6.#.k.j.e./.1XyX0X+X@X@XXXXX/.i.d._.|.1X5XwX1X|.oX2XW.> * 5 F H H G F A 6 1 1 6 1 > ; ; ; ; 1 H W H 2 + i m.7XD.",
">.=.z $ n m.A.K.V.B p k $.e.'.4X-X~.~.q.e.>X9X}.R.t.0.Y.OX4XrX0X9X<X9., * ; 1 S G H H H F F A A 6 6 1 ; ; ; ; A W W G * 9 b.*XD.",
"<.>.V w n z.N.G.K.Z w u O.` ] y.y.T.9.9 < !.rXeX<X}.^.i.s.T.{.<XyXyX X' G 5 > 1 6 F G H H G G F F A A 6 ; ; ; 1 H [ W F a ,.B.N.",
"<.<.@.z y @.m.G.H.=.j ;.h.` ]  .} f.h.x X I W.|.'._.}.OX|.^.^.'.:XeXrX>X/.| L 1 ; 1 A G H H H H G F A A 6 ; * ; F [ [ K G T 1.b.",
"<.<.@.z w n b.G.H.Z j 3.f. .u.t.%.k.%X#.z j a L G Q %.j. XOXOXOXOX:X<X3X4X1X{.0.U 1 1 6 F H H H H G 5 A F 1 ; ; 5 K [ [ K G c 4.",
"<.<.=.n y n v.A.G.l.u l ' ..i.i.0.%.*.N 2.+.= % * & q *.c.j.d.}.$X$X$X$X$X2X4X4X-Xp.^ 1 3 G H H H H F A A 1 ; ; * H { [ [ E f -.",
">.<.-.C z y =.m.G.V.p q ' u.Y.U.0.%.3.#.-.l.e = & & M %X=XC.r.t.E._.^.].}.$X2XrXtXrX-X9.Q F G J H H G A A ; ; ; 1 J [ { { [ G d ",
"<.<.=.=.z w n m.G.B.m o.&.0.i.t.9.g.%X3.B 4.x @ & = b %X6XZ.&._ w. .L Q ..Y.}.<XeXeXeXeXOX0.G G H H H G 6 1 ; ; 5 K { { { [ J & ",
"<.<.<.=.z w n z.D.b.+.x.&.} w.} &.%XZ.1.-.<.C 0 & & 9 #.c.g.O.~ ] ' a = 1 / X.I.Y.}.$X$XeX1Xs./ H H H H 6 ; ; ; F W [ [ [ [ J & ",
"<.>.<.=.z t t =.M.4.#.g.$._ } ) $.;.;.z.l.1.=.x = o $ ;.n.Z.c.#.^ ] f.l ; 6 G W / } ] ../. X(.} H H H G A ; ; 6 K [ [ [ W H G % ",
"<.<.=.=.z t w m l.=.5.x.:.Y Y f.x.x.;.2.4.<.<.@.i # x h.&X=X=Xc.f.k.%X3.: ; 6 F H G F 5 F Q ^ Q F G G A 6 ; 3 G K K [ [ K A A % ",
"<.<.<.@.z y w m 4.@.5.x.$.7 L *.x.x.3.+.=.<.<.-.C z y x r.c.%Xc.c.c.r.~ ; & 1 8 A 8 A 1 * * ; 1 > 9 M k > 1 F 7 < 2 F G A 1 * X ",
"<.<.<.@.z t w z z.<.o.&.Y L U ) 9.T o.-.<.<.<.<.=.z t = c ] ] ] &.e.] Q Q f > a O.#.h > & * & o O i v.4.M < < e t $ 0 k 4 - + 9 ",
"<.<.<.@.z y t n z.2.d _ 0.| 0.| Y a B <.<.<.<.-.=.n z @ c ] q.&.` 9.s.9.r.~ r @.m.F.1.e 9 + + + @ v B.b.>.m i p v t i 4.l.C n +.",
"<.<.<.@.z t w x z.l.M T Y Y Y T o.#.l.2.<.<.<.<.=.z z t t Z c.c.-.3.=.O.N c y c.V.F.b.Z b y t t $ p v.M.1.=.n v z t p b.V.2.-.,."
};
