/* XPM */
static char *_c5e0f8bc6b04573d4d9579ae8a4e064e6h14NT1mNcKOtVj[] = {
/* columns rows colors chars-per-pixel */
"64 64 171 2 ",
"   c #9EDBEA",
".  c #74CCEA",
"X  c #23AFE8",
"o  c #009FE8",
"O  c #00A1E8",
"+  c #00A2E8",
"@  c #00A0E8",
"#  c #29B1E9",
"$  c #7BCEEA",
"%  c #79CEEA",
"&  c #25AFE8",
"*  c #24AFE8",
"=  c #75CCEA",
"-  c #20ADE8",
";  c #78CDEA",
":  c #27B0E9",
">  c #28B1E9",
",  c #76CDEA",
"<  c #7ACEEA",
"1  c #9FDBEA",
"2  c #A0DCEA",
"3  c #A1DCEA",
"4  c #22AEE8",
"5  c #28B0E9",
"6  c #79CDEA",
"7  c #A3DCEA",
"8  c #80D0EA",
"9  c #45BBE9",
"0  c #1AABE8",
"q  c #07A4E8",
"w  c #09A5E8",
"e  c #1DADE8",
"r  c #1CACE8",
"t  c #05A4E8",
"y  c #1BACE8",
"u  c #5AC2E9",
"i  c #59C2E9",
"p  c #7FD0EA",
"a  c #42BAE9",
"s  c #77CDEA",
"d  c #5BC3E9",
"f  c #03A3E8",
"g  c #18ABE8",
"h  c #46BBE9",
"j  c #83D1EA",
"k  c #58C2E9",
"l  c #64C6E9",
"z  c #3BB7E9",
"x  c #19ABE8",
"c  c #04A4E8",
"v  c #76CCEA",
"b  c #95D8EA",
"n  c #73CCEA",
"m  c #55C0E9",
"M  c #17AAE8",
"N  c #57C1E9",
"B  c #08A5E8",
"V  c #82D1EA",
"C  c #06A4E8",
"Z  c #94D7EA",
"A  c #26AFE8",
"S  c #07A5E8",
"D  c #84D2EA",
"F  c #99D9EA",
"G  c #26B0E9",
"H  c #3AB7E9",
"J  c #65C6E9",
"K  c #43BAE9",
"L  c #21AEE8",
"P  c #04A3E8",
"I  c #1EADE8",
"U  c #1DACE8",
"Y  c #68C7E9",
"T  c #3DB8E9",
"R  c #81D0EA",
"E  c #96D8EA",
"W  c #39B7E9",
"Q  c #63C5E9",
"!  c #56C1E9",
"~  c #38B6E9",
"^  c #66C7E9",
"/  c #1AACE8",
"(  c #63C6E9",
")  c #37B6E9",
"_  c #23AEE8",
"`  c #5CC3E9",
"'  c #009EE8",
"]  c #58C1E9",
"[  c #39B6E9",
"{  c #18AAE8",
"}  c #60C5E9",
"|  c #60C4E9",
" . c #67C7E9",
".. c #1FADE8",
"X. c #14A9E8",
"o. c #54C0E9",
"O. c #61C5E9",
"+. c #85D2EA",
"@. c #A3DDEA",
"#. c #A4DDEA",
"$. c #84D1EA",
"%. c #02A3E8",
"&. c #62C5E9",
"*. c #95D7EA",
"=. c #73CBEA",
"-. c #20AEE8",
";. c #9AD9EA",
":. c #A2DCEA",
">. c #86D2EA",
",. c #47BBE9",
"<. c #97D8EA",
"1. c #55C1E9",
"2. c #73CBE9",
"3. c #01A2E8",
"4. c #16AAE8",
"5. c #41BAE9",
"6. c #26B0E8",
"7. c #44BAE9",
"8. c #52C0E9",
"9. c #98D9EA",
"0. c #44BBE9",
"q. c #3CB8E9",
"w. c #A0DBEA",
"e. c #7DCFEA",
"r. c #40B9E9",
"t. c #36B5E9",
"y. c #7CCEEA",
"u. c #72CBE9",
"i. c #5DC3E9",
"p. c #5FC4E9",
"a. c #36B6E9",
"s. c #7FCFEA",
"d. c #15A9E8",
"f. c #41B9E9",
"g. c #3CB7E9",
"h. c #15AAE8",
"j. c #7CCFEA",
"k. c #35B5E9",
"l. c #9ADAEA",
"z. c #7ECFEA",
"x. c #3FB9E9",
"c. c #3EB8E9",
"v. c #33B4E9",
"b. c #91D6EA",
"n. c #9DDAEA",
"m. c #5EC4E9",
"M. c #9CDAEA",
"N. c #9BDAEA",
"B. c #90D6EA",
"V. c #71CBE9",
"C. c #0AA6E8",
"Z. c #9DDBEA",
"A. c #34B5E9",
"S. c #31B4E9",
"D. c #32B4E9",
"F. c #5DC4E9",
"G. c #93D7EA",
"H. c #92D6EA",
"J. c #13A9E8",
"K. c #53C0E9",
"L. c #8FD5EA",
"P. c #81D1EA",
"I. c #3FB8E9",
"U. c #92D7EA",
"Y. c #5AC3E9",
"T. c #52BFE9",
"R. c #8FD6EA",
"E. c #70CAE9",
"W. c #0AA5E8",
"Q. c #98D8EA",
"!. c white",
/* pixels */
"  . X o O + O @ @ # $ % & * = . - - . ; : @ @ > $ $ # o o X , ; : @ @ > $ < & o o & .   1 2 3 = 4 & % < & o O + + + + O O 5 6 7 ",
"1 8 9 0 q w e r t y u i 0 * = p a a p s : @ @ r d u y f g h j 6 : @ @ y k l z x c & v b p n = m M g N l z y B O O O + O @ r i 6 ",
"  b V N x y d d y c r r C & . Z 8 8 Z = A @ @ S e r c g N D F ; G @ @ c g H J i 0 & ; j K L 4 x t P M H J d I O @ O + O O S U 5 ",
". v ; N 0 y d Y T 0 P o o * . Z R V E v X P 0 y C P x W Q ; s ! y C 0 * L ~ ^ d y / k ( ) - 4 & G & _ H ^ ` y t r I S S I e S @ ",
"& & & 0 B S y T Y d 0 ' o * v p a K V s 4 M ] i x x k ( [ 4 L { t y ] s v } H y S q 0 ~ | . v v s ; ; ( z x f y ` d x x d ` r @ ",
"@ C x 0 w O @ y `  .z 4 _ 9 R . ..X.o.O.~ 9 +.6 * * s j K L _ x t & v @.#.; * o @ @ o 4 ; F $.v = ; < i x %.M z ^ J H H l u U O ",
"@ y N i e O @ q y z &., s V *.=.-.+ X.) &.+.;.s X 4 . E R , ; N x _ . :.#.; & @ @ @ o * < >.,.X _ & : r t / i ( H H J ^ H x S + ",
"@ : 6 < 5 O O O o 4 v <.V R b 8 a L -.~ ( $ 6 1.M L 2.*.V 6 < i x _ =.b V ! x c 0 & * H l k g 3.M x C @ @ 5 $ s L 4.i  .z g t O ",
"@ : ; % 5 O O O o _ s R K 5.p E 8 = , Q H & & x %.X = R 9 & G y C 6.v R 7.M %.g N ; ; &.[ M 3.g N i y @ @ 5 < s 4 + g T ^ i 0 o ",
"o & s % 5 @ O B y h V . L X.8.8 <.9.+.i 0 o @ c g 0.R v * o o @ @ 5 < ; * 3.g 9 R :.:.= -.+ M ,.+.< 5 @ @ : 6 j 9 M %.0 d ^ q.& ",
"o * ; $ 5 @ @ r u +.E . X 3.X.a $.>.,.0 C @ @ 0 N V b . * @ o @ @ 5 $ ; * M N j Z   w.2.I X.! +.9.s 6.@ @ G ; 9.j ! x P 0 q.J < ",
"4 W ( u U @ @ r u +.E . & P M H l i / @ @ O @ G 6 @.2 =.* C r U S U u i y x ! R Z   1 e.r.t.O.$.E = & @ @ y 1.V F < : o o 0 u y.",
"s &.H 0 B O O B y h V = * 0 i J z 0 C O O @ @ : 6 @.2 u.4 y d i.I q y r w C { a 8 2 1 Z 8 p.a.K 8 s : O O C 4.K +.y.5 @ o t r # ",
"#.6 & o @ O + O o X ; s X x i d y @ @ B I U S 0 1.8 b 2.L x d i.U @ @ @ O C x ) | =.u.s.E . I - v < 5 @ @ C x W &.k r q y r C @ ",
"#.6 G @ @ O + O o * % % & f x y S @ @ r i.i.I f d.f.8 = X P r I S @ @ o o y u l ) I e f.V = ..- s $ 5 @ o y u l ~ 4.P U u i y @ ",
"; k r q y r w S y g.l ( z * 4 x S q 0 z J u y %.4.K V V 0.M %.f 0 6.A * X H l l [ - - a R R K [ Q i / P 0 T  .J ~ h.f 5 j.< 6.o ",
"6.y q U u i y y d J [ ) Q < s m x y k l H 4.%.g N V E E R o.X.d.1.s v = v p.k.k.} s v p Z E j ( W M %.0 d ^ z [ O.! x 6.$ < & o ",
"O @ @ # j.< * x d d x 4.1.+.l.s L _ ; +.7.-._ H Q v =.z.b p r.x.z.w.2 3 :.p c.v.p.s s . 2.. s k x %.M z J N h.L s 6 & 0 ] ( W 4 ",
"O O @ # j.$ & P y I S P M 9 +.; 4 -.v F V v ; ( ~ ..I x.p Z z.e.b.n.1 w.w.b s.m.t.4 4 X 4 4 * x P y i l H h.+ 4 s % : P g H &.s ",
"O O O U u J q.y C @ O B x ~ O.O.[ ~ } v v s % ( ~ - - r.e.n.  M.N.B.e.2.2.8 <.V r.I ..L L 4 * g f 6.< D a I ..K R s : @ o & ; #.",
"O O O B 0 g. .` r @ @ I d Q k.k.l ^ H _ _ X * H Q s v z.B.l.N.M.M.e.f.-.-.K V <.z.V.V.u.u.. s ! 4.L s 9.p V.u.p Z = A @ o G 6 #.",
"> I C.O @ y d ` I @ @ I d ( ) ) ( i g %.x x P x i < 6 8 b.;.F N.n.2.-.' ' 4.o.p Z   n.  1 E R | t.k.i.s.b 1     Z.n X o o r k ; ",
"$ d I O @ S y r w + + S x W l l H 4.+ x u d y t y G & K z.M.N.N.n.2.-.' o %.h.r.z.  n.  3 8 r.k.O.} A.c.p 3   n.n.=.4 o @ q y 6.",
"$ d I O O w r r w + + S x H ^ J W L X q. .` r @ @ @ o L .   M.N.Z.p K * * X L r.e.M.M.b.e.` S.x.R R x.D.F.p G.  1 p 5._ * y C @ ",
"> I C.O O I ` ` I @ @ e d l H ~ O.6 < J g.y C @ O @ o L = 1 M.;.n.Z R v . . . z.B.M.M.$ q.S.` z.G.G.z.i.A.r.p 2 1 G.z.= , ! 0 @ ",
"O O O O @ r d d r @ @ I ` i M 4.] j.$ ] x P 0 r q t x ~ p.z.H.b.e.n = V E b p z.H.Z.n.< z q.e.1 M.M.1 . ..J.K.. 2.e.Z :.:.. X o ",
"O O O @ @ C y y C O O w r 0 P P r 5 6.x P y u k g g N O.A.c.z.8 K L 4 h +.V r.c.z.1 n.L.< $ b.M.;.M.  . -.+ 4.-...r.R @.:.=.4 o ",
"+ w r 6.& & * & : U q C 0 6.5 r C t 0 0 t : % V K K P.8 c.c.z.v * o o 0 N | k.D.` e.b.N.M.M.;.F F N.M.e.f.L -.L L t.m.p G.e.K * ",
"O y N s v . = ; < k M M ! $ y.i g x i u / X = E V 8 G.H.$ e.G.. * @ @ t M ) O.p.v.q.$ M.n.N.;.F F ;.;.B.e.2.u.. , p.v.T y.G.R s ",
"@ & = 3 w.G.p v s O.~ ~ O.6 % N g 0 u i x L 2.Z p e.B.N.  w.  . & @ @ c 4.a $.V x.q.j.  N.F F F F F F l.Z.w.w.E R p.A.I.j.G.R s ",
"@ & . 3 2 z.r.- - W J J W 4 X 0 t C / x f X = p x.T $ Z.1 w.  . & @ o g o.8 <.Z j.$ H.n.l.F F F F F F l.Z.3 :.8 x.A.p.V Z e.K * ",
"o 4 u.    e.r...I ) ( ( ) - 4 & G 6._ -.L K 8 e.T T e.Z e.e.G.. X %.g h $.E e.y.G.G.j.$ b.M.;.F F ;.M.b.j.u.=.m.k.k.| j <.. 4 o ",
"o L V.Z.M.B.z.= . m.k.k.m.. v v s , =.u.2.z.b.B.$ e.*.z.T c.z.. L 4.N >.;.8 T c.p p c.q.e.1 M.F F M.1 p x.U I ) ( &.t.f.V s & o ",
"* a j.M.N.B.p V 9.8 x.x.8 9.j v v R b w.w.Z.;.;.n.Z z.` v.r.8 8 f.t.} ; ; m.D.x.p 8 x.S.` e.b.N.M.U.z.F.A...- [ l &.k.k.&.k y @ ",
"s 8 b.N.M.y.r.a R <.8 8 <.j 9 _ _ 7.V :.3 Z.;.N.Z.e.T D.m.P.b b 8 | a.L 4 ) m.p Z Z p ` S.q.$   2 z.T D.` v ; O.t.t.| &.H x t @ ",
". z.H.    V...4.1.s s s s N { ' ' { N , = e.B.M.M.$ q.v.O.; . z.b 8 f.J.+ X ; <.z.e.Z z.T q.e.b 8 ` S.c.8 ;.+.} v.x.P.; 4 3.g 6.",
"- r.z.3 1 =.4 P x A * & 6.y c o o c y * X f.e.M.M.b.e.p.[ 4 ..x.p E 8 8.h.* % j x.q.e.G.e.e.*.p c.S.` 8 9.V K t.i.8 E . ..h.1.; ",
"..A.i.p Z = * o o t / y C t y : 5 U q o o -.2.n.N.n.3 s L O J.x.e.w.@.s * x ! p.A.q.$ Z.  Z z.` S.c.8 F j K.J...= @.w.$ c.f.8 7 ",
". i.v.x.p v * o ' 0 Y.u 0 M ! < $ u y o ' -.2.n.N.n.3 = ..J.T.z.b.  :.; 6.f h.k.m.e.b.M.  e.T S.` 8 9.j 7.h.+ L s :.  R.j.z.Z 2 ",
"2 z.x.x.z.8 0.X * q. .u 0 * ; ;.+.N x f M a p 1   G.p m.k.r.p 1 n.b.z.o.g %.X.r.p 1 Z.M.M.< z T 8 F R o.M f x H | e.b.M.1 Z e.E.",
"M.H.z.z.b.H.8 ; % J g.x t : $ +.9 h.3.g ! R *.1 2 s.r.k.m.p G.Z.n.e.x.X.3.M o.s.G.n.n.M.N.L.< z.E V f.X.%.r ` l k.q.$ 1 :.p x.e ",
"M.H.z.z.b.H.8 ; ; k x o @ e u ( [ L 4 0.R E 8 = , o.X.... 2   M.M.j.c.I ..a 8 1 M.R.j.j.R.M.1 b p m.k.h.%.y u &.k.T z.b p i.k.L ",
"2 z.x.x.z.8 0.* * 0 q O O B 0 W &.s s V b 8 a X * g 3.-.. 1 1 M.N.R.$ V.u.z.H.Z.n.$ c.c.$ 1 :.8 c.A.p.N x %.M ) p.8 E p c.A.| ; ",
"s p.k.f.R s * f x r w + + O @ 0 u % s 8 Z n L o o t g a s.H.j.< L.N.M.n.n.M.;.N.n.V.....u.Z p ` S.x.8 j 7...e r.V 9.8 ` D.k.&.< ",
"4 ) } j 9.= 4 x i ` I O O + O B e A 4 a 8 = 4 ' o 0 N V *.$ q.z < M.M.N.N.N.;.N.n.V.- L . p x.S.` z.G.G.z.u.V.z.<.8 c.v.m.O.H & ",
"o x N < 6 ! x r ` m...O O + O O O f 4.f.R V 7.M f A ; @.w.< z z < M.n.N.;.F F N.n.u.L X = z.x.c.z.1 M.;.M.Z.  G.z.` S.r.P., 4 ' ",
"O q 0 & 6.y B w I ..C.+ + + O @ @ x m p b E R m g * s :.  L.< < L.N.M.M.;.F F N.n.u.L 4 2.G.p z.H.M.;.F N.n.  e.T S.` 8 E . L ' ",
"+ w r y C O O O @ @ O + + w U 0 P * s b e.e.b v 4 4.o.8 G.n.1   N.L.< $ b.M.;.M.  =.-.-.u.Z R 8 U.M.;.F F N.M.$ T c.z.3 2 z.K * ",
"O e d d r @ @ @ @ @ O O O I d ] M 4 v 8 c.c.8 s * 3.4.K 8 2 2 1 Z.< z q.e.1 M.M.1 . ..-.. p a f.p   M.F F ;.;.B.e.z.H.n.  G.8 s ",
"O I ` i.I q r # # I w O @ 5 $ $.7.a s.e.T T e.8 7.4.+ M ! v =.e.U.j.x.A.m.p U.U.p m.k.a R v 4 X.8.s.G.M.M.M.M.H.z.z.b.B.y.u.v ; ",
"+ C.I U S r u j.j.d U @ @ : % F j p b.B.$ $ B.G.8 1.4.%.x X -.x.e.Z V p.k.f.s.s.f.k.m.V 9.s * 3.X.r.p 1     1 z.c.x.z.p r.-.* : ",
"O O O @ O U d j.j.d U @ @ 0 N s v s.U.n.1   M.  3 j 9 x %.3.X.r.p <.+.N 4.4 = . L L , F V m 0 P 4.t.O.v = = . i.A.r.z.8 K M P @ ",
"O O O O O W.I # # I W.O @ C y * 4 f.p 2 2   n.  1 <.$.N h.J.8.R <.V 9 g %.& s = 4 X 6 +.K d.P r k &.W X * X -.k.} 8 U.G.R ! x @ ",
"6.r B O + + @ @ @ O O C...U t 3.h.t.p.. =.u.. . . v s } t.f.8 <.R o.4.' o A s v & x ! &.W 4.%.6.< % * ' o f g ~ O.8 U.Z j i r O ",
"; k y @ O + @ @ O O O ..m.Y.M h.1.O.) ..-.4 * & & X 4 a.| R E p r.h.%.o o & s s G f h.~ l k M 4 s ; X ' ' x u ( a.r.z.R 9 y B + ",
"7 j h 0 t S I I B @ O I i.J H 7.$.$.K L _ 0 C @ @ P M a 8 3 2 z.r.4 & & _ 7.V ; G f h.~ ( ( [ a p 8 0.X * z l &.t.r.p v * @ O + ",
"2 <.D N M x d i.r @ O B r z l $.Q.E 8 v ; i y @ @ 0 k R Z n.  G.p = s , . 8 E v * x ! } t.t.O.V G.H.8 ; % &.t.k.| V b . * @ O + ",
". v 6 ( [ W ( J q.y q @ @ 0 k ; v . = ; < u y @ @ 0 k V *.G.z.n = = . 8 E <.8 K.M & ; R x.D.m.R Z Z R s s } k.k.| j <.s 6.O O O ",
"& * & q.^ l ) ~ J ` y @ @ q / & & & * & : U q @ @ P M K j j 7.4 4 4 L K $.$.a X.f & , E 8 ` v.f.R j 9 4 L ~ l &.t.f.V < 5 @ @ O ",
"O @ o 0 d J ~ ) l ^ z 0 q B y 0 t C / 0 t C r 5 5 & _ ~ &.! M 3.g X L t.} O.~ M P & = 3 3 z.T A.O.i 0 %.4.W l &.k.k.| N 0 C r > ",
"O O @ P / q.J ( W H ( k 0 y u u 0 0 u u 0 g k $ < ; ; &.) X.+ M N 6 , i.v.k.Q i 0 X = 3 1 U.z.p.~ g f y u ( ) t.| O.) d.3.y u $ ",
"+ W.I r c y d i g _ ; 6 & y u Y.y y Y.Y.y 0 k 6 ; s ; &.) L _ W &.j <.p x.t.( u y g o.z.b.n.2 v X o @ I d ( t.r.R V a - 4 z ( ; ",
"O e u u y t r y c & ; 6 : C r e w w e e w B r : : & * [ } v s } ) f.p b 8 | W y S C g f.e.1 2 = * @ O B y W | p Z U.e.n v O.[ * ",
"@ : < $ # @ @ @ @ : ; ; : @ @ O + + O O + + O @ @ o o 4 s #.#.. ..e E.2 7 s 4 o O O o L =.1 1 . & O O O o 4 s 2 M.;.n.2 :.= 4 ' "
};
