/* XPM */
static char *d7c015cb67644156a57910747fa43ef6vFU3P1HTfkkv7zJB[] = {
/* columns rows colors chars-per-pixel */
"32 32 110 2 ",
"   c None",
".  c #260D1F",
"X  c #240E29",
"o  c #250F2A",
"O  c #2E182D",
"+  c #29223E",
"@  c #3A2F34",
"#  c #67363D",
"$  c #3C2C42",
"%  c #392946",
"&  c #3C2B47",
"*  c #3C2E44",
"=  c #4F2D46",
"-  c #442B4F",
";  c #462B4F",
":  c #4E334D",
">  c #533047",
",  c #573147",
"<  c #55364C",
"1  c #5F2F55",
"2  c #66334A",
"3  c #68364D",
"4  c #7D364A",
"5  c #7B3253",
"6  c #7D3350",
"7  c #7F3350",
"8  c #883947",
"9  c #843749",
"0  c #943949",
"q  c #943751",
"w  c #963750",
"e  c #9E3B51",
"r  c #A03B50",
"t  c #A43C50",
"y  c #B33F51",
"u  c #B53E51",
"i  c #A54646",
"p  c #A3454D",
"a  c #A6484D",
"s  c #B4464F",
"d  c #B3494E",
"f  c #BF4E4A",
"g  c #B9494E",
"h  c #BB4A4F",
"j  c #BD4E4E",
"k  c #AF554E",
"l  c #B74051",
"z  c #BC4151",
"x  c #BC4351",
"c  c #C24051",
"v  c #C44051",
"b  c #C74752",
"n  c #C94251",
"m  c #D44751",
"M  c #D44D51",
"N  c #D64E52",
"B  c #C85050",
"V  c #D35451",
"C  c #D65552",
"Z  c #DD5452",
"A  c #DA5951",
"S  c #DD5F51",
"D  c #DD5C54",
"F  c #E65654",
"G  c #E05954",
"H  c #E05F54",
"J  c #EA5B54",
"K  c #E95D54",
"L  c #EB5D54",
"P  c #ED5D54",
"I  c #EE5F55",
"U  c #E36252",
"Y  c #E76254",
"T  c #EF6155",
"R  c #F06756",
"E  c #F66758",
"W  c #FA6D5A",
"Q  c #E67356",
"!  c #FA705A",
"~  c #FE7E5B",
"^  c #FF7E5B",
"/  c #FF8560",
"(  c #FF9763",
")  c #FF9F66",
"_  c #FFA066",
"`  c #FFA869",
"'  c #FFAA6A",
"]  c #FFAD6C",
"[  c #FFB06D",
"{  c #FFB16D",
"}  c #FFBC6D",
"|  c #FFBA70",
" . c #FFBD70",
".. c #FFBE72",
"X. c #FFC373",
"o. c #FFCC77",
"O. c #FFCE7A",
"+. c #FFCF7A",
"@. c #FFE37E",
"#. c #FFF691",
"$. c #FFF792",
"%. c #FFFC98",
"&. c #FFFF9E",
"*. c #FFFFAB",
"=. c #FFFFB4",
"-. c #FFFFB6",
";. c #FFFFC9",
":. c #FFFFCA",
">. c #FFFFD0",
",. c white",
/* pixels */
"                                                                ",
"                                                                ",
"                            . . .                               ",
"                        . . * . * . .                           ",
"                      . * * . * . * * .                         ",
"                  . . * k . * * } . * k . .                     ",
"                . * * } . * * k k } . * k } @                   ",
"              . * * k } . * * k k } . * *  .,.@                 ",
"            . * * k } . * * * k k k } @ m ! ,.:..               ",
"          . * * k k } . * * k k k W X.# } -.:.:.} .             ",
"        . * * * k } . * * * k ! !  .,.,.+.+.k Q ! X.O           ",
"      . * * * k } } . * * k ! ! ,.,.,.,.@ 8 / ! ,.,.X.#         ",
"      . . . . k } } . * u ! -.,.,.-./ @.+.| -.{ # # # @         ",
"      . o o o . . . @ +.+.+.# @ @ @ @ @ +.+.# # 5 R f O         ",
"      . ; 7 ; 1 1 ] +.P n e 2 2 2 ` ` { +.&.` D V 0 = O         ",
"        . v W #.#.T # r > 2  . . .| | $.@ B B 2 h j O           ",
"        X 9 5 9 b 0 @ $ t | | #.$.| V K @ 4 4 3 J _ O           ",
"          X & q M M # | %.%.,.N N N T A # % % ~ _ .             ",
"          . S W *.,.+.E q l N s s s d d # G Y ~ K @             ",
"            . w 7 C A @ 4 4 s s 3 3 F # W H 7 a .               ",
"            . o i 4 s @ 4 + : x x b ,.+.] 9 p S .               ",
"              . l l q # ; q o.>.,.,.( @ 9 h j .                 ",
"                O q c # E W ) E Z U U . + < .                   ",
"                O h y x . 9 9 h h j . + + a .                   ",
"                  . 9 9 . , & < a a . + < .                     ",
"                    . + + . + < a . + + .                       ",
"                      . + . + a a . + .                         ",
"                        . + . a . + .                           ",
"                          . . a . .                             ",
"                              .                                 ",
"                                                                ",
"                                                                "
};
