/* XPM */
static char *e98278cee7ff478ab84db160e1988a39LT4s7ydRMNJZvNav[] = {
/* columns rows colors chars-per-pixel */
"64 64 5 1 ",
"  c #CB1C02",
". c #F43308",
"X c #FB5203",
"o c #FF8400",
"O c #FFE22E",
/* pixels */
"     ..XoX.      .XoX..   ..XoX..       ..XXoooX..     ..XoX.   ",
".     .XoXX. O  ..XoX..O...XoX..      ...XooXXX..  O  ...XoX....",
"..    .XoooX.  ..XXoX.XXXXXXoX.     ....XoXX..       ...XoX..XX.",
"..    .XoXoX....XXoX.XXooooooX.   O....XoX..        ...XXoX.XooX",
"X.    .XoXXoXXXXoooXXXoXXXXXoX.  ..XXXXXoX....     ..XXXoX.XoXXo",
"oX.   .XoX.XooooXXXoooXXX..XoX....XoooXXoXXXX..   ..XoooXoooX..X",
"XoX. O..XoX.XXXXoX.XXXXoX..XoXXX.XoXXXoXXoooXX.. ..XoXXX.XoX....",
".XoX.  .XoX.. ..XoX.. .XoX .XooXXoX.XoXooXXXoX.....XoX....XoX. .",
".XoX.. .XoX    .XoX.  .XoXO .XXooXXXXoXXX..XoXXX..XoX..  .XoX.  ",
" .XoX...XoX. ..XXoX.  .XoX.  ..XXXoooX..XXXXooooXXooX.   .XoX.  ",
" OXooXXXoX..XXXooooX. XoX...  ..XoXXoX.XooooXXXXooXXoX. .XoX..O ",
" .XoXoooX..XoooXXXXoX.XoXXX.. .XoX..XoXoXXXX....XX.XoX...XoX.   ",
" .XoXXXX.XXoXXX....XoXoXXooXX..XoX..XooX...... .....XoX.XoX.    ",
" XoX....XooX..   ..XoXoXoXXooX.XoX...XoX..  .   .  .XoXXoX.     ",
" XoX. ..XoX..     ..XoooX..XXoXXoX. .XoX..     O   .XoXXoX.     ",
" XoX.  ..XoX. O  ...XoXX.....XoXoX   .XoX..        XoX.XoX.  O  ",
" XoX..  ..XoX. ..XXXXoX...  ..XooX.  ..XoXX.     ..Xo..XoX.     ",
" .XoX.O  .XoX...XXoooX...    ..XoX.   ..XooX..  ..XoX .XoXO.    ",
"..XoX.   .XoX.XXooXXX..  O    .XoX.    ..XXoX....XoX  .XoX...   ",
".XoX.   .XoX.XooX....          .XoX..  ...XooX..XoX.  .XoX.... .",
".XoX.  .XooX.XoX...      ....  ..XoX..  .XoXXoXXXoX...XoXoX.....",
"XoX....XoXoXXoX...O   ..XXXX......XoX. .XoX.XXoooXoX.XoX.XoX.XXX",
"ooXXX..oXXoXXoX..   ..XXooooXXX..XooX.O.XoX...XXXXXoXoX..XoXXooo",
"XXoooXoX.XoXoX..   ..XooXXXXoooXXoXXoX .XoX.    ...XooX...XooXXX",
".XXXXoX...XooX.    .XoXX....XXXooX.XoX..XoX..     .XXoX. ..XoX..",
"....XoX. .XooX.   .XoX....O...XXX..XoX...XoX...    .XoX.O ..XoX.",
".  .XoX.  .XoX.. .XoX...   .........XoX...XoXX..   .XoX.   ..XoX",
"   .XoX.  ..XoX...XoX..         O. ..XoX...XooXXX  .XoX.   ..XoX",
"  ..XooX.  O.XoXX.oX..              ..XoXO.XoXoooX .XoXO    .XoX",
"..XXoXXoX.  ..XoXXoX..               .XoX..XoXXXXoX.XoX..   .XoX",
".XooX..XoX.   .XoooXX..             ..XoX.XoX...XXoX.XoX.   .XoX",
"XoXX...XoX..  ..XXXooX..   ......  O.XoX.XoX..O..XoX..oX..  .XoX",
"XoX.. .XoX.......XoXXoX.. ..XXXX....XoX.XoX..   ..XoX.XoX.O..XoX",
"oX..   .XoXXXXXX.XoX.Xo....XooooX..XoX.XoX..    ..XoX.XoX ..XXoo",
"XoX.O  ..XooooooXoX..XoX..XoXXXXoX.oX..XoX.      .XoXXXoX .XooXX",
"XoX.    ..XoXXXXooX. .XoXXoXX...XoXoX..XoX..  .. OXoXooX. XoXX..",
".XoX.    .XoX...XoX. XoXXoX......XooX..XoX...XXX..XooXX. .XoX.. ",
" XoX.    .XoX. .XoX. XoXoX..  O ..XoX.XooX..XoooX.XoX... XoX..  ",
"OXoX.    .XoX  .XoX  XoXoX.     ..XoXXoXXoXXoXXXoXXoX.   XoX..  ",
" XoX..  ..XoX .XoX.  .XoX..    ..XoX.XoX.XoooX..XooX.   .XoX..  ",
" XoX......XoX.XoX.   .XoX..   ..XoX..XoX..XXoX..XooX.   .XoX.   ",
" XoX...XXXXoX.XoX.   .XXoX.  ..XoX.O XoX....XoX..XoX.O  .XoX.O  ",
" XooXXXXoooX...XoX.  .oXoXO. .XoX.   XoX. ...XoX.XoX.   .XoX.   ",
".XoXooooXXoX. ..XoXXXXoXoX. ..XoX.  .XoX.   ..XoXXoX.   .XoX    ",
".XoXXXXXXoX.   ..XooooXoX.. .XoX.....XoX.    .XoX.XoX. ..Xo.   .",
"XoX....XXoX.   ..XXXXXXoX. .XoXXXXXXXoX.     .XoX.XoX. .XoX.  ..",
"XoX.O.XooX.   .XXooooooX.. .XooooooooX..    ..XoX..XoX.XoXX. .XX",
"oXX..XoXX   ..XooXXXoXX..  XoXXXXXXXX..    ...Xo....XoXXoX. .Xoo",
"XooXXoX.   .XXoXX..XoX...O.XoX.....O..    ..XooX.. ..XoXoX..XoXX",
".XXooX..  .XooX.  ..XoX.  .XoX..    .    ..XoX...   ..XooX.XoX..",
"...XoX.  ..XoX.    .XoX.  .XoX.        ..XooXXXXX.   ..XoX.XoX. ",
"....oX.  .XoX..   .XoX.. ..XoX....     .XoXXXoooXX.  O .XoXXoX. ",
"  ..XoX. .XoX. O .XoX..O...XXoXXX..  O..XXoooXXXooX.    .XooX.. ",
"  ..XoX. .XoX.   XoX..XXXXXooooooX.. ..XooXXX...XXoX....XooX..  ",
"  ..XoX...XoX.  .XoX.XooooXoXXXXXoX...XoXX..   ...XoXXXXoXX..O  ",
" ..XoX..XXXo..  .XoXXoXXXXoX....XoX..XoX...     O..XooooXX..    ",
" O.XoXXXoooX.   ..XoooX..XoX.....XoX.XoX....   ...XoXXXX...     ",
" .XoooooXXX..   ...XXoX..XoX.   .XXoXXoX..XXX...XXoX.......     ",
" .XooXXX...      O..XoX...Xo.    .XoXoXXXXoooX.XooooXXX..O .    ",
" XoXX...O...   ..XXXXoX. .XoX.   ..XooooooXXXoXoXXXXoooX....    ",
" XoXX.XXXXX.....XooooXX.O..XoX.    .XXXXXX...XooX...XXXoX....   ",
" .XooXoooooXXXXXoXXXoX.   ..XoXoX O  ..... O..XoX.O ...XoXX..   ",
" ..XXoXXXoXoooooX..XoX.    ..XoX..           .XoX.    ..XooX..  ",
"    .X..XoX XXXX ..XoX     ..XoX..         ...XoX..     .XoX..  "
};
