/* XPM */
static char *cfb93ecf7365450dbcbeb5d447477d3e7mqh73vm0OQi5Sri[] = {
/* columns rows colors chars-per-pixel */
"64 64 59 1 ",
"  c None",
". c #14120C",
"X c #19170F",
"o c #181610",
"O c #1E1B12",
"+ c #211F16",
"@ c #222017",
"# c #26241A",
"$ c #28261C",
"% c #2C2A1E",
"& c #2F2D20",
"* c #312E21",
"= c #343224",
"- c #383526",
"; c #3A3729",
": c #3D392A",
"> c #423E2D",
", c #403F32",
"< c #45412F",
"1 c #464232",
"2 c #494533",
"3 c #4D4936",
"4 c #4E4A38",
"5 c #514C37",
"6 c #534E39",
"7 c #56513B",
"8 c #5A543D",
"9 c #5F583F",
"0 c #5D5740",
"q c #5F5941",
"w c #635D44",
"e c #676046",
"r c #686146",
"t c #666148",
"y c #6C664A",
"u c #6F684C",
"i c #736C4D",
"p c #746D50",
"a c #777154",
"s c #7B7354",
"d c #7E7758",
"f c #817A57",
"g c #847C5B",
"h c #8C835E",
"j c #8D8562",
"k c #908763",
"l c #938A64",
"z c #958C68",
"x c #988E69",
"c c #9C936B",
"v c #A1976F",
"b c #A2986E",
"n c #A79D72",
"m c #ADA175",
"M c #B3A77A",
"N c #BCAE7D",
"B c #C3B585",
"V c #C9BC8B",
"C c #DBCC95",
/* pixels */
"                                                                ",
"                                                                ",
"                                                                ",
"                                                                ",
"                                                                ",
"                                                                ",
"                                                                ",
"                                                                ",
"                                                                ",
"                                                                ",
"                                  65                            ",
"                           3tp<=rkccly                          ",
"                          pgi6:3sayiglp                         ",
"                         ya82==3<220tify                        ",
"                        61<:=#OO%%=>58wi6                       ",
"                       ia:%+O...X.O%:>>>=*                      ",
"                      7j7*X.........@%%30>                      ",
"                      wi:#.............=k7%                     ",
"                      32%X.............Xw8&                     ",
"                      2=................<2=                     ",
"                     dw@................@;=                     ",
"                    3h8@............XOX.X#&                     ",
"                    ed7#...........XOOX..#1&                    ",
"                    wi3%..........XOOOOX.%h2                    ",
"                    4q<%X.........OOOOOX.*c8%                   ",
"                    %:<%X.......XOOOO+OO.%f8=                   ",
"                    23=#.......XXOOOO+OOX%i6&                   ",
"                    aj:O.......XOOOOOOOOO@82&                   ",
"                    lk:X......XXOOOOOOOOOX:<&                   ",
"                   2bd>O......XOOOOOOOOOOX$==                   ",
"                    cu<$......XOOOOOOOOOOXO:0                   ",
"                   7cu3%......XO+OOOOOOOOX.2g=                  ",
"                   yby6=#.....OOOOOOOOOOOX.$i:                  ",
"                   yfw2-#....XOOOOOOOOOOOX.#i=                  ",
"                   giw<=+....XOOOOOOOOOOOX.$w=                  ",
"                  >gy3>=O....XOOOOOOOOOOO..#>=                  ",
"                  >gw<:%X....XOOO+OOOOOOO.X6:*                  ",
"                   t6<;@.....XOOOOOO+OOOO.%a3%                  ",
"                   &:>&o.....XOOOOOO+OOOX@pd3%                  ",
"                   66=%......XOOOOOOOOOOOyvi6%                  ",
"                   sc1#X.....XOOOOOOOOOO$xci7=                  ",
"                   dlw=......XOOOOO+OOOOOrny8;%                 ",
"                   ygw:O.....XOOOOOOOOOO.+fi8;*                 ",
"                   wa8<#.....XOOOOOOOOOO..>f5:%                 ",
"                   yw5>%.....oOOOOOOOOOO..+w3>*                 ",
"                  gb3<>%.....oOOOOOOOOOO...>2-*                 ",
"                  xCs;;%X....oOOOOOOOO+O.X>2>=*                 ",
"                  MMx8-%o....XOOOOOOOOOO.wBNi-*                 ",
"                 tmzji<:sf%..oOoOOOOOO&$8VBcj4&                 ",
"                 lzhapu6hnu#oO;&O%:;$;gygmzjdr1                 ",
"                thdiiur84yi81pjw=whf0tjwrkhfii7                 ",
"                709w865213432q64144444672wrww961                ",
"                  ,,,,                    22222                 ",
"                                                                ",
"                                                                ",
"                                                                ",
"                                                                ",
"                                                                ",
"                                                                ",
"                                                                ",
"                                                                ",
"                                                                ",
"                                                                ",
"                                                                "
};
