/* XPM */
static char *tile281685957269[] = {
/* columns rows colors chars-per-pixel */
"64 64 27 1 ",
"  c None",
". c #100E0B",
"X c #15130E",
"o c #1A1812",
"O c #1F1D16",
"+ c #201D16",
"@ c #232017",
"# c #29271B",
"$ c #2A271C",
"% c #343124",
"& c #353124",
"* c #3C3829",
"= c #3C3A2F",
"- c #403B2C",
"; c #46412F",
": c #4B4634",
"> c #554F3A",
", c #5A553F",
"< c #6B6447",
"1 c #6A6349",
"2 c #756D4C",
"3 c #807855",
"4 c #928967",
"5 c #968D69",
"6 c #D0C086",
"7 c #D6C88E",
"8 c #F8ECBF",
/* pixels */
"                                                                ",
"                                                                ",
"                                                                ",
"                                                                ",
"                                                                ",
"                                                                ",
"                                                                ",
"                                                                ",
"                                                                ",
"                                                                ",
"                                                                ",
"                                                                ",
"                                                                ",
"      ================               ====                       ",
"     =6666662=66=22=66==          ===6662===========            ",
"   ==66686662=68662=6866====     =6664442=6666666666=======     ",
"  =6=66866442=68642=66642=66=====6664442>=666668666662>=666==   ",
" =66=66864422=684442=6442=686666664442>>=6=6668666662>=686666=  ",
" =444=6644422=644442=6422=686666444422>=62=6686644422>=8666442= ",
" =4444=64442=6644442=6422=66666444422>=642=686444422>=66644422= ",
"=44444=66442=66444422=422>=664444422>=6642=866444422>=64444422= ",
"=444442=6422=64444422=622>=64444422>>=6442=66444422>=66444442>= ",
"=444442=642>=64444222>=22>=6444442>>=6=422=6444422>>=64444442>= ",
"=4444422=62>=64444222>=2>>=6444422>=64=42>=6444222>=244444442=4=",
"=4444422=42=644442222>>=>>=644422>=642=42>=444422>>=22444442>=4=",
"=4444222>=>=222222222>>=>>=64222>=6422=22>=44422>>=2=2444442>=4=",
"=2222222>=>=222222222>>>=>=2222>>=4222>=>>=4222>>=22=224442>=22=",
"=222222>>>=222222222>>>>=>=222>>=42222>=>=2222>>>=2>=222422>=22=",
"=22222>>>>=22222222>>>>>===>2>>>=22222>>=2222>>>=22>>=2222>>=22=",
"=>>>>>>>>>=222>>>>>>>>>>=2=>>>>=22222>>>=22>>>>=22>>>=222>>=2>= ",
" =>>>>>>>>=>>>>>>>>>>>>>=2>=>>>=>>>>>>>>=>>>>>>=>>>>>=22>>>=>>= ",
"  =>>>>>>>=>>>>>>>>>>>>>=>>>=>>=>>>>>>>>=>>>>>=>>>>>>>=>>>>=>=  ",
"   =>>>>>>=>===========>=>>>========>>>>=>>>>=>>>>>>>>=>>>=>=   ",
"   $==>>>===&&&%%%%@@oo=====:%%%&&@@==>>=>==========>>=>====$   ",
"   $O@=*=::&&&%%%%%@@@o#:::::%%%&&@@@@==o=<:%%%%%@o=>===%+XX$   ",
"   $@@o=:<:%1<11111;;;%o$::15<1111;;@@o#o#:1%%%%%+X$=:<%++XX$   ",
"    $;o#:7511111111;;;%O$,57511111;;;%o#;$5751<<<$O#::<+--$$$   ",
"    $;O$,7511111111;;;OO$,,7511111;;;&#5;%$7511<$$O$:5,--*$$$   ",
"    $OO$,,711111111;;$OO#,,2511111;;$O#5;%$575<*$$O$,,,---$$    ",
"    $OO%,,211111111;$#OO#%,,711<1;$$OO#,;%O$75,$$$O$*,,,-$$$    ",
"     $O$,,25<<1111<$$$OO#O#,22<<1$$$O$,,$$@$,,,$##O#$,3,-$$$    ",
"      $ $,4,<<<<11-$$$O$$O#,2,--=$$$O$,,*$OO#,$$##O#@$,2$$$     ",
"        $,3,*=1<1--$$$O$$$O$4,;-$$$$$,3-*$OO#,$$$OO#@#,4$$$     ",
"         $,2,*;*;=$$$$$*,$O$,2--$$$+$,3-;$$O#$$$$O##O#,2$$      ",
"          $4,-----$$$$O*,$O$>4*;$$$O#,3-*$$O$$$$$O#$O$,$$$      ",
"          $2,,---=$$$O@,,*$$,2,$$$O$,,3-=$$OO$$$OO#$$ $$$       ",
"           $3,---$$#O@*,2%$O#,2%$$+$,,2---$@O#$$OO#$$  $        ",
"            $3---$$$O$,,$$O##,,$$$+$#,3;--$$O#$$OO##            ",
"             $,*$$$ $$$$$O# $,$$$O$  $,-*$$$$$$OO#              ",
"              $$$$    $$$#   $$$OO$   $$$$$$  $OO#              ",
"               $              $OO$     $$$    $O$               ",
"                               $$              $                ",
"                                                                ",
"                                                                ",
"                                                                ",
"                                                                ",
"                                                                ",
"                                                                ",
"                                                                ",
"                                                                ",
"                                                                ",
"                                                                ",
"                                                                ",
"                                                                "
};
